SplineFontDB: 3.0
FontName: SquareAntiqua-Bold
FullName: Square Antiqua Bold
FamilyName: Square Antiqua
Weight: Bold
Copyright: Copyright (c) 2020-2024 by Wojciech Kalinowski "wmk69" with Reserved Font Name "SquareAntiqua-Bold".\nThis Font Software is licensed under the SIL Open Font License, Version 1.1.
Version: 2.1.1; 2021-05-15
ItalicAngle: 0
UnderlinePosition: -80
UnderlineWidth: 320
Ascent: 1638
Descent: 410
InvalidEm: 0
LayerCount: 2
Layer: 0 1 "Warstwa t+AUIA-a" 1
Layer: 1 1 "Plan pierwszy" 0
XUID: [1021 783 23647091 10727182]
StyleMap: 0x0020
FSType: 0
OS2Version: 3
OS2_WeightWidthSlopeOnly: 0
OS2_UseTypoMetrics: 1
CreationTime: 1260698820
ModificationTime: 1621086087
PfmFamily: 17
TTFWeight: 700
TTFWidth: 5
LineGap: 300
VLineGap: 0
Panose: 2 14 8 2 7 5 3 6 2 4
OS2TypoAscent: 1990
OS2TypoAOffset: 0
OS2TypoDescent: -490
OS2TypoDOffset: 0
OS2TypoLinegap: 300
OS2WinAscent: 1990
OS2WinAOffset: 0
OS2WinDescent: 490
OS2WinDOffset: 0
HheadAscent: 1990
HheadAOffset: 0
HheadDescent: -490
HheadDOffset: 0
OS2SubXSize: 1434
OS2SubYSize: 1331
OS2SubXOff: 0
OS2SubYOff: 287
OS2SupXSize: 1434
OS2SupYSize: 1331
OS2SupXOff: 0
OS2SupYOff: 977
OS2StrikeYSize: 102
OS2StrikeYPos: 512
OS2CapHeight: 1510
OS2XHeight: 1100
OS2Vendor: '    '
OS2CodePages: 20000093.00000000
OS2UnicodeRanges: 8000002f.4000204b.00000000.00000000
Lookup: 258 0 0 "'kern' Horizontal Kerning lookup 0" { "'kern' Horizontal Kerning lookup 0-1 subtable" [307,0,6] } ['kern' ('DFLT' <'dflt' > 'grek' <'dflt' > 'latn' <'dflt' > ) ]
MarkAttachClasses: 1
DEI: 91125
KernClass2: 56 48 "'kern' Horizontal Kerning lookup 0-1 subtable"
 147 H I M N Igrave Iacute Icircumflex Idieresis Ntilde Hcircumflex Hbar Itilde Imacron Ibreve Iogonek Idotaccent Nacute Ncommaaccent Ncaron Eng uni1E40
 73 A Agrave Aacute Acircumflex Atilde Adieresis Aring Amacron Abreve Aogonek
 142 J U W Ugrave Uacute Ucircumflex Udieresis IJ Jcircumflex Utilde Umacron Ubreve Uring Uhungarumlaut Uogonek Wcircumflex Wgrave Wacute Wdieresis

StartChar: .notdef
Encoding: 65536 -1 0
Width: 914
Flags: W
HStem: 0 178<338 576> 1333 178<338 576>
VStem: 100 238<178 1333> 576 238<178 1333>
LayerCount: 2
Fore
SplineSet
100 0 m 1,0,-1
 100 1511 l 1,1,-1
 814 1511 l 1,2,-1
 814 0 l 1,3,-1
 100 0 l 1,0,-1
338 1333 m 1,4,-1
 338 178 l 1,5,-1
 576 178 l 1,6,-1
 576 1333 l 1,7,-1
 338 1333 l 1,4,-1
EndSplineSet
Validated: 19457
EndChar

StartChar: exclam
Encoding: 33 33 4
Width: 764
GlyphClass: 2
Flags: W
HStem: -20 377<245.452 518.548> 1490 20G<200 564>
VStem: 196 372<30.1163 306.884> 264 236<470 702.96>
LayerCount: 2
Fore
SplineSet
200 1510 m 1,0,-1
 564 1510 l 1,1,-1
 500 470 l 1,2,-1
 264 470 l 1,3,-1
 200 1510 l 1,0,-1
382 -20 m 152,-1,5
 196 -20 196 -20 196 168.5 c 128,-1,6
 196 357 196 357 382 357 c 128,-1,7
 568 357 568 357 568 168.5 c 128,-1,4
 568 -20 568 -20 382 -20 c 152,-1,5
EndSplineSet
Validated: 19457
EndChar

StartChar: quotedbl
Encoding: 34 34 5
Width: 651
GlyphClass: 2
Flags: W
HStem: 1120 410<54 241 409 596>
VStem: 54 187<1120 1287.94> 409 187<1120 1287.94>
LayerCount: 2
Fore
SplineSet
375 1530 m 1,0,-1
 631 1530 l 1,1,-1
 596 1120 l 1,2,-1
 409 1120 l 1,3,-1
 375 1530 l 1,0,-1
20 1530 m 1,4,-1
 276 1530 l 1,5,-1
 241 1120 l 1,6,-1
 54 1120 l 1,7,-1
 20 1530 l 1,4,-1
EndSplineSet
Validated: 19457
EndChar

StartChar: numbersign
Encoding: 35 35 6
Width: 1445
GlyphClass: 2
Flags: W
HStem: 456 210<100 410 622 824 1034 1345> 868 212<100 410 622 824 1034 1345>
VStem: 410 212<145 456 666 868 1080 1390> 824 210<145 456 666 868 1080 1390>
LayerCount: 2
Fore
SplineSet
410 1390 m 1,0,-1
 622 1390 l 1,1,-1
 622 1080 l 1,2,-1
 824 1080 l 1,3,-1
 824 1390 l 1,4,-1
 1034 1390 l 1,5,-1
 1034 1080 l 1,6,-1
 1345 1080 l 1,7,-1
 1345 868 l 1,8,-1
 1034 868 l 1,9,-1
 1034 666 l 1,10,-1
 1345 666 l 1,11,-1
 1345 456 l 1,12,-1
 1034 456 l 1,13,-1
 1034 145 l 1,14,-1
 824 145 l 1,15,-1
 824 456 l 1,16,-1
 622 456 l 1,17,-1
 622 145 l 1,18,-1
 410 145 l 1,19,-1
 410 456 l 1,20,-1
 100 456 l 1,21,-1
 100 666 l 1,22,-1
 410 666 l 1,23,-1
 410 868 l 1,24,-1
 100 868 l 1,25,-1
 100 1080 l 1,26,-1
 410 1080 l 1,27,-1
 410 1390 l 1,0,-1
824 666 m 1,28,-1
 824 868 l 1,29,-1
 622 868 l 1,30,-1
 622 666 l 1,31,-1
 824 666 l 1,28,-1
EndSplineSet
Validated: 19457
EndChar

StartChar: dollar
Encoding: 36 36 7
Width: 1388
GlyphClass: 2
Flags: W
HStem: -20 189<527.48 629 759 850.678> 708 215<759 880.641> 1338 182<543.397 629>
VStem: 150 320<987.594 1261.03> 629 130<-186 -19 171 708 931 1338 1529 1695> 958 320<308.451 639.609>
LayerCount: 2
Fore
SplineSet
585 -20 m 0,0,1
 110 -20 110 -20 110 399 c 1,2,-1
 430 480 l 1,3,4
 430 202 430 202 629 169 c 1,5,-1
 629 713 l 1,6,7
 150 734 150 734 150 1043 c 2,8,-1
 150 1046 l 2,9,10
 150 1461 150 1461 629 1520 c 1,11,-1
 629 1695 l 1,12,-1
 759 1695 l 1,13,-1
 759 1529 l 1,14,15
 781 1530 781 1530 803 1530 c 0,16,17
 1237 1530 1237 1530 1238 1112 c 1,18,-1
 918 1031 l 1,19,20
 918 1307 918 1307 759 1341 c 1,21,-1
 759 923 l 1,22,23
 1278 912 1278 912 1278 556 c 2,24,-1
 1278 554 l 2,25,26
 1278 57 1278 57 759 -10 c 1,27,-1
 759 -186 l 1,28,-1
 629 -186 l 1,29,-1
 629 -19 l 1,30,31
 607 -20 607 -20 585 -20 c 0,0,1
629 931 m 1,32,-1
 629 1338 l 1,33,34
 470 1303 470 1303 470 1115 c 2,35,-1
 470 1112 l 2,36,37
 470 962 470 962 629 931 c 1,32,-1
759 708 m 1,38,-1
 759 171 l 1,39,40
 958 214 958 214 958 513 c 2,41,-1
 958 515 l 2,42,43
 958 687 958 687 759 708 c 1,38,-1
EndSplineSet
Validated: 19457
EndChar

StartChar: percent
Encoding: 37 37 8
Width: 1864
GlyphClass: 2
Flags: W
HStem: -20 175<1266.61 1468.52> 0 21G<417 727.656> 507 174<1285.43 1487.72> 829 174<376.276 578.571> 1355 175<395.475 597.394> 1490 20G<1136.34 1447>
VStem: 100 251<1031.31 1311.58> 622 251<1047.42 1327.69> 991 251<182.308 462.581> 1513 251<198.419 478.692>
DStem2: 417 0 718 0 0.434766 0.900544<130.864 1676.77>
LayerCount: 2
Fore
SplineSet
1317 -20 m 0,0,1
 991 -20 991 -20 991 275 c 2,2,-1
 991 276 l 2,3,4
 991 681 991 681 1438 681 c 0,5,6
 1764 681 1764 681 1764 386 c 2,7,-1
 1764 385 l 2,8,9
 1764 -20 1764 -20 1317 -20 c 0,0,1
1363 155 m 0,10,11
 1513 155 1513 155 1513 364 c 2,12,-1
 1513 365 l 2,13,14
 1513 507 1513 507 1385 507 c 0,15,16
 1242 507 1242 507 1242 295 c 2,17,-1
 1242 293 l 2,18,19
 1242 155 1242 155 1363 155 c 0,10,11
547 1530 m 0,20,21
 873 1530 873 1530 873 1235 c 2,22,-1
 873 1234 l 2,23,24
 873 829 873 829 426 829 c 0,25,26
 100 829 100 829 100 1124 c 2,27,-1
 100 1125 l 2,28,29
 100 1530 100 1530 547 1530 c 0,20,21
501 1355 m 0,30,31
 351 1355 351 1355 351 1146 c 2,32,-1
 351 1145 l 2,33,34
 351 1003 351 1003 479 1003 c 0,35,36
 622 1003 622 1003 622 1215 c 2,37,-1
 622 1217 l 2,38,39
 622 1355 622 1355 501 1355 c 0,30,31
417 0 m 1,40,-1
 1146 1510 l 1,41,-1
 1447 1510 l 1,42,-1
 718 0 l 1,43,-1
 417 0 l 1,40,-1
EndSplineSet
Validated: 19457
EndChar

StartChar: ampersand
Encoding: 38 38 9
Width: 1617
GlyphClass: 2
Flags: W
HStem: -20 184<532.083 897.322> 0 21G<1198.24 1567> 1334 196<576.971 1021>
VStem: 110 320<264.054 586.881> 210 307<968.954 1271.25> 1148 304<559.859 915>
DStem2: 835 919 634 729 0.623033 -0.782196<6.18179 462.92 800.352 954.967>
LayerCount: 2
Fore
SplineSet
1567 0 m 1,0,-1
 1214 0 l 1,1,-1
 1121 118 l 1,2,3
 914 -20 914 -20 594 -20 c 0,4,5
 110 -20 110 -20 110 379 c 2,6,-1
 110 386 l 2,7,8
 110 648 110 648 361 803 c 1,9,10
 210 905 210 905 210 1049 c 2,11,-1
 210 1051 l 2,12,13
 210 1530 210 1530 834 1530 c 0,14,15
 1198 1530 1198 1530 1198 1208 c 1,16,-1
 892 1125 l 1,17,-1
 892 1157 l 2,18,19
 892 1334 892 1334 700 1334 c 0,20,21
 517 1334 517 1334 517 1098 c 2,22,-1
 517 1096 l 2,23,24
 517 919 517 919 714 919 c 2,25,-1
 835 919 l 1,26,-1
 1116 551 l 1,27,28
 1148 681 1148 681 1148 915 c 1,29,-1
 1452 974 l 1,30,31
 1452 553 1452 553 1312 320 c 1,32,-1
 1567 0 l 1,0,-1
992 279 m 1,33,-1
 634 729 l 1,34,35
 430 687 430 687 430 443 c 2,36,-1
 430 436 l 2,37,38
 430 165 430 165 696 164 c 0,39,40
 886 164 886 164 992 279 c 1,33,-1
EndSplineSet
Validated: 19457
EndChar

StartChar: quotesingle
Encoding: 39 39 10
Width: 296
GlyphClass: 2
Flags: W
HStem: 1120 410<54 241>
VStem: 54 187<1120 1287.94>
LayerCount: 2
Fore
SplineSet
20 1530 m 1,0,-1
 276 1530 l 1,1,-1
 241 1120 l 1,2,-1
 54 1120 l 1,3,-1
 20 1530 l 1,0,-1
EndSplineSet
Validated: 19457
EndChar

StartChar: parenleft
Encoding: 40 40 11
Width: 888
GlyphClass: 2
Flags: W
VStem: 200 320<375.085 1146.08>
LayerCount: 2
Fore
SplineSet
579 1827 m 9,0,1
 838 1827 l 1,2,3
 520 1322 520 1322 520 765 c 0,4,5
 520 215 520 215 838 -297 c 1,6,-1
 579 -297 l 17,7,8
 200 180 200 180 200 765 c 0,9,10
 200 1341 200 1341 579 1827 c 9,0,1
EndSplineSet
Validated: 19457
EndChar

StartChar: parenright
Encoding: 41 41 12
Width: 888
GlyphClass: 2
Flags: W
VStem: 368 320<375.085 1146.08>
LayerCount: 2
Fore
SplineSet
309 1827 m 17,0,1
 688 1341 688 1341 688 765 c 0,2,3
 688 180 688 180 309 -297 c 9,4,-1
 50 -297 l 1,5,6
 368 215 368 215 368 765 c 0,7,8
 368 1322 368 1322 50 1827 c 1,9,-1
 309 1827 l 17,0,1
EndSplineSet
Validated: 19457
EndChar

StartChar: asterisk
Encoding: 42 42 13
Width: 1080
GlyphClass: 2
Flags: W
HStem: 1490 20G<434 646>
VStem: 434 212<617 880 1247 1510>
DStem2: 206 1379 100 1195 0.865962 -0.50011<0.228238 263.182 630.578 893.804> 100 932 206 748 0.865962 0.50011<0 263.226 630.622 893.575>
LayerCount: 2
Fore
SplineSet
434 1510 m 1,0,-1
 646 1510 l 1,1,-1
 646 1247 l 1,2,-1
 874 1379 l 1,3,-1
 980 1195 l 1,4,-1
 752 1064 l 1,5,-1
 980 932 l 1,6,-1
 874 748 l 1,7,-1
 646 880 l 1,8,-1
 646 617 l 1,9,-1
 434 617 l 1,10,-1
 434 880 l 1,11,-1
 206 748 l 1,12,-1
 100 932 l 1,13,-1
 328 1064 l 1,14,-1
 100 1195 l 1,15,-1
 206 1379 l 1,16,-1
 434 1247 l 1,17,-1
 434 1510 l 1,0,-1
EndSplineSet
Validated: 19457
EndChar

StartChar: plus
Encoding: 43 43 14
Width: 1184
GlyphClass: 2
Flags: W
HStem: 642 251<100 466 717 1084>
VStem: 466 251<275 642 893 1235>
LayerCount: 2
Fore
SplineSet
466 275 m 1,0,-1
 466 642 l 1,1,-1
 100 642 l 1,2,-1
 100 893 l 1,3,-1
 466 893 l 1,4,-1
 466 1235 l 1,5,-1
 717 1235 l 1,6,-1
 717 893 l 1,7,-1
 1084 893 l 1,8,-1
 1084 642 l 1,9,-1
 717 642 l 1,10,-1
 717 275 l 1,11,-1
 466 275 l 1,0,-1
EndSplineSet
Validated: 19457
EndChar

StartChar: comma
Encoding: 44 44 15
Width: 422
GlyphClass: 2
Flags: W
VStem: 173 229<-114.818 108.385>
LayerCount: 2
Fore
SplineSet
187 380 m 1,0,1
 402 252 402 252 402 44 c 0,2,3
 402 -179 402 -179 101 -328 c 1,4,-1
 20 -195 l 1,5,6
 173 -124 173 -124 173 0 c 0,7,8
 173 113 173 113 33 171 c 1,9,-1
 187 380 l 1,0,1
EndSplineSet
Validated: 19457
EndChar

StartChar: hyphen
Encoding: 45 45 16
Width: 1184
GlyphClass: 2
Flags: W
HStem: 642 251<100 1084>
LayerCount: 2
Fore
SplineSet
100 893 m 1,0,-1
 1084 893 l 1,1,-1
 1084 642 l 1,2,-1
 100 642 l 1,3,-1
 100 893 l 1,0,-1
EndSplineSet
Validated: 19457
EndChar

StartChar: period
Encoding: 46 46 17
Width: 412
GlyphClass: 2
Flags: W
HStem: -20 377<69.4517 342.548>
VStem: 20 372<30.1163 306.884>
LayerCount: 2
Fore
SplineSet
206 -20 m 152,-1,1
 20 -20 20 -20 20 168.5 c 128,-1,2
 20 357 20 357 206 357 c 128,-1,3
 392 357 392 357 392 168.5 c 128,-1,0
 392 -20 392 -20 206 -20 c 152,-1,1
EndSplineSet
Validated: 19457
EndChar

StartChar: slash
Encoding: 47 47 18
Width: 1149
GlyphClass: 2
Flags: W
DStem2: 10 -143 256 -259 0.420538 0.907275<0 2096.99>
LayerCount: 2
Fore
SplineSet
893 1762 m 1,0,-1
 1139 1645 l 1,1,-1
 256 -259 l 1,2,-1
 10 -143 l 1,3,-1
 893 1762 l 1,0,-1
EndSplineSet
Validated: 1
EndChar

StartChar: zero
Encoding: 48 48 19
Width: 1408
GlyphClass: 2
Flags: W
HStem: -20 184<525.997 840.211> 1346 184<567.789 882.003>
VStem: 110 330<244.062 1184.06> 968 330<325.938 1265.94>
LayerCount: 2
Fore
SplineSet
697 164 m 0,0,1
 968 164 968 164 968 597 c 2,2,-1
 968 1126 l 2,3,4
 968 1346 968 1346 711 1346 c 0,5,6
 440 1346 440 1346 440 913 c 2,7,-1
 440 384 l 2,8,9
 440 164 440 164 697 164 c 0,0,1
605 -20 m 0,10,11
 110 -20 110 -20 110 380 c 2,12,-1
 110 915 l 2,13,14
 110 1530 110 1530 803 1530 c 0,15,16
 1298 1530 1298 1530 1298 1130 c 2,17,-1
 1298 595 l 2,18,19
 1298 -20 1298 -20 605 -20 c 0,10,11
EndSplineSet
Validated: 19457
EndChar

StartChar: one
Encoding: 49 49 20
Width: 775
GlyphClass: 2
Flags: W
HStem: 0 21G<255 575> 1318 192<100.786 250.064>
VStem: 255 320<0 1316.43>
LayerCount: 2
Fore
SplineSet
255 0 m 1,0,-1
 255 1192 l 2,1,2
 255 1268 255 1268 241 1318 c 1,3,4
 139 1318 139 1318 20 1218 c 1,5,-1
 20 1447 l 1,6,7
 190 1510 190 1510 380 1510 c 2,8,-1
 512 1510 l 1,9,10
 575 1375 575 1375 575 1193 c 2,11,-1
 575 0 l 1,12,-1
 255 0 l 1,0,-1
EndSplineSet
Validated: 19457
EndChar

StartChar: two
Encoding: 50 50 21
Width: 1208
GlyphClass: 2
Flags: W
HStem: 0 187<365 1001.29> 625 189<486.1 690.628> 1343 187<302.141 741.317>
VStem: 808 330<924.812 1277.98>
LayerCount: 2
Fore
SplineSet
30 0 m 1,0,1
 30 814 30 814 516 814 c 0,2,3
 808 814 808 814 808 1103 c 2,4,-1
 808 1166 l 2,5,6
 808 1343 808 1343 573 1343 c 2,7,-1
 542 1343 l 2,8,9
 354 1343 354 1343 182 1240 c 1,10,-1
 182 1466 l 1,11,12
 338 1530 338 1530 542 1530 c 2,13,-1
 655 1530 l 2,14,15
 1138 1530 1138 1530 1138 1176 c 2,16,-1
 1138 1158 l 2,17,18
 1138 625 1138 625 574 625 c 24,19,20
 410 625 410 625 365 187 c 1,21,-1
 761 187 l 2,22,23
 958 187 958 187 1121 291 c 1,24,-1
 1121 66 l 1,25,26
 962 0 962 0 761 0 c 2,27,-1
 30 0 l 1,0,1
EndSplineSet
Validated: 19457
EndChar

StartChar: three
Encoding: 51 51 22
Width: 1308
GlyphClass: 2
Flags: W
HStem: -20 184<465.494 771.439> 730 188<303 624.788> 1343 187<358.141 762.984>
VStem: 800 319<1050.99 1307.2> 888 330<301.75 658.5>
LayerCount: 2
Fore
SplineSet
515 -20 m 0,0,1
 30 -20 30 -20 30 399 c 1,2,-1
 360 480 l 1,3,4
 360 164 360 164 617 164 c 0,5,6
 888 164 888 164 888 513 c 2,7,-1
 888 536 l 2,8,9
 888 730 888 730 631 730 c 2,10,-1
 303 730 l 1,11,-1
 303 918 l 1,12,13
 800 918 800 918 800 1187 c 2,14,-1
 800 1207 l 2,15,16
 800 1343 800 1343 629 1343 c 2,17,-1
 598 1343 l 2,18,19
 410 1343 410 1343 238 1240 c 1,20,-1
 238 1467 l 1,21,22
 408 1530 408 1530 598 1530 c 2,23,-1
 654 1530 l 2,24,25
 1119 1530 1119 1530 1119 1239 c 2,26,-1
 1119 1217 l 2,27,28
 1119 996 1119 996 923 886 c 1,29,30
 1218 811 1218 811 1218 576 c 2,31,-1
 1218 552 l 2,32,33
 1218 -20 1218 -20 515 -20 c 0,0,1
EndSplineSet
Validated: 19457
EndChar

StartChar: four
Encoding: 52 52 23
Width: 1301
GlyphClass: 2
Flags: W
HStem: 0 21G<851 1171> 422 188<450 851> 1490 20G<130 450>
VStem: 130 320<610 1510> 851 320<0 422 610 1222>
LayerCount: 2
Fore
SplineSet
1171 0 m 1,0,-1
 851 0 l 1,1,-1
 851 422 l 1,2,-1
 130 422 l 1,3,-1
 130 1510 l 1,4,-1
 450 1510 l 1,5,-1
 450 610 l 1,6,-1
 851 610 l 1,7,-1
 851 1222 l 1,8,-1
 1171 1222 l 1,9,-1
 1171 0 l 1,0,-1
EndSplineSet
Validated: 19457
EndChar

StartChar: five
Encoding: 53 53 24
Width: 1288
GlyphClass: 2
Flags: W
HStem: -20 184<465.494 771.439> 730 188<519 813.104> 1322 188<546 1110>
VStem: 888 330<302.312 656.156>
LayerCount: 2
Fore
SplineSet
515 -20 m 0,0,1
 30 -20 30 -20 30 399 c 1,2,-1
 360 480 l 1,3,4
 360 164 360 164 617 164 c 0,5,6
 888 164 888 164 888 513 c 2,7,-1
 888 536 l 2,8,9
 888 730 888 730 631 730 c 2,10,-1
 198 730 l 1,11,-1
 250 1510 l 1,12,-1
 1110 1510 l 1,13,-1
 1110 1322 l 1,14,-1
 546 1322 l 1,15,-1
 519 918 l 1,16,-1
 725 918 l 2,17,18
 1218 918 1218 918 1218 576 c 2,19,-1
 1218 553 l 2,20,21
 1218 -20 1218 -20 515 -20 c 0,0,1
EndSplineSet
Validated: 19457
EndChar

StartChar: six
Encoding: 54 54 25
Width: 1408
GlyphClass: 2
Flags: W
HStem: -20 185<530.728 852.085> 732 185<534.519 892.878> 1346 184<568.206 864.717>
VStem: 110 320<264.766 623.941 863 1184.06> 968 330<302.875 657.453 1112 1232.42>
LayerCount: 2
Fore
SplineSet
595 -20 m 0,0,1
 110 -20 110 -20 110 380 c 2,2,-1
 110 915 l 2,3,4
 110 1530 110 1530 786 1530 c 0,5,6
 1291 1530 1291 1530 1291 1112 c 1,7,-1
 968 1030 l 1,8,9
 968 1346 968 1346 711 1346 c 0,10,11
 430 1346 430 1346 430 916 c 2,12,-1
 430 863 l 1,13,14
 581 917 581 917 784 917 c 0,15,16
 1298 917 1298 917 1298 578 c 2,17,-1
 1298 554 l 2,18,19
 1298 -20 1298 -20 595 -20 c 0,0,1
700 165 m 0,20,21
 968 165 968 165 968 515 c 2,22,-1
 968 537 l 2,23,24
 968 732 968 732 711 732 c 0,25,26
 430 732 430 732 430 441 c 2,27,-1
 430 433 l 2,28,29
 430 165 430 165 700 165 c 0,20,21
EndSplineSet
Validated: 19457
EndChar

StartChar: seven
Encoding: 55 55 26
Width: 1129
GlyphClass: 2
Flags: W
HStem: 0 21G<102 464.837> 1323 187<138.438 772>
DStem2: 102 0 455 0 0.441355 0.897333<155.798 1482.88>
LayerCount: 2
Fore
SplineSet
102 0 m 1,0,-1
 772 1323 l 1,1,-1
 370 1323 l 2,2,3
 176 1323 176 1323 10 1213 c 1,4,-1
 10 1445 l 1,5,6
 158 1510 158 1510 370 1510 c 2,7,-1
 1119 1510 l 1,8,-1
 1119 1350 l 1,9,-1
 455 0 l 1,10,-1
 102 0 l 1,0,-1
EndSplineSet
Validated: 19457
EndChar

StartChar: eight
Encoding: 56 56 27
Width: 1408
GlyphClass: 2
Flags: W
HStem: -20 184<533.436 851.439> 730 194<562.334 834.465> 1334 196<573.631 845.018>
VStem: 110 330<263.342 599.089> 210 302<975.574 1271.13> 893 305<1004.05 1278.55> 968 330<301.75 661.188>
LayerCount: 2
Fore
SplineSet
711 730 m 0,0,1
 440 730 440 730 440 440 c 2,2,-1
 440 433 l 2,3,4
 440 164 440 164 697 164 c 0,5,6
 968 164 968 164 968 513 c 2,7,-1
 968 536 l 2,8,9
 968 730 968 730 711 730 c 0,0,1
708 924 m 0,10,11
 893 924 893 924 893 1154 c 2,12,-1
 893 1156 l 2,13,14
 893 1334 893 1334 700 1334 c 0,15,16
 512 1334 512 1334 512 1101 c 2,17,-1
 512 1099 l 2,18,19
 512 924 512 924 708 924 c 0,10,11
595 -20 m 0,20,21
 110 -20 110 -20 110 378 c 2,22,-1
 110 385 l 2,23,24
 110 673 110 673 353 801 c 1,25,26
 210 884 210 884 210 1048 c 2,27,-1
 210 1050 l 2,28,29
 210 1530 210 1530 834 1530 c 0,30,31
 1198 1530 1198 1530 1198 1213 c 2,32,-1
 1198 1210 l 2,33,34
 1197 976 1197 976 1037 875 c 1,35,36
 1298 803 1298 803 1298 575 c 2,37,-1
 1298 552 l 2,38,39
 1298 -20 1298 -20 595 -20 c 0,20,21
EndSplineSet
Validated: 19457
EndChar

StartChar: nine
Encoding: 57 57 28
Width: 1408
GlyphClass: 2
Flags: W
HStem: -20 184<543.283 839.794> 593 185<515.122 873.481> 1345 185<555.915 877.272>
VStem: 110 330<277.58 398 852.547 1207.12> 978 320<325.938 647 886.059 1245.23>
LayerCount: 2
Fore
SplineSet
622 -20 m 0,0,1
 117 -20 117 -20 117 398 c 1,2,-1
 440 480 l 1,3,4
 440 164 440 164 697 164 c 0,5,6
 978 164 978 164 978 594 c 2,7,-1
 978 647 l 1,8,9
 827 593 827 593 624 593 c 0,10,11
 110 593 110 593 110 932 c 2,12,-1
 110 956 l 2,13,14
 110 1530 110 1530 813 1530 c 0,15,16
 1298 1530 1298 1530 1298 1130 c 2,17,-1
 1298 595 l 2,18,19
 1298 -20 1298 -20 622 -20 c 0,0,1
708 1345 m 0,20,21
 440 1345 440 1345 440 995 c 2,22,-1
 440 973 l 2,23,24
 440 778 440 778 697 778 c 0,25,26
 978 778 978 778 978 1069 c 2,27,-1
 978 1077 l 2,28,29
 978 1345 978 1345 708 1345 c 0,20,21
EndSplineSet
Validated: 19457
EndChar

StartChar: colon
Encoding: 58 58 29
Width: 412
GlyphClass: 2
Flags: W
HStem: -20 377<69.4517 342.548> 576 376<69.4517 342.548>
VStem: 20 372<30.1163 306.884 625.983 902.017>
LayerCount: 2
Fore
SplineSet
206 952 m 128,-1,1
 392 952 392 952 392 764 c 128,-1,2
 392 576 392 576 206 576 c 152,-1,3
 20 576 20 576 20 764 c 128,-1,0
 20 952 20 952 206 952 c 128,-1,1
206 -20 m 152,-1,5
 20 -20 20 -20 20 168.5 c 128,-1,6
 20 357 20 357 206 357 c 128,-1,7
 392 357 392 357 392 168.5 c 128,-1,4
 392 -20 392 -20 206 -20 c 152,-1,5
EndSplineSet
Validated: 19457
EndChar

StartChar: semicolon
Encoding: 59 59 30
Width: 422
GlyphClass: 2
Flags: W
HStem: 576 376<69.4517 342.548>
VStem: 20 372<625.983 902.017> 173 229<-114.818 108.385>
LayerCount: 2
Fore
SplineSet
187 380 m 1,0,1
 402 252 402 252 402 44 c 0,2,3
 402 -179 402 -179 101 -328 c 1,4,-1
 20 -195 l 1,5,6
 173 -124 173 -124 173 0 c 0,7,8
 173 113 173 113 33 171 c 1,9,-1
 187 380 l 1,0,1
206 952 m 128,-1,11
 392 952 392 952 392 764 c 128,-1,12
 392 576 392 576 206 576 c 152,-1,13
 20 576 20 576 20 764 c 128,-1,10
 20 952 20 952 206 952 c 128,-1,11
EndSplineSet
Validated: 19457
EndChar

StartChar: less
Encoding: 60 60 31
Width: 1106
GlyphClass: 2
Flags: W
HStem: 159 364<592 956>
DStem2: 100 874 451 821 0.852 0.523542<271.304 853.915> 451 821 100 685 0.852 -0.523542<0 586.275>
LayerCount: 2
Fore
SplineSet
956 1400 m 1,0,-1
 956 1112 l 1,1,-1
 451 821 l 1,2,-1
 956 523 l 1,3,-1
 956 159 l 1,4,-1
 100 685 l 1,5,-1
 100 874 l 1,6,-1
 956 1400 l 1,0,-1
EndSplineSet
Validated: 19457
EndChar

StartChar: equal
Encoding: 61 61 32
Width: 1203
GlyphClass: 2
Flags: W
HStem: 420 251<100 1103> 868 251<100 1103>
LayerCount: 2
Fore
SplineSet
1103 868 m 1,0,-1
 100 868 l 1,1,-1
 100 1119 l 1,2,-1
 1103 1119 l 1,3,-1
 1103 868 l 1,0,-1
1103 420 m 1,4,-1
 100 420 l 1,5,-1
 100 671 l 1,6,-1
 1103 671 l 1,7,-1
 1103 420 l 1,4,-1
EndSplineSet
Validated: 19457
EndChar

StartChar: greater
Encoding: 62 62 33
Width: 1106
GlyphClass: 2
Flags: W
HStem: 1036 364<150 514>
DStem2: 150 1400 150 1036 0.852 -0.523542<190.569 776.845> 150 447 150 159 0.852 0.523542<0 582.611>
LayerCount: 2
Fore
SplineSet
150 1400 m 1,0,-1
 1006 874 l 1,1,-1
 1006 685 l 1,2,-1
 150 159 l 1,3,-1
 150 447 l 1,4,-1
 655 738 l 1,5,-1
 150 1036 l 1,6,-1
 150 1400 l 1,0,-1
EndSplineSet
Validated: 19457
EndChar

StartChar: question
Encoding: 63 63 34
Width: 1408
GlyphClass: 2
Flags: W
HStem: -20 377<517.452 790.548> 559 176<814.329 885.07> 1346 184<567.76 891.685>
VStem: 110 330<950 1158.19> 468 372<30.1163 306.884> 978 320<844.786 1267.92>
LayerCount: 2
Fore
SplineSet
654 -20 m 152,-1,1
 468 -20 468 -20 468 168.5 c 128,-1,2
 468 357 468 357 654 357 c 128,-1,3
 840 357 840 357 840 168.5 c 128,-1,0
 840 -20 840 -20 654 -20 c 152,-1,1
813 1530 m 24,4,5
 1298 1530 1298 1530 1298 1133 c 2,6,-1
 1298 1130 l 2,7,8
 1298 559 1298 559 858 559 c 0,9,10
 813 559 813 559 813 495 c 1,11,-1
 493 388 l 1,12,13
 493 735 493 735 783 735 c 0,14,15
 978 735 978 735 978 1124 c 2,16,-1
 978 1127 l 2,17,18
 978 1346 978 1346 709 1346 c 128,-1,19
 440 1346 440 1346 440 950 c 9,20,-1
 110 869 l 1,21,22
 110 1530 110 1530 813 1530 c 24,4,5
EndSplineSet
Validated: 19457
EndChar

StartChar: at
Encoding: 64 64 35
Width: 1480
GlyphClass: 2
Flags: W
HStem: -430 167<501.269 835.805> -20 190<603 889.031> 0 21G<1073 1410> 545 151<834.62 1014> 933 187<632.115 980.521>
VStem: 130 299<-188.911 730.739> 486 243<178.752 444.144> 1035 295<696 875.69> 1055 275<70.0713 215>
LayerCount: 2
Fore
SplineSet
1410 0 m 1,0,-1
 1091 0 l 1,1,2
 1055 99 1055 99 1055 215 c 1,3,4
 943 -20 943 -20 720 -20 c 0,5,6
 486 -20 486 -20 486 222 c 2,7,-1
 486 229 l 2,8,9
 486 696 486 696 1035 696 c 1,10,-1
 1035 744 l 2,11,12
 1035 933 1035 933 847 933 c 0,13,14
 429 932 429 932 429 504 c 2,15,-1
 429 -33 l 2,16,17
 429 -263 429 -263 640 -263 c 0,18,19
 896 -263 896 -263 896 -103 c 1,20,-1
 1197 -67 l 1,21,22
 1197 -430 1197 -430 605 -430 c 24,23,24
 130 -430 130 -430 130 -35 c 2,25,-1
 130 507 l 2,26,27
 130 1120 130 1120 899 1120 c 0,28,29
 1330 1120 1330 1120 1330 812 c 2,30,-1
 1330 308 l 2,31,32
 1330 134 1330 134 1410 0 c 1,0,-1
1014 545 m 1,33,34
 729 545 729 545 729 276 c 2,35,-1
 729 262 l 2,36,37
 729 170 729 170 807 170 c 0,38,39
 936 170 936 170 1014 545 c 1,33,34
EndSplineSet
Validated: 19457
EndChar

StartChar: B
Encoding: 66 66 36
Width: 1356
GlyphClass: 2
Flags: W
HStem: 0 187<470 819.588> 730 190<471 717.588> 1323 187<461 810.984>
VStem: 150 320<187 730 920 1320.04> 848 319<1049.67 1287.2> 936 330<322.156 661.255>
LayerCount: 2
Fore
SplineSet
470 187 m 1,0,-1
 665 187 l 2,1,2
 936 187 936 187 936 533 c 2,3,-1
 936 535 l 2,4,5
 936 730 936 730 679 730 c 2,6,-1
 471 730 l 1,7,-1
 470 187 l 1,0,-1
150 0 m 1,8,-1
 150 1193 l 2,9,10
 150 1380 150 1380 60 1510 c 1,11,-1
 702 1510 l 2,12,13
 1167 1510 1167 1510 1167 1219 c 2,14,-1
 1167 1217 l 2,15,16
 1167 1000 1167 1000 940 890 c 1,17,18
 1266 826 1266 826 1266 574 c 2,19,-1
 1266 572 l 2,20,21
 1266 0 1266 0 563 0 c 2,22,-1
 150 0 l 1,8,-1
471 920 m 1,23,24
 848 920 848 920 848 1171 c 2,25,-1
 848 1199 l 2,26,27
 848 1323 848 1323 677 1323 c 2,28,-1
 461 1323 l 1,29,30
 470 1266 470 1266 470 1189 c 2,31,-1
 471 920 l 1,23,24
EndSplineSet
Validated: 19457
EndChar

StartChar: C
Encoding: 67 67 37
Width: 1409
GlyphClass: 2
Flags: W
HStem: -20 184<521.748 837.238> 1346 184<571.09 862.506>
VStem: 110 330<244.062 1184.06> 965 334<353.648 509 1111 1240.05>
LayerCount: 2
Fore
SplineSet
595 -20 m 0,0,1
 110 -20 110 -20 110 380 c 2,2,-1
 110 915 l 2,3,4
 110 1530 110 1530 813 1530 c 0,5,6
 1298 1530 1298 1530 1298 1111 c 1,7,-1
 968 1029 l 1,8,9
 968 1346 968 1346 711 1346 c 0,10,11
 440 1346 440 1346 440 913 c 2,12,-1
 440 384 l 2,13,14
 440 164 440 164 697 164 c 0,15,16
 931 164 931 164 965 509 c 9,17,-1
 1299 546 l 1,18,19
 1247 -20 1247 -20 595 -20 c 0,0,1
EndSplineSet
Validated: 19457
EndChar

StartChar: D
Encoding: 68 68 38
Width: 1408
GlyphClass: 2
Flags: W
HStem: 0 187<470 833.719> 1323 187<458 885.821>
VStem: 150 320<187 1320.55> 968 330<346.304 1246.5>
LayerCount: 2
Fore
SplineSet
470 187 m 1,0,-1
 698 187 l 2,1,2
 968 187 968 187 968 616 c 2,3,-1
 968 1106 l 2,4,5
 968 1323 968 1323 710 1323 c 2,6,-1
 458 1323 l 1,7,8
 470 1258 470 1258 470 1187 c 2,9,-1
 470 187 l 1,0,-1
150 0 m 1,10,-1
 150 1193 l 2,11,12
 150 1370 150 1370 60 1510 c 1,13,-1
 813 1510 l 2,14,15
 1298 1510 1298 1510 1298 1111 c 2,16,-1
 1298 615 l 2,17,18
 1298 0 1298 0 621 0 c 2,19,-1
 150 0 l 1,10,-1
EndSplineSet
Validated: 19457
EndChar

StartChar: E
Encoding: 69 69 39
Width: 1131
GlyphClass: 2
Flags: W
HStem: 0 187<470 971.325> 667 188<470 952> 1323 187<458 952>
VStem: 150 320<187 667 855 1320.91>
LayerCount: 2
Fore
SplineSet
150 0 m 1,0,-1
 150 1193 l 2,1,2
 150 1383 150 1383 60 1510 c 1,3,-1
 952 1510 l 1,4,-1
 952 1323 l 1,5,-1
 458 1323 l 1,6,7
 470 1256 470 1256 470 1189 c 2,8,-1
 470 855 l 1,9,-1
 952 855 l 1,10,-1
 952 667 l 1,11,-1
 470 667 l 1,12,-1
 470 187 l 1,13,-1
 741 187 l 2,14,15
 937 187 937 187 1101 302 c 1,16,-1
 1101 66 l 1,17,18
 944 0 944 0 741 0 c 2,19,-1
 150 0 l 1,0,-1
EndSplineSet
Validated: 19457
EndChar

StartChar: F
Encoding: 70 70 40
Width: 1022
GlyphClass: 2
Flags: W
HStem: 0 21G<150 470> 663 188<470 952> 1323 187<458 949>
VStem: 150 320<0 663 851 1319.12>
LayerCount: 2
Fore
SplineSet
150 0 m 1,0,-1
 150 1193 l 2,1,2
 150 1378 150 1378 60 1510 c 1,3,-1
 952 1510 l 1,4,-1
 949 1323 l 1,5,-1
 458 1323 l 1,6,7
 470 1254 470 1254 470 1187 c 2,8,-1
 470 851 l 1,9,-1
 952 851 l 1,10,-1
 952 663 l 1,11,-1
 470 663 l 1,12,-1
 470 0 l 1,13,-1
 150 0 l 1,0,-1
EndSplineSet
Validated: 19457
EndChar

StartChar: G
Encoding: 71 71 41
Width: 1408
GlyphClass: 2
Flags: W
HStem: -20 184<525.997 840.211> 607 188<751.625 968> 1346 184<567.789 864.807>
VStem: 110 330<244.062 1184.06> 968 330<331.188 607 1111 1231.71>
LayerCount: 2
Fore
SplineSet
605 -20 m 0,0,1
 110 -20 110 -20 110 380 c 2,2,-1
 110 915 l 2,3,4
 110 1530 110 1530 803 1530 c 0,5,6
 1298 1530 1298 1530 1298 1111 c 1,7,-1
 968 1029 l 1,8,9
 966 1346 966 1346 711 1346 c 0,10,11
 440 1346 440 1346 440 913 c 2,12,-1
 440 384 l 2,13,14
 440 164 440 164 697 164 c 0,15,16
 968 164 968 164 968 592 c 2,17,-1
 968 607 l 1,18,19
 790 607 790 607 626 492 c 1,20,-1
 626 729 l 1,21,22
 786 795 786 795 986 795 c 2,23,-1
 1298 795 l 1,24,-1
 1298 599 l 2,25,26
 1298 -20 1298 -20 605 -20 c 0,0,1
EndSplineSet
Validated: 19457
EndChar

StartChar: H
Encoding: 72 72 42
Width: 1426
GlyphClass: 2
Flags: W
HStem: 0 21G<150 470 987.5 1366> 665 188<470 956> 1490 20G<60 438 956 1276>
VStem: 150 320<0 665 853 1424.12> 956 320<88.7146 665 853 1510>
LayerCount: 2
Fore
SplineSet
150 0 m 1,0,-1
 150 1193 l 6,1,2
 150 1374 150 1374 60 1510 c 1,3,-1
 406 1510 l 1,4,5
 470 1371 470 1371 470 1194 c 2,6,-1
 470 853 l 1,7,-1
 956 853 l 1,8,-1
 956 1510 l 1,9,-1
 1276 1510 l 1,10,-1
 1276 317 l 2,11,12
 1276 138 1276 138 1366 0 c 1,13,-1
 1019 0 l 1,14,15
 956 146 956 146 956 315 c 2,16,-1
 956 665 l 1,17,-1
 470 665 l 1,18,-1
 470 0 l 1,19,-1
 150 0 l 1,0,-1
EndSplineSet
Validated: 19457
EndChar

StartChar: I
Encoding: 73 73 43
Width: 620
GlyphClass: 2
Flags: W
HStem: 0 21G<150 470> 1490 20G<60 438>
VStem: 150 320<0 1423.61>
LayerCount: 2
Fore
SplineSet
150 0 m 1,0,-1
 150 1193 l 2,1,2
 150 1374 150 1374 60 1510 c 1,3,-1
 406 1510 l 1,4,5
 470 1370 470 1370 470 1193 c 2,6,-1
 470 0 l 1,7,-1
 150 0 l 1,0,-1
EndSplineSet
Validated: 19457
EndChar

StartChar: J
Encoding: 74 74 44
Width: 1148
GlyphClass: 2
Flags: W
HStem: -20 184<192 590.581> 1323 187<349.945 678>
VStem: 678 320<265.833 1323>
LayerCount: 2
Fore
SplineSet
374 -20 m 0,0,1
 10 -20 10 -20 10 319 c 1,2,-1
 340 401 l 1,3,4
 340 164 340 164 476 164 c 0,5,6
 678 164 678 164 678 497 c 2,7,-1
 678 1323 l 1,8,-1
 588 1323 l 2,9,10
 404 1323 404 1323 228 1220 c 1,11,-1
 228 1444 l 1,12,13
 380 1510 380 1510 588 1510 c 2,14,-1
 998 1510 l 1,15,-1
 998 510 l 2,16,17
 998 -20 998 -20 374 -20 c 0,0,1
EndSplineSet
Validated: 19457
EndChar

StartChar: K
Encoding: 75 75 45
Width: 1336
GlyphClass: 2
Flags: W
HStem: 0 21G<150 470 888 1276> 665 188<470 762.845> 1490 20G<60 439.5 840 1170>
VStem: 150 320<0 665 853 1431.55> 840 330<1014.17 1510> 857 330<83.9692 558.688>
LayerCount: 2
Fore
SplineSet
150 0 m 1,0,-1
 150 1193 l 2,1,2
 150 1389 150 1389 60 1510 c 1,3,-1
 409 1510 l 1,4,5
 470 1379 470 1379 470 1194 c 2,6,-1
 470 853 l 1,7,-1
 652 853 l 2,8,9
 840 853 840 853 840 1179 c 2,10,-1
 840 1510 l 1,11,-1
 1170 1510 l 1,12,-1
 1170 1284 l 2,13,14
 1170 922 1170 922 935 780 c 1,15,16
 1187 640 1187 640 1187 331 c 2,17,-1
 1187 318 l 2,18,19
 1187 134 1187 134 1276 0 c 1,20,-1
 919 0 l 1,21,22
 857 132 857 132 857 315 c 2,23,-1
 857 329 l 2,24,25
 857 665 857 665 652 665 c 2,26,-1
 470 665 l 1,27,-1
 470 0 l 1,28,-1
 150 0 l 1,0,-1
EndSplineSet
Validated: 19457
EndChar

StartChar: L
Encoding: 76 76 46
Width: 1111
GlyphClass: 2
Flags: W
HStem: 0 187<470 971.325> 1490 20G<60 438>
VStem: 150 320<187 1423.61>
LayerCount: 2
Fore
SplineSet
150 0 m 1,0,-1
 150 1193 l 2,1,2
 150 1374 150 1374 60 1510 c 1,3,-1
 406 1510 l 1,4,5
 470 1370 470 1370 470 1193 c 2,6,-1
 470 187 l 1,7,-1
 741 187 l 2,8,9
 937 187 937 187 1101 302 c 1,10,-1
 1101 66 l 1,11,12
 944 0 944 0 741 0 c 2,13,-1
 150 0 l 1,0,-1
EndSplineSet
Validated: 19457
EndChar

StartChar: O
Encoding: 79 79 47
Width: 1408
GlyphClass: 2
Flags: W
HStem: -20 184<525.997 840.211> 1346 184<567.789 882.003>
VStem: 110 330<244.062 1184.06> 968 330<325.938 1265.94>
LayerCount: 2
Fore
SplineSet
697 164 m 0,0,1
 968 164 968 164 968 597 c 2,2,-1
 968 1126 l 2,3,4
 968 1346 968 1346 711 1346 c 0,5,6
 440 1346 440 1346 440 913 c 2,7,-1
 440 384 l 2,8,9
 440 164 440 164 697 164 c 0,0,1
605 -20 m 0,10,11
 110 -20 110 -20 110 380 c 2,12,-1
 110 915 l 2,13,14
 110 1530 110 1530 803 1530 c 0,15,16
 1298 1530 1298 1530 1298 1130 c 2,17,-1
 1298 595 l 2,18,19
 1298 -20 1298 -20 605 -20 c 0,10,11
EndSplineSet
Validated: 19457
EndChar

StartChar: P
Encoding: 80 80 48
Width: 1294
GlyphClass: 2
Flags: W
HStem: 0 21G<150 470> 481 188<470 759.719> 1323 187<456 811.821>
VStem: 150 320<0 481 669 1320.88> 894 330<829.188 1244.62>
LayerCount: 2
Fore
SplineSet
150 0 m 1,0,-1
 150 1193 l 2,1,2
 150 1364 150 1364 60 1510 c 1,3,-1
 739 1510 l 2,4,5
 1224 1510 1224 1510 1224 1108 c 2,6,-1
 1224 1100 l 2,7,8
 1224 481 1224 481 547 481 c 2,9,-1
 470 481 l 1,10,-1
 470 0 l 1,11,-1
 150 0 l 1,0,-1
470 669 m 1,12,-1
 624 669 l 2,13,14
 894 669 894 669 894 1099 c 2,15,-1
 894 1106 l 2,16,17
 894 1323 894 1323 636 1323 c 2,18,-1
 456 1323 l 1,19,20
 470 1255 470 1255 470 1189 c 2,21,-1
 470 669 l 1,12,-1
EndSplineSet
Validated: 19457
EndChar

StartChar: Q
Encoding: 81 81 49
Width: 1418
GlyphClass: 2
Flags: W
HStem: -20 184<525.997 836.571> 0 21G<1009.3 1378> 1346 184<567.789 882.003>
VStem: 110 330<244.062 1184.06> 968 330<451.445 1265.94>
LayerCount: 2
Fore
SplineSet
500 568 m 1,0,-1
 846 568 l 1,1,-1
 958 448 l 1,2,3
 968 515 968 515 968 597 c 2,4,-1
 968 1126 l 2,5,6
 968 1346 968 1346 711 1346 c 0,7,8
 440 1346 440 1346 440 913 c 2,9,-1
 440 384 l 2,10,11
 440 164 440 164 697 164 c 0,12,13
 780 164 780 164 838 205 c 1,14,-1
 500 568 l 1,0,-1
1378 0 m 1,15,-1
 1028 0 l 1,16,-1
 985 46 l 1,17,18
 832 -20 832 -20 605 -20 c 0,19,20
 110 -20 110 -20 110 380 c 2,21,-1
 110 915 l 2,22,23
 110 1530 110 1530 803 1530 c 0,24,25
 1298 1530 1298 1530 1298 1130 c 2,26,-1
 1298 595 l 2,27,28
 1298 350 1298 350 1188 203 c 1,29,-1
 1378 0 l 1,15,-1
EndSplineSet
Validated: 19457
EndChar

StartChar: R
Encoding: 82 82 50
Width: 1377
GlyphClass: 2
Flags: W
HStem: 0 21G<150 470 880.5 1267> 481 188<470 766.383> 1323 187<456 811.821>
VStem: 150 320<0 481 669 1320.87> 850 330<86.3628 440.75> 894 330<854.186 1245.94>
LayerCount: 2
Fore
SplineSet
470 669 m 1,0,-1
 624 669 l 2,1,2
 894 669 894 669 894 1099 c 2,3,-1
 894 1106 l 2,4,5
 894 1323 894 1323 636 1323 c 2,6,-1
 456 1323 l 1,7,8
 470 1259 470 1259 470 1189 c 2,9,-1
 470 669 l 1,0,-1
150 0 m 1,10,-1
 150 1193 l 2,11,12
 150 1360 150 1360 60 1510 c 1,13,-1
 739 1510 l 2,14,15
 1224 1510 1224 1510 1224 1110 c 2,16,-1
 1224 1102 l 2,17,18
 1224 748 1224 748 956 601 c 1,19,20
 1180 525 1180 525 1180 324 c 2,21,-1
 1180 316 l 2,22,23
 1180 149 1180 149 1267 0 c 1,24,-1
 911 0 l 1,25,26
 850 141 850 141 850 312 c 2,27,-1
 850 320 l 2,28,29
 850 481 850 481 680 481 c 2,30,-1
 470 481 l 1,31,-1
 470 0 l 1,32,-1
 150 0 l 1,10,-1
EndSplineSet
Validated: 19457
EndChar

StartChar: S
Encoding: 83 83 51
Width: 1328
GlyphClass: 2
Flags: W
HStem: -20 184<498.998 796.767> 711 212<516.927 828.857> 1346 184<518.876 790.375>
VStem: 110 330<993.151 1257.75> 908 330<302.875 642.016>
LayerCount: 2
Fore
SplineSet
545 -20 m 0,0,1
 70 -20 70 -20 70 399 c 1,2,-1
 400 480 l 1,3,4
 400 164 400 164 647 164 c 0,5,6
 908 164 908 164 908 513 c 2,7,-1
 908 515 l 2,8,9
 908 711 908 711 661 711 c 0,10,11
 110 711 110 711 110 1043 c 2,12,-1
 110 1046 l 2,13,14
 110 1530 110 1530 763 1530 c 0,15,16
 1197 1530 1197 1530 1198 1112 c 1,17,-1
 868 1031 l 1,18,19
 868 1346 868 1346 671 1346 c 0,20,21
 440 1346 440 1346 440 1115 c 2,22,-1
 440 1112 l 2,23,24
 440 923 440 923 684 923 c 0,25,26
 1238 923 1238 923 1238 556 c 2,27,-1
 1238 554 l 2,28,29
 1238 -20 1238 -20 545 -20 c 0,0,1
EndSplineSet
Validated: 19457
EndChar

StartChar: T
Encoding: 84 84 52
Width: 1160
GlyphClass: 2
Flags: W
HStem: 0 21G<420 740> 1323 187<147.344 420 740 1150>
VStem: 420 320<0 1323>
LayerCount: 2
Fore
SplineSet
420 0 m 1,0,-1
 420 1323 l 1,1,-1
 370 1323 l 2,2,3
 195 1323 195 1323 10 1209 c 1,4,-1
 10 1439 l 1,5,6
 181 1510 181 1510 370 1510 c 2,7,-1
 1150 1510 l 1,8,-1
 1150 1323 l 1,9,-1
 740 1323 l 1,10,-1
 740 0 l 1,11,-1
 420 0 l 1,0,-1
EndSplineSet
Validated: 1
EndChar

StartChar: U
Encoding: 85 85 53
Width: 1426
GlyphClass: 2
Flags: W
HStem: -20 183<547.606 838.776> 1490 20G<60 438.5 956 1276>
VStem: 150 320<243.402 1420.9> 956 320<325.938 1510>
LayerCount: 2
Fore
SplineSet
635 -20 m 0,0,1
 150 -20 150 -20 150 379 c 2,2,-1
 150 1192 l 2,3,4
 150 1365 150 1365 60 1510 c 1,5,-1
 407 1510 l 1,6,7
 470 1374 470 1374 470 1196 c 2,8,-1
 470 383 l 2,9,10
 470 163 470 163 713 163 c 152,-1,11
 956 163 956 163 956 595 c 2,12,-1
 956 1510 l 1,13,-1
 1276 1510 l 1,14,-1
 1276 595 l 2,15,16
 1276 -20 1276 -20 635 -20 c 0,0,1
EndSplineSet
Validated: 19457
EndChar

StartChar: V
Encoding: 86 86 54
Width: 1378
GlyphClass: 2
Flags: W
HStem: 0 21G<324 1037.5> 1490 20G<10 398 958 1288>
VStem: 100 330<777.863 1425.76> 958 330<956.096 1510>
LayerCount: 2
Fore
SplineSet
548 0 m 1,0,1
 100 498 100 498 100 1193 c 0,2,3
 100 1379 100 1379 10 1510 c 1,4,-1
 366 1510 l 1,5,6
 430 1386 430 1386 430 1193 c 0,7,8
 430 594 430 594 669 214 c 1,9,10
 958 662 958 662 958 1510 c 1,11,-1
 1288 1510 l 1,12,13
 1288 502 1288 502 787 0 c 1,14,-1
 548 0 l 1,0,1
EndSplineSet
Validated: 19457
EndChar

StartChar: X
Encoding: 88 88 55
Width: 1318
GlyphClass: 2
Flags: W
HStem: 0 21G<90 420 880 1268> 1490 20G<50 438 898 1228>
VStem: 90 330<0 293.418> 140 330<1040.77 1421.11> 849 329<85.551 493.855> 898 330<1230.11 1510>
LayerCount: 2
Fore
SplineSet
90 0 m 1,0,1
 90 509 90 509 455 765 c 1,2,3
 140 936 140 936 140 1193 c 0,4,5
 140 1364 140 1364 50 1510 c 1,6,-1
 406 1510 l 1,7,8
 470 1377 470 1377 470 1193 c 0,9,10
 470 1030 470 1030 649 903 c 1,11,12
 898 1148 898 1148 898 1510 c 1,13,-1
 1228 1510 l 1,14,15
 1228 1052 1228 1052 857 786 c 1,16,17
 1178 622 1178 622 1178 317 c 0,18,19
 1178 138 1178 138 1268 0 c 1,20,-1
 911 0 l 1,21,22
 849 108 849 108 849 310 c 0,23,24
 849 520 849 520 670 642 c 1,25,26
 420 390 420 390 420 0 c 1,27,-1
 90 0 l 1,0,1
EndSplineSet
Validated: 19457
EndChar

StartChar: Y
Encoding: 89 89 56
Width: 1355
GlyphClass: 2
Flags: W
HStem: 0 690<511.375 809.672> 1490 20G<30 408.5 925 1245>
VStem: 119 320<761.859 1427.48> 507 320<0 513.285> 925 320<838.84 1510>
LayerCount: 2
Fore
SplineSet
507 0 m 1,0,-1
 507 511 l 1,1,2
 119 547 119 547 119 898 c 2,3,-1
 119 1199 l 2,4,5
 119 1378 119 1378 30 1510 c 1,6,-1
 378 1510 l 1,7,8
 439 1368 439 1368 439 1202 c 2,9,-1
 439 905 l 2,10,11
 439 690 439 690 681 690 c 0,12,13
 925 690 925 690 925 1114 c 2,14,-1
 925 1510 l 1,15,-1
 1245 1510 l 1,16,-1
 1245 1113 l 2,17,18
 1245 612 1245 612 827 510 c 1,19,-1
 827 0 l 1,20,-1
 507 0 l 1,0,-1
EndSplineSet
Validated: 19457
EndChar

StartChar: Z
Encoding: 90 90 57
Width: 1217
GlyphClass: 2
Flags: W
HStem: 0 187<397 1065.71> 1323 187<253.969 799>
DStem2: 30 187 397 187 0.560574 0.828104<205.731 1371.81>
LayerCount: 2
Fore
SplineSet
30 0 m 1,0,-1
 30 187 l 1,1,-1
 799 1323 l 1,2,-1
 486 1323 l 2,3,4
 291 1323 291 1323 126 1213 c 1,5,-1
 126 1445 l 1,6,7
 291 1510 291 1510 489 1510 c 2,8,-1
 1166 1510 l 1,9,-1
 1166 1323 l 1,10,-1
 397 187 l 1,11,-1
 829 187 l 2,12,13
 1024 187 1024 187 1187 294 c 1,14,-1
 1187 66 l 1,15,16
 1028 0 1028 0 827 0 c 2,17,-1
 30 0 l 1,0,-1
EndSplineSet
Validated: 19457
EndChar

StartChar: bracketleft
Encoding: 91 91 58
Width: 883
GlyphClass: 2
Flags: W
HStem: -320 211<470 873> 1637 211<470 873>
VStem: 150 320<-109 1637>
LayerCount: 2
Fore
SplineSet
150 -320 m 1,0,-1
 150 1848 l 1,1,-1
 873 1848 l 1,2,-1
 873 1637 l 1,3,-1
 470 1637 l 1,4,-1
 470 -109 l 1,5,-1
 873 -109 l 1,6,-1
 873 -320 l 1,7,-1
 150 -320 l 1,0,-1
EndSplineSet
Validated: 19457
EndChar

StartChar: backslash
Encoding: 92 92 59
Width: 1149
GlyphClass: 2
Flags: W
DStem2: 257 1762 10 1646 0.420538 -0.907275<1.37115 2096.55>
LayerCount: 2
Fore
SplineSet
257 1762 m 1,0,-1
 1139 -140 l 1,1,-1
 893 -259 l 1,2,-1
 10 1646 l 1,3,-1
 257 1762 l 1,0,-1
EndSplineSet
Validated: 1
EndChar

StartChar: bracketright
Encoding: 93 93 60
Width: 883
GlyphClass: 2
Flags: W
HStem: -320 211<10 413> 1637 211<10 413>
VStem: 413 320<-109 1637>
LayerCount: 2
Fore
SplineSet
733 -320 m 1,0,-1
 10 -320 l 1,1,-1
 10 -109 l 1,2,-1
 413 -109 l 1,3,-1
 413 1637 l 1,4,-1
 10 1637 l 1,5,-1
 10 1848 l 1,6,-1
 733 1848 l 1,7,-1
 733 -320 l 1,0,-1
EndSplineSet
Validated: 19457
EndChar

StartChar: asciicircum
Encoding: 94 94 61
Width: 1255
GlyphClass: 2
Flags: W
HStem: 928 583
VStem: 50 334<928 1262>
DStem2: 50 928 384 928 0.605014 0.796215<202.075 561.08>
LayerCount: 2
Fore
SplineSet
50 928 m 1,0,-1
 493 1511 l 1,1,-1
 763 1511 l 1,2,-1
 1205 928 l 1,3,-1
 813 928 l 1,4,-1
 601 1214 l 1,5,-1
 384 928 l 1,6,-1
 50 928 l 1,0,-1
EndSplineSet
Validated: 19457
EndChar

StartChar: underscore
Encoding: 95 95 62
Width: 1203
GlyphClass: 2
Flags: W
HStem: -410 250<100 1103>
LayerCount: 2
Fore
SplineSet
1103 -410 m 1,0,-1
 100 -410 l 1,1,-1
 100 -160 l 1,2,-1
 1103 -160 l 1,3,-1
 1103 -410 l 1,0,-1
EndSplineSet
Validated: 19457
EndChar

StartChar: grave
Encoding: 96 96 63
Width: 458
GlyphClass: 2
Flags: W
HStem: 1135 409
VStem: 20 418
LayerCount: 2
Fore
SplineSet
194 1544 m 1,0,-1
 438 1253 l 1,1,-1
 316 1135 l 1,2,-1
 20 1374 l 1,3,-1
 194 1544 l 1,0,-1
EndSplineSet
Validated: 19457
EndChar

StartChar: a
Encoding: 97 97 64
Width: 1153
GlyphClass: 2
Flags: W
HStem: -20 190<354.717 544.822> 0 21G<746 1083> 545 151<477.586 687> 956 164<492.937 671.811>
VStem: 30 310<184.815 432.75> 708 295<696 924.417> 728 275<70.0713 215>
LayerCount: 2
Fore
SplineSet
1083 0 m 1,0,-1
 764 0 l 1,1,2
 728 99 728 99 728 215 c 1,3,4
 616 -20 616 -20 393 -20 c 0,5,6
 30 -20 30 -20 30 221 c 2,7,-1
 30 228 l 2,8,9
 30 696 30 696 708 696 c 1,10,-1
 708 744 l 2,11,12
 708 956 708 956 603 956 c 0,13,14
 481 956 481 956 395 768 c 1,15,-1
 138 870 l 1,16,17
 298 1120 298 1120 645 1120 c 0,18,19
 1003 1120 1003 1120 1003 812 c 2,20,-1
 1003 308 l 2,21,22
 1003 134 1003 134 1083 0 c 1,0,-1
687 545 m 1,23,24
 340 545 340 545 340 277 c 2,25,-1
 340 263 l 2,26,27
 340 170 340 170 439 170 c 24,28,29
 609 170 609 170 687 545 c 1,23,24
EndSplineSet
Validated: 19457
EndChar

StartChar: b
Encoding: 98 98 65
Width: 1223
GlyphClass: 2
Flags: W
HStem: -20 176<487.327 726.375> 928 192<611.021 784.072> 1490 20G<70 416.5>
VStem: 150 295<201.405 631.915 935 1440.46> 813 310<256.488 900.73>
LayerCount: 2
Fore
SplineSet
708 928 m 0,0,1
 597 928 597 928 526 742 c 0,2,3
 445 530 445 530 445 354 c 2,4,-1
 445 345 l 2,5,6
 445 156 445 156 601 156 c 0,7,8
 813 156 813 156 813 492 c 2,9,-1
 813 754 l 2,10,11
 813 928 813 928 708 928 c 0,0,1
499 -20 m 0,12,13
 150 -20 150 -20 150 291 c 2,14,-1
 150 1198 l 2,15,16
 150 1383 150 1383 70 1510 c 1,17,-1
 388 1510 l 1,18,19
 445 1401 445 1401 445 1188 c 2,20,-1
 445 935 l 1,21,22
 540 1120 540 1120 759 1120 c 0,23,24
 1123 1120 1123 1120 1123 812 c 2,25,-1
 1123 491 l 2,26,27
 1123 -20 1123 -20 499 -20 c 0,12,13
EndSplineSet
Validated: 19457
EndChar

StartChar: c
Encoding: 99 99 66
Width: 1163
GlyphClass: 2
Flags: W
HStem: -20 164<454.081 687.957> 956 164<495.907 722.498>
VStem: 100 310<189.351 844.414> 776 314<262.547 374 802.12 903.976>
LayerCount: 2
Fore
SplineSet
490 -20 m 0,0,1
 100 -20 100 -20 100 323 c 2,2,-1
 100 609 l 2,3,4
 100 1120 100 1120 708 1120 c 0,5,6
 1062 1120 1062 1120 1093 805 c 1,7,-1
 783 727 l 1,8,9
 781 956 781 956 606 956 c 0,10,11
 410 956 410 956 410 608 c 2,12,-1
 410 327 l 2,13,14
 410 144 410 144 575 144 c 0,15,16
 727 144 727 144 776 374 c 1,17,-1
 1090 408 l 1,18,19
 1024 -20 1024 -20 490 -20 c 0,0,1
EndSplineSet
Validated: 19457
EndChar

StartChar: d
Encoding: 100 100 67
Width: 1223
GlyphClass: 2
Flags: W
HStem: -20 192<438.928 613.854> 0 21G<807 1153> 944 176<498.331 736.335> 1490 20G<698 1044>
VStem: 100 310<196.422 843.512> 778 295<69.126 165 468.085 902.472 1091 1446.19>
LayerCount: 2
Fore
SplineSet
515 172 m 0,0,1
 626 172 626 172 697 358 c 0,2,3
 778 570 778 570 778 746 c 2,4,-1
 778 755 l 2,5,6
 778 944 778 944 622 944 c 0,7,8
 410 944 410 944 410 608 c 2,9,-1
 410 346 l 2,10,11
 410 172 410 172 515 172 c 0,0,1
1153 0 m 1,12,-1
 836 0 l 1,13,14
 778 110 778 110 778 165 c 1,15,16
 691 -20 691 -20 464 -20 c 0,17,18
 100 -20 100 -20 100 284 c 2,19,-1
 100 609 l 2,20,21
 100 1120 100 1120 622 1120 c 0,22,23
 705 1120 705 1120 778 1091 c 1,24,-1
 778 1190 l 2,25,26
 778 1402 778 1402 698 1510 c 1,27,-1
 1015 1510 l 1,28,29
 1073 1367 1073 1367 1073 1198 c 2,30,-1
 1073 312 l 2,31,32
 1073 128 1073 128 1153 0 c 1,12,-1
EndSplineSet
Validated: 19457
EndChar

StartChar: e
Encoding: 101 101 68
Width: 1193
GlyphClass: 2
Flags: W
HStem: -20 164<452.772 689.038> 956 164<495.907 735.218>
VStem: 100 310<189.351 371 596 844.414> 783 310<273.519 374 763 906.377>
DStem2: 410 596 410 371 0.912595 0.408864<0 408.678>
LayerCount: 2
Fore
SplineSet
490 -20 m 0,0,1
 100 -20 100 -20 100 323 c 2,2,-1
 100 609 l 2,3,4
 100 1120 100 1120 708 1120 c 0,5,6
 1093 1120 1093 1120 1093 770 c 2,7,-1
 1093 677 l 1,8,-1
 410 371 l 1,9,-1
 410 321 l 2,10,11
 410 144 410 144 575 144 c 0,12,13
 736 144 736 144 776 374 c 1,14,-1
 1090 408 l 1,15,16
 1017 -20 1017 -20 490 -20 c 0,0,1
606 956 m 0,17,18
 410 956 410 956 410 614 c 2,19,-1
 410 596 l 1,20,-1
 783 763 l 1,21,-1
 783 776 l 2,22,23
 783 956 783 956 606 956 c 0,17,18
EndSplineSet
Validated: 19457
EndChar

StartChar: f
Encoding: 102 102 69
Width: 885
GlyphClass: 2
Flags: W
HStem: 0 21G<150 450> 680 169<450 750> 1354 176<526.661 821.025>
VStem: 150 300<0 680 849 1263.43>
LayerCount: 2
Fore
SplineSet
150 0 m 1,0,-1
 150 680 l 1,1,2
 100 680 100 680 43 613 c 1,3,-1
 43 802 l 1,4,5
 87 838 87 838 150 849 c 1,6,-1
 150 1014 l 2,7,8
 150 1530 150 1530 683 1530 c 0,9,10
 798 1530 798 1530 875 1522 c 1,11,12
 824 1289 l 1,13,14
 741 1354 741 1354 630 1354 c 0,15,16
 450 1354 450 1354 450 1013 c 2,17,-1
 450 849 l 1,18,-1
 750 849 l 1,19,-1
 750 680 l 1,20,-1
 450 680 l 1,21,-1
 450 0 l 1,22,-1
 150 0 l 1,0,-1
EndSplineSet
Validated: 19457
EndChar

StartChar: g
Encoding: 103 103 70
Width: 1198
GlyphClass: 2
Flags: W
HStem: -430 167<379.39 655.308> -20 192<438.928 612.917> 944 176<496.625 735.75>
VStem: 100 310<199.27 843.512> 778 300<19.5469 165 468.085 897.171>
LayerCount: 2
Fore
SplineSet
515 172 m 0,0,1
 626 172 626 172 697 358 c 0,2,3
 778 570 778 570 778 746 c 2,4,-1
 778 755 l 2,5,6
 778 944 778 944 622 944 c 0,7,8
 410 944 410 944 410 608 c 2,9,-1
 410 346 l 2,10,11
 410 172 410 172 515 172 c 0,0,1
464 -20 m 0,12,13
 100 -20 100 -20 100 288 c 2,14,-1
 100 609 l 2,15,16
 100 1120 100 1120 724 1120 c 0,17,18
 1078 1120 1078 1120 1078 807 c 2,19,-1
 1078 397 l 2,20,21
 1078 -430 1078 -430 464 -430 c 0,22,23
 193 -430 193 -430 120 -249 c 1,24,-1
 413 -168 l 1,25,26
 433 -263 433 -263 515 -263 c 0,27,28
 778 -263 778 -263 778 165 c 1,29,30
 687 -20 687 -20 464 -20 c 0,12,13
EndSplineSet
Validated: 19457
EndChar

StartChar: h
Encoding: 104 104 71
Width: 1263
GlyphClass: 2
Flags: W
HStem: 0 21G<150 445 842 1193> 930 190<605.349 783.765> 1490 20G<70 416.5>
VStem: 150 295<0 634.925 935 1438.88> 813 300<70.875 907.011>
LayerCount: 2
Fore
SplineSet
150 0 m 1,0,-1
 150 1198 l 2,1,2
 150 1379 150 1379 70 1510 c 1,3,-1
 388 1510 l 1,4,5
 445 1374 445 1374 445 1188 c 2,6,-1
 445 935 l 1,7,8
 513 1120 513 1120 759 1120 c 0,9,10
 1113 1119 1113 1119 1113 812 c 2,11,-1
 1113 308 l 2,12,13
 1113 132 1113 132 1193 0 c 1,14,-1
 871 0 l 1,15,16
 813 138 813 138 813 306 c 2,17,-1
 813 752 l 2,18,19
 813 930 813 930 708 930 c 0,20,21
 445 930 445 930 445 93 c 2,22,-1
 445 0 l 1,23,-1
 150 0 l 1,0,-1
EndSplineSet
Validated: 19457
EndChar

StartChar: i
Encoding: 105 105 72
Width: 600
GlyphClass: 2
Flags: W
HStem: 0 21G<179 530> 1080 20G<70 421.5> 1176 354<138.75 401.25>
VStem: 95 350<1220.25 1485.75> 150 300<73.5 1027.62>
LayerCount: 2
Fore
SplineSet
208 0 m 1,0,1
 150 144 150 144 150 312 c 2,2,-1
 150 788 l 2,3,4
 150 968 150 968 70 1100 c 1,5,-1
 393 1100 l 1,6,7
 450 959 450 959 450 788 c 2,8,-1
 450 312 l 2,9,10
 450 138 450 138 530 0 c 1,11,-1
 208 0 l 1,0,1
270 1530 m 128,-1,13
 445 1530 445 1530 445 1353 c 128,-1,14
 445 1176 445 1176 270 1176 c 152,-1,15
 95 1176 95 1176 95 1353 c 128,-1,12
 95 1530 95 1530 270 1530 c 128,-1,13
EndSplineSet
Validated: 19457
EndChar

StartChar: j
Encoding: 106 106 73
Width: 650
GlyphClass: 2
Flags: W
HStem: -430 21G<0 250> 1080 20G<120 471.5> 1176 354<188.75 451.25>
VStem: 145 350<1220.25 1485.75> 200 300<-13.3242 1030.46>
LayerCount: 2
Fore
SplineSet
0 -430 m 1,0,-1
 0 -261 l 1,1,2
 200 -130 200 -130 200 318 c 2,3,-1
 200 788 l 2,4,5
 200 968 200 968 120 1100 c 1,6,-1
 443 1100 l 1,7,8
 500 954 500 954 500 788 c 2,9,-1
 500 319 l 2,10,11
 500 -321 500 -321 0 -430 c 1,0,-1
320 1530 m 128,-1,13
 495 1530 495 1530 495 1353 c 128,-1,14
 495 1176 495 1176 320 1176 c 152,-1,15
 145 1176 145 1176 145 1353 c 128,-1,12
 145 1530 145 1530 320 1530 c 128,-1,13
EndSplineSet
Validated: 1
EndChar

StartChar: k
Encoding: 107 107 74
Width: 1223
GlyphClass: 2
Flags: W
HStem: 0 21G<150 445.695 760 1121> 928 192<728.631 989.5> 1490 20G<70 417>
VStem: 150 295<603 1441.68> 731 310<74.1509 432.095>
LayerCount: 2
Fore
SplineSet
150 0 m 1,0,-1
 150 1198 l 2,1,2
 150 1386 150 1386 70 1510 c 1,3,-1
 389 1510 l 1,4,5
 445 1368 445 1368 445 1194 c 2,6,-1
 445 603 l 1,7,8
 487 783 487 783 565 946 c 0,9,10
 650 1120 650 1120 856 1120 c 0,11,12
 1123 1120 1123 1120 1123 804 c 1,13,-1
 813 723 l 1,14,15
 813 928 813 928 768 928 c 0,16,17
 724 928 724 928 647 635 c 1,18,19
 1041 611 1041 611 1041 316 c 2,20,-1
 1041 308 l 2,21,22
 1041 138 1041 138 1121 0 c 1,23,-1
 789 0 l 1,24,25
 731 134 731 134 731 310 c 2,26,-1
 731 317 l 2,27,28
 731 456 731 456 598 475 c 1,29,-1
 439 0 l 1,30,-1
 150 0 l 1,0,-1
EndSplineSet
Validated: 19457
EndChar

StartChar: l
Encoding: 108 108 75
Width: 600
GlyphClass: 2
Flags: W
HStem: 0 21G<179 530> 1490 20G<70 421.5>
VStem: 150 300<73.5 1437.62>
LayerCount: 2
Fore
SplineSet
208 0 m 1,0,1
 150 144 150 144 150 312 c 2,2,-1
 150 1198 l 2,3,4
 150 1378 150 1378 70 1510 c 1,5,-1
 393 1510 l 1,6,7
 450 1369 450 1369 450 1198 c 2,8,-1
 450 312 l 2,9,10
 450 138 450 138 530 0 c 1,11,-1
 208 0 l 1,0,1
EndSplineSet
Validated: 19457
EndChar

StartChar: m
Encoding: 109 109 76
Width: 1926
GlyphClass: 2
Flags: W
HStem: 0 21G<150 445 813 1108 1505 1856> 930 190<604.552 782.369 1266.72 1446.76> 1080 20G<70 406.5>
VStem: 150 295<0 634.925> 150 275<885 1029.93> 813 295<0 634.925> 1476 300<70.875 907.011>
LayerCount: 2
Fore
SplineSet
150 0 m 1,0,-1
 150 792 l 2,1,2
 150 968 150 968 70 1100 c 1,3,-1
 388 1100 l 1,4,5
 425 1001 425 1001 425 885 c 1,6,7
 502 1120 502 1120 759 1120 c 0,8,9
 1067 1120 1067 1120 1107 886 c 1,10,11
 1193 1120 1193 1120 1422 1120 c 0,12,13
 1776 1120 1776 1120 1776 812 c 2,14,-1
 1776 308 l 2,15,16
 1776 132 1776 132 1856 0 c 1,17,-1
 1534 0 l 1,18,19
 1476 138 1476 138 1476 306 c 2,20,-1
 1476 752 l 2,21,22
 1476 930 1476 930 1371 930 c 0,23,24
 1108 930 1108 930 1108 93 c 2,25,-1
 1108 0 l 1,26,-1
 813 0 l 1,27,-1
 813 752 l 2,28,29
 813 930 813 930 708 930 c 0,30,31
 445 930 445 930 445 93 c 2,32,-1
 445 0 l 1,33,-1
 150 0 l 1,0,-1
EndSplineSet
Validated: 19457
EndChar

StartChar: n
Encoding: 110 110 77
Width: 1263
GlyphClass: 2
Flags: W
HStem: 0 21G<150 445 842 1193> 930 190<604.552 783.765> 1080 20G<70 406.5>
VStem: 150 295<0 634.925> 150 275<885 1029.93> 813 300<70.875 907.011>
LayerCount: 2
Fore
SplineSet
150 0 m 1,0,-1
 150 792 l 2,1,2
 150 968 150 968 70 1100 c 1,3,-1
 388 1100 l 1,4,5
 425 1001 425 1001 425 885 c 1,6,7
 502 1120 502 1120 759 1120 c 0,8,9
 1113 1120 1113 1120 1113 812 c 2,10,-1
 1113 308 l 2,11,12
 1113 132 1113 132 1193 0 c 1,13,-1
 871 0 l 1,14,15
 813 138 813 138 813 306 c 2,16,-1
 813 752 l 2,17,18
 813 930 813 930 708 930 c 0,19,20
 445 930 445 930 445 93 c 2,21,-1
 445 0 l 1,22,-1
 150 0 l 1,0,-1
EndSplineSet
Validated: 19457
EndChar

StartChar: o
Encoding: 111 111 78
Width: 1208
GlyphClass: 2
Flags: W
HStem: -20 164<459.277 709.417> 956 164<498.583 748.723>
VStem: 100 310<197.808 844.414> 798 310<255.586 902.192>
LayerCount: 2
Fore
SplineSet
597 144 m 0,0,1
 798 144 798 144 798 492 c 2,2,-1
 798 773 l 2,3,4
 798 956 798 956 611 956 c 0,5,6
 410 956 410 956 410 608 c 2,7,-1
 410 327 l 2,8,9
 410 144 410 144 597 144 c 0,0,1
495 -20 m 0,10,11
 100 -20 100 -20 100 323 c 2,12,-1
 100 609 l 2,13,14
 100 1120 100 1120 713 1120 c 0,15,16
 1108 1120 1108 1120 1108 777 c 2,17,-1
 1108 491 l 2,18,19
 1108 -20 1108 -20 495 -20 c 0,10,11
EndSplineSet
Validated: 19457
EndChar

StartChar: p
Encoding: 112 112 79
Width: 1223
GlyphClass: 2
Flags: W
HStem: -410 21G<150 445> -20 176<486.665 724.669> 928 192<609.146 784.072> 1080 20G<70 416>
VStem: 150 295<-410 9 197.528 631.915 935 1030.87> 813 310<256.488 903.578>
LayerCount: 2
Fore
SplineSet
708 928 m 0,0,1
 597 928 597 928 526 742 c 0,2,3
 445 530 445 530 445 354 c 2,4,-1
 445 345 l 2,5,6
 445 156 445 156 601 156 c 0,7,8
 813 156 813 156 813 492 c 2,9,-1
 813 754 l 2,10,11
 813 928 813 928 708 928 c 0,0,1
601 -20 m 0,12,13
 518 -20 518 -20 445 9 c 1,14,-1
 445 -410 l 17,15,-1
 150 -410 l 1,16,-1
 150 788 l 2,17,18
 150 972 150 972 70 1100 c 1,19,-1
 387 1100 l 1,20,21
 445 990 445 990 445 935 c 1,22,23
 532 1120 532 1120 759 1120 c 0,24,25
 1123 1120 1123 1120 1123 816 c 2,26,-1
 1123 491 l 2,27,28
 1123 -20 1123 -20 601 -20 c 0,12,13
EndSplineSet
Validated: 19457
EndChar

StartChar: q
Encoding: 113 113 80
Width: 1223
GlyphClass: 2
Flags: W
HStem: -410 21G<806.5 1153> -20 192<438.928 613.708> 944 176<496.625 735.673>
VStem: 100 310<199.27 843.512> 778 295<-340.461 165 468.085 898.595>
LayerCount: 2
Fore
SplineSet
515 172 m 0,0,1
 626 172 626 172 697 358 c 0,2,3
 778 570 778 570 778 746 c 2,4,-1
 778 755 l 2,5,6
 778 944 778 944 622 944 c 0,7,8
 410 944 410 944 410 608 c 2,9,-1
 410 346 l 2,10,11
 410 172 410 172 515 172 c 0,0,1
464 -20 m 0,12,13
 100 -20 100 -20 100 288 c 2,14,-1
 100 609 l 2,15,16
 100 1120 100 1120 724 1120 c 0,17,18
 1073 1120 1073 1120 1073 809 c 2,19,-1
 1073 -98 l 2,20,21
 1073 -283 1073 -283 1153 -410 c 1,22,-1
 835 -410 l 1,23,24
 778 -301 778 -301 778 -88 c 2,25,-1
 778 165 l 1,26,27
 679 -20 679 -20 464 -20 c 0,12,13
EndSplineSet
Validated: 19457
EndChar

StartChar: r
Encoding: 114 114 81
Width: 1133
GlyphClass: 2
Flags: W
HStem: 0 21G<150 445> 930 190<604.552 784.072> 1080 20G<70 406.5>
VStem: 150 295<0 634.925> 150 275<885 1029.93>
LayerCount: 2
Fore
SplineSet
150 0 m 1,0,-1
 150 792 l 2,1,2
 150 968 150 968 70 1100 c 1,3,-1
 388 1100 l 1,4,5
 425 1001 425 1001 425 885 c 1,6,7
 502 1120 502 1120 759 1120 c 0,8,9
 1123 1120 1123 1120 1123 812 c 2,10,-1
 1123 788 l 1,11,-1
 813 704 l 1,12,-1
 813 752 l 2,13,14
 813 930 813 930 708 930 c 0,15,16
 445 930 445 930 445 93 c 2,17,-1
 445 0 l 1,18,-1
 150 0 l 1,0,-1
EndSplineSet
Validated: 19457
EndChar

StartChar: t
Encoding: 116 116 82
Width: 920
GlyphClass: 2
Flags: W
HStem: 0 21G<339 690> 933 167<107.222 310 610 910> 1490 20G<230 581>
VStem: 310 300<71.625 930 1100 1431.24>
LayerCount: 2
Fore
SplineSet
368 0 m 1,0,1
 310 140 310 140 310 306 c 2,2,-1
 310 930 l 1,3,4
 142 930 142 930 10 834 c 1,5,-1
 10 1037 l 1,6,7
 137 1099 137 1099 310 1099 c 1,8,-1
 310 1190 l 2,9,10
 310 1360 310 1360 230 1510 c 1,11,-1
 552 1510 l 1,12,13
 610 1366 610 1366 610 1190 c 2,14,-1
 610 1100 l 1,15,-1
 910 1100 l 1,16,-1
 910 933 l 1,17,-1
 610 933 l 1,18,-1
 610 306 l 2,19,20
 610 130 610 130 690 0 c 1,21,-1
 368 0 l 1,0,1
EndSplineSet
Validated: 1
EndChar

StartChar: u
Encoding: 117 117 83
Width: 1263
GlyphClass: 2
Flags: W
HStem: -20 190<479.235 658.448> 0 21G<856.5 1193> 1080 20G<70 421 818 1113>
VStem: 150 300<192.989 1029.12> 818 295<465.075 1100> 838 275<70.0713 215>
LayerCount: 2
Fore
SplineSet
1193 0 m 1,0,-1
 875 0 l 1,1,2
 838 99 838 99 838 215 c 1,3,4
 761 -20 761 -20 504 -20 c 0,5,6
 150 -20 150 -20 150 288 c 2,7,-1
 150 792 l 2,8,9
 150 968 150 968 70 1100 c 1,10,-1
 392 1100 l 1,11,12
 450 962 450 962 450 794 c 2,13,-1
 450 348 l 2,14,15
 450 170 450 170 555 170 c 0,16,17
 818 170 818 170 818 1007 c 2,18,-1
 818 1100 l 1,19,-1
 1113 1100 l 1,20,-1
 1113 308 l 2,21,22
 1113 132 1113 132 1193 0 c 1,0,-1
EndSplineSet
Validated: 19457
EndChar

StartChar: v
Encoding: 118 118 84
Width: 1139
GlyphClass: 2
Flags: W
HStem: 0 21G<267.5 895> 1080 20G<5 367 799 1109>
VStem: 86 310<526.518 1034.18> 799 310<707.695 1100>
LayerCount: 2
Fore
SplineSet
449 0 m 1,0,1
 86 411 86 411 86 792 c 0,2,3
 86 987 86 987 5 1100 c 1,4,-1
 338 1100 l 1,5,6
 396 979 396 979 396 792 c 0,7,8
 396 492 396 492 567 204 c 1,9,10
 799 585 799 585 799 1100 c 1,11,-1
 1109 1100 l 1,12,13
 1109 437 1109 437 681 0 c 1,14,-1
 449 0 l 1,0,1
EndSplineSet
Validated: 19457
EndChar

StartChar: w
Encoding: 119 119 85
Width: 1896
GlyphClass: 2
Flags: W
HStem: -20 190<479.235 659.184> -20 147<1149.54 1339.66> 1080 20G<70 421.5 818 1118 1407 1767.5>
VStem: 150 300<192.989 1028.75> 818 300<465.075 1100> 1486 310<419.102 1028.25>
LayerCount: 2
Fore
SplineSet
504 -20 m 0,0,1
 150 -19 150 -19 150 288 c 2,2,-1
 150 792 l 2,3,4
 150 971 150 971 70 1100 c 1,5,-1
 393 1100 l 1,6,7
 450 961 450 961 450 794 c 2,8,-1
 450 348 l 2,9,10
 450 170 450 170 555 170 c 0,11,12
 818 170 818 170 818 1007 c 2,13,-1
 818 1100 l 1,14,-1
 1118 1100 l 1,15,-1
 1118 346 l 2,16,17
 1118 127 1118 127 1223 127 c 0,18,19
 1486 127 1486 127 1486 745 c 2,20,-1
 1486 793 l 2,21,22
 1486 964 1486 964 1407 1100 c 1,23,-1
 1739 1100 l 1,24,25
 1796 960 1796 960 1796 792 c 2,26,-1
 1796 782 l 2,27,28
 1796 -20 1796 -20 1172 -20 c 24,29,30
 930 -20 930 -20 853 133 c 1,31,32
 734 -20 734 -20 504 -20 c 0,0,1
EndSplineSet
Validated: 19457
EndChar

StartChar: x
Encoding: 120 120 86
Width: 1084
GlyphClass: 2
Flags: W
HStem: 0 21G<43 353 700 1062> 1080 20G<22 384 731 1041>
VStem: 43 310<0 215.424> 103 310<697.727 1021.7> 671 310<72.0703 432.688> 731 310<877.062 1100>
LayerCount: 2
Fore
SplineSet
43 0 m 1,0,1
 43 335 43 335 374 544 c 1,2,3
 103 648 103 648 103 792 c 0,4,5
 103 955 103 955 22 1100 c 1,6,-1
 355 1100 l 1,7,8
 413 961 413 961 413 791 c 0,9,10
 413 705 413 705 520 654 c 1,11,12
 731 831 731 831 731 1100 c 1,13,-1
 1041 1100 l 1,14,15
 1041 781 1041 781 734 578 c 1,16,17
 981 493 981 493 981 308 c 0,18,19
 981 128 981 128 1062 0 c 1,20,-1
 729 0 l 1,21,22
 671 118 671 118 671 308 c 0,23,24
 671 418 671 418 584 464 c 1,25,26
 353 260 353 260 353 0 c 1,27,-1
 43 0 l 1,0,1
EndSplineSet
Validated: 19457
EndChar

StartChar: y
Encoding: 121 121 87
Width: 1263
GlyphClass: 2
Flags: W
HStem: -430 167<439.39 708.523> -20 190<479.235 658.448> 1080 20G<70 421 818 1113>
VStem: 150 300<192.989 1029.12> 818 295<465.075 1100> 838 275<16.5459 215>
LayerCount: 2
Fore
SplineSet
504 -20 m 0,0,1
 150 -20 150 -20 150 288 c 2,2,-1
 150 792 l 2,3,4
 150 968 150 968 70 1100 c 1,5,-1
 392 1100 l 1,6,7
 450 962 450 962 450 794 c 2,8,-1
 450 348 l 2,9,10
 450 170 450 170 555 170 c 0,11,12
 818 170 818 170 818 1007 c 2,13,-1
 818 1100 l 1,14,-1
 1113 1100 l 1,15,-1
 1113 398 l 2,16,17
 1113 -430 1113 -430 524 -430 c 0,18,19
 253 -430 253 -430 180 -249 c 1,20,-1
 473 -168 l 1,21,22
 493 -263 493 -263 575 -263 c 0,23,24
 838 -263 838 -263 838 215 c 1,25,26
 761 -20 761 -20 504 -20 c 0,0,1
EndSplineSet
Validated: 19457
EndChar

StartChar: z
Encoding: 122 122 88
Width: 964
GlyphClass: 2
Flags: W
HStem: 0 167<366 823.613> 933 167<172.304 578>
DStem2: 30 167 366 167 0.581841 0.813303<195.498 941.839>
LayerCount: 2
Fore
SplineSet
30 0 m 1,0,-1
 30 167 l 1,1,-1
 578 933 l 1,2,-1
 421 933 l 2,3,4
 224 933 224 933 71 839 c 1,5,-1
 71 1041 l 1,6,7
 192 1100 192 1100 424 1100 c 2,8,-1
 914 1100 l 1,9,-1
 914 933 l 1,10,-1
 366 167 l 1,11,-1
 588 167 l 2,12,13
 781 167 781 167 934 268 c 1,14,-1
 934 63 l 1,15,16
 781 0 781 0 584 0 c 2,17,-1
 30 0 l 1,0,-1
EndSplineSet
Validated: 19457
EndChar

StartChar: braceleft
Encoding: 123 123 89
Width: 933
GlyphClass: 2
Flags: W
HStem: -319 168<746.403 923> 1680 168<746.403 923>
VStem: 310 315<-36.9375 606.192 922.16 1565.94>
LayerCount: 2
Fore
SplineSet
923 1848 m 1,0,1
 923 1680 l 1,2,3
 625 1680 625 1680 625 1388 c 2,4,-1
 625 1057 l 2,5,6
 625 853 625 853 431 766 c 1,7,8
 625 682 625 682 625 472 c 2,9,-1
 625 141 l 2,10,11
 625 -151 625 -151 923 -151 c 1,12,-1
 923 -319 l 1,13,14
 310 -319 310 -319 310 140 c 2,15,-1
 310 471 l 2,16,17
 310 651 310 651 50 764 c 1,18,19
 310 877 310 877 310 1058 c 2,20,-1
 310 1389 l 2,21,22
 310 1848 310 1848 923 1848 c 1,0,1
EndSplineSet
Validated: 19457
EndChar

StartChar: bar
Encoding: 124 124 90
Width: 681
GlyphClass: 2
Flags: W
VStem: 200 280<-216 1725>
LayerCount: 2
Fore
SplineSet
200 -216 m 1,0,-1
 200 1725 l 1,1,-1
 481 1725 l 1,2,-1
 480 -216 l 1,3,-1
 200 -216 l 1,0,-1
EndSplineSet
Validated: 19457
EndChar

StartChar: braceright
Encoding: 125 125 91
Width: 933
GlyphClass: 2
Flags: W
HStem: -319 168<10 186.597> 1680 168<10 186.597>
VStem: 308 315<-36.9375 606.192 922.16 1565.94>
LayerCount: 2
Fore
SplineSet
10 1848 m 1,0,1
 623 1848 623 1848 623 1389 c 2,2,-1
 623 1058 l 2,3,4
 623 877 623 877 883 764 c 1,5,6
 623 651 623 651 623 471 c 2,7,-1
 623 140 l 2,8,9
 623 -319 623 -319 10 -319 c 1,10,-1
 10 -151 l 1,11,12
 308 -151 308 -151 308 141 c 2,13,-1
 308 472 l 2,14,15
 308 682 308 682 502 766 c 1,16,17
 308 853 308 853 308 1057 c 2,18,-1
 308 1388 l 2,19,20
 308 1680 308 1680 10 1680 c 1,21,-1
 10 1848 l 1,0,1
EndSplineSet
Validated: 19457
EndChar

StartChar: asciitilde
Encoding: 126 126 92
Width: 1228
GlyphClass: 2
Flags: W
HStem: 547 209<696.371 1005> 756 207<219 515.473>
LayerCount: 2
Fore
SplineSet
338 963 m 24,0,1
 571 963 571 963 694 803 c 0,2,3
 730 756 730 756 749 756 c 0,4,5
 808 756 808 756 808 984 c 1,6,-1
 1128 894 l 1,7,8
 1128 547 1128 547 882 547 c 24,9,10
 621 547 621 547 521 704 c 0,11,12
 488 756 488 756 469 756 c 0,13,14
 420 756 420 756 420 526 c 1,15,-1
 100 616 l 1,16,17
 100 963 100 963 338 963 c 24,0,1
EndSplineSet
Validated: 19457
EndChar

StartChar: exclamdown
Encoding: 161 161 94
Width: 764
GlyphClass: 2
Flags: W
HStem: -410 21G<200 564> 743 377<245.452 518.548>
VStem: 196 372<793.116 1069.88> 264 236<397.04 630>
LayerCount: 2
Fore
SplineSet
564 -410 m 1,0,-1
 200 -410 l 1,1,-1
 264 630 l 1,2,-1
 500 630 l 1,3,-1
 564 -410 l 1,0,-1
382 1120 m 152,-1,5
 568 1120 568 1120 568 931.5 c 128,-1,6
 568 743 568 743 382 743 c 128,-1,7
 196 743 196 743 196 931.5 c 128,-1,4
 196 1120 196 1120 382 1120 c 152,-1,5
EndSplineSet
Validated: 19457
EndChar

StartChar: cent
Encoding: 162 162 95
Width: 1163
GlyphClass: 2
Flags: W
HStem: -20 165<454.294 546> 947 163<479.035 546>
VStem: 100 300<189.351 844.487> 546 130<-188 -19 173 946 1120 1282> 786 304<261.193 374 802.023 895.747>
LayerCount: 2
Fore
SplineSet
490 -20 m 0,0,1
 100 -20 100 -20 100 323 c 2,2,-1
 100 609 l 2,3,4
 100 1047 100 1047 546 1110 c 1,5,-1
 546 1282 l 1,6,-1
 676 1282 l 1,7,-1
 676 1120 l 1,8,9
 692 1120 692 1120 708 1120 c 0,10,11
 1062 1120 1062 1120 1093 805 c 1,12,-1
 793 727 l 1,13,14
 790 907 790 907 676 946 c 1,15,-1
 676 173 l 1,16,17
 754 226 754 226 786 374 c 1,18,-1
 1090 408 l 1,19,20
 1036 62 1036 62 676 -4 c 1,21,-1
 676 -188 l 1,22,-1
 546 -188 l 1,23,-1
 546 -19 l 1,24,25
 518 -20 518 -20 490 -20 c 0,0,1
546 145 m 1,26,-1
 546 947 l 1,27,28
 400 901 400 901 400 608 c 2,29,-1
 400 327 l 2,30,31
 400 159 400 159 546 145 c 1,26,-1
EndSplineSet
Validated: 19457
EndChar

StartChar: sterling
Encoding: 163 163 96
Width: 1300
GlyphClass: 2
Flags: W
HStem: 0 187<482 1083.52> 659 180<490 695.972> 1108 21G<838 915.108> 1346 184<577.419 976>
VStem: 170 320<188.879 659 839 1240.64>
LayerCount: 2
Fore
SplineSet
80 0 m 1,0,1
 170 125 170 125 170 318 c 2,2,-1
 170 659 l 1,3,4
 115 619 115 619 63 556 c 1,5,-1
 63 793 l 1,6,7
 113 826 113 826 170 839 c 1,8,-1
 170 999 l 2,9,10
 170 1530 170 1530 794 1530 c 0,11,12
 1158 1530 1158 1530 1158 1191 c 1,13,-1
 838 1108 l 1,14,15
 838 1346 838 1346 692 1346 c 0,16,17
 490 1346 490 1346 490 1013 c 2,18,-1
 490 839 l 1,19,20
 661 839 661 839 790 943 c 1,21,-1
 790 721 l 1,22,23
 650 659 650 659 490 659 c 1,24,-1
 490 323 l 2,25,26
 490 247 490 247 482 187 c 1,27,-1
 840 187 l 2,28,29
 1044 187 1044 187 1200 290 c 1,30,-1
 1200 66 l 1,31,32
 1048 0 1048 0 840 0 c 2,33,-1
 80 0 l 1,0,1
EndSplineSet
Validated: 19457
EndChar

StartChar: currency
Encoding: 164 164 97
Width: 1454
GlyphClass: 2
Flags: W
HStem: 206 185<537.936 862.393> 1082 185<592.223 916.064>
VStem: 133 320<474.266 906.435> 1001 320<569.295 999.734>
DStem2: 307 1364 100 1156 0.707444 -0.706769<0.567035 202.259 1278.28 1479.27>
LayerCount: 2
Fore
SplineSet
734 1082 m 0,0,1
 563 1082 563 1082 493 898 c 0,2,3
 453 791 453 791 453 628 c 2,4,-1
 453 622 l 2,5,6
 453 391 453 391 720 391 c 0,7,8
 893 391 893 391 960 575 c 0,9,10
 1001 688 1001 688 1001 845 c 2,11,-1
 1001 851 l 2,12,13
 1001 1082 1001 1082 734 1082 c 0,0,1
307 1364 m 1,14,-1
 468 1203 l 1,15,16
 623 1267 623 1267 836 1267 c 0,17,18
 942 1267 942 1267 1027 1246 c 1,19,-1
 1146 1364 l 1,20,-1
 1354 1156 l 1,21,-1
 1272 1073 l 1,22,23
 1321 983 1321 983 1321 852 c 2,24,-1
 1321 846 l 2,25,26
 1321 604 1321 604 1219 453 c 1,27,-1
 1354 319 l 1,28,-1
 1148 109 l 1,29,-1
 986 270 l 1,30,31
 832 206 832 206 618 206 c 0,32,33
 512 206 512 206 427 228 c 1,34,-1
 308 110 l 1,35,-1
 100 318 l 1,36,-1
 182 401 l 1,37,38
 133 491 133 491 133 622 c 2,39,-1
 133 628 l 2,40,41
 133 870 133 870 235 1021 c 1,42,-1
 100 1156 l 1,43,-1
 307 1364 l 1,14,-1
EndSplineSet
Validated: 19457
EndChar

StartChar: yen
Encoding: 165 165 98
Width: 1539
GlyphClass: 2
Flags: W
HStem: 0 21G<608 928> 452 181<199 540 1000 1355> 760 181<199 374 1165 1356> 1490 20G<61 421.002 1176.03 1478>
VStem: 608 320<0 452>
DStem2: 410 1510 61 1510 0.479343 -0.877628<0 482.114> 875 941 1165 941 0.478572 0.878049<138.786 648.924>
LayerCount: 2
Fore
SplineSet
608 0 m 1,0,-1
 608 452 l 1,1,-1
 199 452 l 1,2,-1
 199 633 l 1,3,-1
 540 633 l 1,4,-1
 470 760 l 1,5,-1
 199 760 l 1,6,-1
 199 941 l 1,7,-1
 374 941 l 1,8,-1
 61 1510 l 1,9,-1
 410 1510 l 1,10,-1
 723 941 l 1,11,-1
 875 941 l 1,12,-1
 1187 1510 l 1,13,-1
 1478 1510 l 1,14,-1
 1165 941 l 1,15,-1
 1356 941 l 1,16,-1
 1356 760 l 1,17,-1
 1070 760 l 1,18,-1
 1000 633 l 1,19,-1
 1355 633 l 1,20,-1
 1355 452 l 1,21,-1
 928 452 l 1,22,-1
 928 0 l 1,23,-1
 608 0 l 1,0,-1
EndSplineSet
Validated: 19457
EndChar

StartChar: brokenbar
Encoding: 166 166 99
Width: 681
GlyphClass: 2
Flags: W
VStem: 200 281<-216 662 847 1725>
LayerCount: 2
Fore
SplineSet
200 -216 m 1,0,-1
 200 662 l 1,1,-1
 481 662 l 1,2,-1
 481 -216 l 1,3,-1
 200 -216 l 1,0,-1
200 847 m 1,4,-1
 200 1725 l 1,5,-1
 481 1725 l 1,6,-1
 481 847 l 1,7,-1
 200 847 l 1,4,-1
EndSplineSet
Validated: 19457
EndChar

StartChar: section
Encoding: 167 167 100
Width: 1138
GlyphClass: 2
Flags: W
HStem: -20 176<311.59 705.139> 408 181<441.719 713.367> 921 181<424.633 696.281> 1354 176<432.861 826.41>
VStem: 100 300<629.405 860.493 1127.51 1316.04> 738 300<193.956 382.486 649.507 880.595>
LayerCount: 2
Fore
SplineSet
491 -20 m 0,0,1
 140 -20 140 -20 140 283 c 1,2,-1
 440 360 l 1,3,4
 440 156 440 156 593 156 c 0,5,6
 738 156 738 156 738 313 c 2,7,-1
 738 315 l 2,8,9
 738 408 738 408 580 408 c 24,10,11
 100 408 100 408 100 719 c 2,12,-1
 100 720 l 2,13,14
 100 841 100 841 153 925 c 1,15,-1
 425 862 l 1,16,17
 400 814 400 814 400 738 c 2,18,-1
 400 736 l 2,19,20
 400 589 400 589 582 589 c 0,21,22
 1038 589 1038 589 1038 346 c 2,23,-1
 1038 345 l 2,24,25
 1038 -20 1038 -20 491 -20 c 0,0,1
647 1530 m 0,26,27
 998 1530 998 1530 998 1227 c 1,28,-1
 698 1150 l 1,29,30
 698 1354 698 1354 545 1354 c 0,31,32
 400 1354 400 1354 400 1197 c 2,33,-1
 400 1195 l 2,34,35
 400 1102 400 1102 558 1102 c 24,36,37
 1038 1102 1038 1102 1038 791 c 2,38,-1
 1038 790 l 2,39,40
 1038 669 1038 669 985 585 c 1,41,-1
 713 648 l 1,42,43
 738 696 738 696 738 772 c 2,44,-1
 738 774 l 2,45,46
 738 921 738 921 556 921 c 0,47,48
 100 921 100 921 100 1164 c 2,49,-1
 100 1165 l 2,50,51
 100 1530 100 1530 647 1530 c 0,26,27
EndSplineSet
Validated: 19457
EndChar

StartChar: dieresis
Encoding: 168 168 101
Width: 706
GlyphClass: 2
Flags: W
HStem: 1217 313<53.8379 294.162 411.838 652.162>
VStem: 20 308<1251.39 1495.61> 378 308<1251.39 1495.61>
LayerCount: 2
Fore
SplineSet
532 1530 m 128,-1,1
 686 1530 686 1530 686 1373.5 c 128,-1,2
 686 1217 686 1217 532 1217 c 152,-1,3
 378 1217 378 1217 378 1373.5 c 128,-1,0
 378 1530 378 1530 532 1530 c 128,-1,1
174 1530 m 128,-1,5
 328 1530 328 1530 328 1373.5 c 128,-1,6
 328 1217 328 1217 174 1217 c 152,-1,7
 20 1217 20 1217 20 1373.5 c 128,-1,4
 20 1530 20 1530 174 1530 c 128,-1,5
EndSplineSet
Validated: 19457
EndChar

StartChar: copyright
Encoding: 169 169 102
Width: 1301
GlyphClass: 2
Flags: W
HStem: 187 73<464.363 828.202> 339 143<571.174 706.099> 1022 142<592.074 713.256> 1254 77<466.855 834.866>
VStem: 100 74<569.815 952.314> 357 210<488.502 1001.35> 729 214<500.696 633 929 1014.58> 1126 75<558.376 959.426>
LayerCount: 2
Fore
SplineSet
651 1331 m 0,0,1
 893 1331 893 1331 1049 1158 c 0,2,3
 1201 989 1201 989 1201 754 c 0,4,5
 1201 502 1201 502 1040 350 c 0,6,7
 869 187 869 187 649 187 c 0,8,9
 426 187 426 187 261 350 c 0,10,11
 100 509 100 509 100 754 c 0,12,13
 100 998 100 998 258 1163 c 0,14,15
 419 1331 419 1331 651 1331 c 0,0,1
649 1254 m 0,16,17
 459 1254 459 1254 317 1113 c 0,18,19
 174 971 174 971 174 754 c 0,20,21
 174 561 174 561 314 406 c 0,22,23
 445 260 445 260 651 260 c 0,24,25
 842 260 842 260 987 406 c 0,26,27
 1126 546 1126 546 1126 754 c 0,28,29
 1126 975 1126 975 989 1110 c 0,30,31
 843 1254 843 1254 649 1254 c 0,16,17
943 652 m 1,32,33
 943 339 943 339 593 339 c 0,34,35
 357 339 357 339 357 557 c 2,36,-1
 357 835 l 2,37,38
 357 1164 357 1164 703 1164 c 0,39,40
 943 1164 943 1164 943 929 c 1,41,-1
 731 887 l 1,42,43
 731 1022 731 1022 653 1022 c 0,44,45
 567 1022 567 1022 567 835 c 2,46,-1
 567 557 l 2,47,48
 567 482 567 482 639 482 c 0,49,50
 729 482 729 482 729 633 c 1,51,-1
 943 652 l 1,32,33
EndSplineSet
Validated: 19457
EndChar

StartChar: ordfeminine
Encoding: 170 170 103
Width: 795
GlyphClass: 2
Flags: W
HStem: 603 210<20 775> 878 130<196.521 420.314> 1202 90<367.355 478> 1390 140<348.869 473.401>
VStem: 91 211<1009.41 1137.26> 478 219<1042.82 1202 1282.96 1388.94>
LayerCount: 2
Fore
SplineSet
349 1008 m 0,0,1
 422 1008 422 1008 458 1077 c 0,2,3
 478 1115 478 1115 478 1202 c 1,4,5
 302 1158 302 1158 302 1048 c 2,6,-1
 302 1045 l 2,7,8
 302 1008 302 1008 349 1008 c 0,0,1
457 1530 m 0,9,10
 697 1530 697 1530 697 1339 c 2,11,-1
 697 1081 l 2,12,13
 697 967 697 967 767 887 c 1,14,-1
 473 887 l 1,15,-1
 457 953 l 1,16,17
 380 878 380 878 279 878 c 0,18,19
 91 878 91 878 91 1038 c 2,20,-1
 91 1042 l 2,21,22
 91 1197 91 1197 478 1292 c 1,23,-1
 478 1308 l 2,24,25
 478 1390 478 1390 436 1390 c 0,26,27
 374 1390 374 1390 331 1323 c 1,28,-1
 166 1387 l 1,29,30
 262 1530 262 1530 457 1530 c 0,9,10
775 603 m 1,31,-1
 20 603 l 1,32,-1
 20 813 l 1,33,-1
 775 813 l 1,34,-1
 775 603 l 1,31,-1
EndSplineSet
Validated: 19457
EndChar

StartChar: guillemotleft
Encoding: 171 171 104
Width: 1273
GlyphClass: 2
Flags: W
HStem: 1054 353<270 623 770 1123>
DStem2: 100 859 374 793 0.690413 0.723415<141.428 502.152> 600 859 874 793 0.690413 0.723415<141.428 502.152>
LayerCount: 2
Fore
SplineSet
1123 1407 m 1,0,-1
 1123 1054 l 1,1,-1
 874 793 l 1,2,-1
 1123 545 l 1,3,-1
 1123 131 l 1,4,-1
 600 678 l 1,5,-1
 600 859 l 1,6,-1
 1123 1407 l 1,0,-1
623 1407 m 1,7,-1
 623 1054 l 1,8,-1
 374 793 l 1,9,-1
 623 545 l 1,10,-1
 623 131 l 1,11,-1
 100 678 l 1,12,-1
 100 859 l 1,13,-1
 623 1407 l 1,7,-1
EndSplineSet
Validated: 19457
EndChar

StartChar: logicalnot
Encoding: 172 172 105
Width: 1184
GlyphClass: 2
Flags: W
HStem: 642 251<100 833>
VStem: 833 251<406 642>
LayerCount: 2
Fore
SplineSet
100 893 m 1,0,-1
 1084 893 l 1,1,-1
 1084 406 l 1,2,-1
 833 406 l 1,3,-1
 833 642 l 1,4,-1
 100 642 l 1,5,-1
 100 893 l 1,0,-1
EndSplineSet
Validated: 19457
EndChar

StartChar: uni00AD
Encoding: 173 173 106
Width: 1184
GlyphClass: 2
Flags: W
HStem: 642 251<100 1084>
LayerCount: 2
Fore
SplineSet
100 893 m 1,0,-1
 1084 893 l 1,1,-1
 1084 642 l 1,2,-1
 100 642 l 1,3,-1
 100 893 l 1,0,-1
EndSplineSet
Validated: 19457
EndChar

StartChar: registered
Encoding: 174 174 107
Width: 1301
GlyphClass: 2
Flags: W
HStem: 187 73<464.363 826.443> 584 143<627 710.011> 1006 144<624 728.698> 1254 77<466.855 834.866>
VStem: 100 74<569.815 952.314> 417 210<345 584 727 1005.22> 712 211<377.496 583.335> 734 210<375 580.408 763.012 1000.5> 1126 75<558.376 959.426>
LayerCount: 2
Fore
SplineSet
624 1006 m 1,0,1
 627 984 627 984 627 976 c 2,2,-1
 627 727 l 1,3,-1
 649 727 l 2,4,5
 734 727 734 727 734 928 c 2,6,-1
 734 932 l 2,7,8
 734 1006 734 1006 655 1006 c 2,9,-1
 624 1006 l 1,0,1
649 1254 m 0,10,11
 459 1254 459 1254 317 1113 c 0,12,13
 174 971 174 971 174 754 c 0,14,15
 174 561 174 561 314 406 c 0,16,17
 445 260 445 260 651 260 c 0,18,19
 797 260 797 260 916 345 c 1,20,-1
 745 345 l 1,21,22
 712 437 712 437 712 520 c 2,23,-1
 712 524 l 2,24,25
 712 584 712 584 677 584 c 2,26,-1
 627 584 l 1,27,-1
 627 345 l 1,28,-1
 417 345 l 1,29,-1
 417 975 l 2,30,31
 417 1063 417 1063 365 1150 c 1,32,-1
 707 1150 l 2,33,34
 944 1150 944 1150 944 932 c 2,35,-1
 944 928 l 2,36,37
 944 758 944 758 803 671 c 1,38,39
 923 642 923 642 923 524 c 2,40,-1
 923 520 l 2,41,42
 923 455 923 455 954 375 c 1,43,44
 971 389 971 389 987 406 c 0,45,46
 1126 546 1126 546 1126 754 c 0,47,48
 1126 975 1126 975 989 1110 c 0,49,50
 843 1254 843 1254 649 1254 c 0,10,11
651 1331 m 0,51,52
 893 1331 893 1331 1049 1158 c 0,53,54
 1201 989 1201 989 1201 754 c 0,55,56
 1201 502 1201 502 1040 350 c 0,57,58
 869 187 869 187 649 187 c 0,59,60
 426 187 426 187 261 350 c 0,61,62
 100 509 100 509 100 754 c 0,63,64
 100 998 100 998 258 1163 c 0,65,66
 419 1331 419 1331 651 1331 c 0,51,52
EndSplineSet
Validated: 19457
EndChar

StartChar: macron
Encoding: 175 175 108
Width: 732
GlyphClass: 2
Flags: W
HStem: 1261 188<20 712>
LayerCount: 2
Fore
SplineSet
20 1449 m 1,0,-1
 712 1449 l 1,1,-1
 712 1261 l 1,2,-1
 20 1261 l 1,3,-1
 20 1449 l 1,0,-1
EndSplineSet
Validated: 19457
EndChar

StartChar: degree
Encoding: 176 176 109
Width: 742
GlyphClass: 2
Flags: W
HStem: 893 185<262.404 458.738> 1344 186<283.966 480.528>
VStem: 20 228<1098.19 1312.8> 494 228<1108.71 1324.81>
LayerCount: 2
Fore
SplineSet
426 1530 m 0,0,1
 722 1530 722 1530 722 1262 c 2,2,-1
 722 1261 l 2,3,4
 722 893 722 893 316 893 c 0,5,6
 20 893 20 893 20 1161 c 2,7,-1
 20 1162 l 2,8,9
 20 1530 20 1530 426 1530 c 0,0,1
384 1344 m 0,10,11
 248 1344 248 1344 248 1181 c 2,12,-1
 248 1180 l 2,13,14
 248 1078 248 1078 364 1078 c 0,15,16
 494 1078 494 1078 494 1244 c 2,17,-1
 494 1245 l 2,18,19
 494 1344 494 1344 384 1344 c 0,10,11
EndSplineSet
Validated: 19457
EndChar

StartChar: plusminus
Encoding: 177 177 110
Width: 1184
GlyphClass: 2
Flags: W
HStem: 114 251<100 1084> 792 251<100 466 716 1084>
VStem: 466 250<425 792 1043 1385>
LayerCount: 2
Fore
SplineSet
100 365 m 1,0,-1
 1084 365 l 1,1,-1
 1084 114 l 1,2,-1
 100 114 l 1,3,-1
 100 365 l 1,0,-1
466 1385 m 1,4,-1
 716 1385 l 1,5,-1
 716 1043 l 1,6,-1
 1084 1043 l 1,7,-1
 1084 792 l 1,8,-1
 716 792 l 1,9,-1
 716 425 l 1,10,-1
 466 425 l 1,11,-1
 466 792 l 1,12,-1
 100 792 l 1,13,-1
 100 1043 l 1,14,-1
 466 1043 l 1,15,-1
 466 1385 l 1,4,-1
EndSplineSet
Validated: 19457
EndChar

StartChar: uni00B2
Encoding: 178 178 111
Width: 704
GlyphClass: 2
Flags: W
HStem: 792 174<295 603.447> 1117 175<308.76 389.566> 1494 174<152.304 404.334>
VStem: 20 275<966 1096.69> 414 270<1308.77 1484.85>
LayerCount: 2
Fore
SplineSet
334 1668 m 2,0,-1
 386 1668 l 2,1,2
 684 1668 684 1668 684 1420 c 2,3,-1
 684 1419 l 2,4,5
 684 1117 684 1117 349 1117 c 0,6,7
 295 1117 295 1117 295 966 c 1,8,-1
 440 966 l 2,9,10
 577 966 577 966 676 1068 c 1,11,-1
 676 841 l 1,12,13
 573 792 573 792 440 792 c 2,14,-1
 20 792 l 1,15,16
 20 1292 20 1292 318 1292 c 0,17,18
 414 1292 414 1292 414 1418 c 2,19,-1
 414 1419 l 2,20,21
 414 1494 414 1494 336 1494 c 2,22,-1
 319 1494 l 2,23,24
 198 1494 198 1494 84 1406 c 1,25,-1
 84 1624 l 1,26,27
 220 1668 220 1668 334 1668 c 2,0,-1
EndSplineSet
Validated: 19457
EndChar

StartChar: uni00B3
Encoding: 179 179 112
Width: 744
GlyphClass: 2
Flags: W
HStem: 793 173<309.969 436.775> 1185 175<216 389.939> 1494 174<196.549 405.596>
VStem: 454 270<982 1179.5>
LayerCount: 2
Fore
SplineSet
374 1668 m 2,0,1
 388 1668 l 2,2,3
 674 1668 674 1668 674 1478 c 2,4,-1
 674 1475 l 2,5,6
 674 1378 674 1378 587 1317 c 1,7,8
 724 1268 724 1268 724 1142 c 2,9,-1
 724 1129 l 2,10,11
 724 793 724 793 320 793 c 0,12,13
 20 793 20 793 20 1059 c 1,14,-1
 290 1133 l 1,15,16
 290 966 290 966 372 966 c 128,-1,17
 454 966 454 966 454 1110 c 2,18,-1
 454 1122 l 2,19,20
 454 1185 454 1185 376 1185 c 2,21,-1
 216 1185 l 1,22,-1
 216 1360 l 1,23,24
 410 1360 410 1360 410 1453 c 2,25,-1
 410 1457 l 2,26,27
 410 1494 410 1494 363 1494 c 2,28,-1
 359 1494 l 2,29,30
 249 1494 249 1494 124 1407 c 1,31,-1
 124 1624 l 1,32,33
 245 1668 245 1668 374 1668 c 2,0,1
EndSplineSet
Validated: 19457
EndChar

StartChar: acute
Encoding: 180 180 113
Width: 458
GlyphClass: 2
Flags: W
HStem: 1135 409
VStem: 20 418
LayerCount: 2
Fore
SplineSet
264 1544 m 1,0,-1
 438 1374 l 1,1,-1
 142 1135 l 1,2,-1
 20 1253 l 1,3,-1
 264 1544 l 1,0,-1
EndSplineSet
Validated: 19457
EndChar

StartChar: uni00B5
Encoding: 181 181 114
Width: 1263
GlyphClass: 2
Flags: W
HStem: -410 21G<150 445> -20 190<476.401 659.895> 0 21G<856.5 1193> 1080 20G<70 421 818 1113>
VStem: 150 300<-410 9 192.989 1029.12> 818 295<465.075 1100> 838 275<70.0713 215>
LayerCount: 2
Fore
SplineSet
1193 0 m 1,0,1
 875 0 l 1,2,3
 838 99 838 99 838 215 c 1,4,5
 761 -20 761 -20 577 -20 c 0,6,7
 502 -20 502 -20 445 9 c 1,8,-1
 445 -410 l 17,9,-1
 150 -410 l 1,10,-1
 150 792 l 2,11,12
 150 968 150 968 70 1100 c 1,13,14
 392 1100 l 1,15,16
 450 962 450 962 450 794 c 2,17,-1
 450 348 l 2,18,19
 450 170 450 170 555 170 c 0,20,21
 818 170 818 170 818 1007 c 2,22,-1
 818 1100 l 1,23,-1
 1113 1100 l 1,24,-1
 1113 308 l 2,25,26
 1113 132 1113 132 1193 0 c 1,0,1
EndSplineSet
Validated: 19457
EndChar

StartChar: paragraph
Encoding: 182 182 115
Width: 1203
GlyphClass: 2
Flags: W
HStem: 0 21G<676 820 907 1053> 1490 20G<322.5 1138>
VStem: 676 144<0 490> 907 146<0 1271.4>
LayerCount: 2
Fore
SplineSet
1053 0 m 1,0,-1
 907 0 l 1,1,-1
 907 1276 l 1,2,-1
 820 1276 l 1,3,-1
 820 0 l 1,4,-1
 676 0 l 1,5,-1
 676 490 l 1,6,7
 80 490 80 490 80 1103 c 2,8,9
 80 1111 l 2,10,11
 80 1510 80 1510 565 1510 c 2,12,-1
 1138 1510 l 1,13,14
 1053 1378 1053 1378 1053 1193 c 2,15,-1
 1053 0 l 1,0,-1
EndSplineSet
Validated: 19457
EndChar

StartChar: periodcentered
Encoding: 183 183 116
Width: 412
GlyphClass: 2
Flags: W
HStem: 576 376<69.4517 342.548>
VStem: 20 372<625.983 902.017>
LayerCount: 2
Fore
SplineSet
206 952 m 128,-1,1
 392 952 392 952 392 764 c 128,-1,2
 392 576 392 576 206 576 c 152,-1,3
 20 576 20 576 20 764 c 128,-1,0
 20 952 20 952 206 952 c 128,-1,1
EndSplineSet
Validated: 1
EndChar

StartChar: cedilla
Encoding: 184 184 117
Width: 452
GlyphClass: 2
Flags: W
HStem: -460 186<73 185.801> -20 20G<67 288>
VStem: 192 240<-360.75 -170.727>
LayerCount: 2
Fore
SplineSet
67 0 m 1,0,-1
 288 0 l 1,1,2
 288 -49 288 -49 328 -74 c 0,3,4
 432 -138 432 -138 432 -260 c 0,5,6
 432 -460 432 -460 73 -460 c 1,7,-1
 20 -274 l 1,8,9
 192 -274 192 -274 192 -224 c 24,10,11
 192 -202 192 -202 148 -171 c 0,12,13
 67 -113 67 -113 67 0 c 1,0,-1
EndSplineSet
Validated: 19457
EndChar

StartChar: uni00B9
Encoding: 185 185 118
Width: 428
GlyphClass: 2
Flags: W
HStem: 1493 175<20 138>
VStem: 138 270<792 1492.02>
LayerCount: 2
Fore
SplineSet
20 1668 m 1,0,-1
 357 1668 l 1,1,2
 408 1581 408 1581 408 1463 c 2,3,-1
 408 792 l 1,4,-1
 138 792 l 1,5,-1
 138 1462 l 2,6,7
 138 1478 138 1478 136 1493 c 1,8,-1
 20 1493 l 1,9,-1
 20 1668 l 1,0,-1
EndSplineSet
Validated: 19457
EndChar

StartChar: ordmasculine
Encoding: 186 186 119
Width: 784
GlyphClass: 2
Flags: W
HStem: 603 210<20 764> 881 144<311.61 455.107> 1385 145<325.891 475.418>
VStem: 85 220<1032.64 1364.06> 479 220<1040.1 1379.07>
LayerCount: 2
Fore
SplineSet
764 603 m 1,0,-1
 20 603 l 1,1,-1
 20 813 l 1,2,-1
 764 813 l 1,3,-1
 764 603 l 1,0,-1
400 1385 m 16,4,5
 305 1385 305 1385 305 1235 c 2,6,-1
 305 1094 l 2,7,8
 305 1025 305 1025 387 1025 c 0,9,10
 479 1025 479 1025 479 1176 c 2,11,-1
 479 1317 l 2,12,13
 479 1385 479 1385 400 1385 c 16,4,5
452 1530 m 0,14,15
 699 1530 699 1530 699 1318 c 2,16,-1
 699 1176 l 2,17,18
 699 881 699 881 338 881 c 0,19,20
 85 881 85 881 85 1094 c 2,21,-1
 85 1235 l 2,22,23
 85 1530 85 1530 452 1530 c 0,14,15
EndSplineSet
Validated: 19457
EndChar

StartChar: guillemotright
Encoding: 187 187 120
Width: 1273
GlyphClass: 2
Flags: W
HStem: 131 353<150 503 650 1003>
DStem2: 150 484 150 131 0.690413 0.723415<0 360.724> 650 484 650 131 0.690413 0.723415<0 360.724>
LayerCount: 2
Fore
SplineSet
150 1407 m 1,0,-1
 673 860 l 1,1,-1
 673 679 l 1,2,-1
 150 131 l 1,3,-1
 150 484 l 1,4,-1
 399 745 l 1,5,-1
 150 993 l 1,6,-1
 150 1407 l 1,0,-1
650 1407 m 1,7,-1
 1173 860 l 1,8,-1
 1173 679 l 1,9,-1
 650 131 l 1,10,-1
 650 484 l 1,11,-1
 899 745 l 1,12,-1
 650 993 l 1,13,-1
 650 1407 l 1,7,-1
EndSplineSet
Validated: 19457
EndChar

StartChar: questiondown
Encoding: 191 191 121
Width: 1408
GlyphClass: 2
Flags: W
HStem: -430 184<516.315 840.24> 365 176<522.93 593.671> 743 377<617.452 890.548>
VStem: 110 320<-167.918 255.214> 568 372<793.116 1069.88> 968 330<-58.1875 150>
LayerCount: 2
Fore
SplineSet
754 1120 m 152,-1,1
 940 1120 940 1120 940 931.5 c 128,-1,2
 940 743 940 743 754 743 c 128,-1,3
 568 743 568 743 568 931.5 c 128,-1,0
 568 1120 568 1120 754 1120 c 152,-1,1
595 -430 m 24,4,5
 110 -430 110 -430 110 -33 c 2,6,-1
 110 -30 l 2,7,8
 110 541 110 541 550 541 c 0,9,10
 595 541 595 541 595 605 c 1,11,-1
 915 712 l 1,12,13
 915 365 915 365 625 365 c 0,14,15
 430 365 430 365 430 -24 c 2,16,-1
 430 -27 l 2,17,18
 430 -246 430 -246 699 -246 c 128,-1,19
 968 -246 968 -246 968 150 c 9,20,-1
 1298 231 l 1,21,22
 1298 -430 1298 -430 595 -430 c 24,4,5
EndSplineSet
Validated: 19457
EndChar

StartChar: multiply
Encoding: 215 215 122
Width: 1073
GlyphClass: 2
Flags: W
DStem2: 100 505 277 327 0.707107 0.707107<0 364.867 616.597 982.878> 294 1183 116 1005 0.707107 -0.707107<0 342.24 593.263 960.251>
LayerCount: 2
Fore
SplineSet
294 1183 m 1,0,-1
 536 941 l 1,1,-1
 795 1200 l 1,2,-1
 973 1023 l 1,3,-1
 713 763 l 1,4,-1
 973 504 l 1,5,-1
 795 326 l 1,6,-1
 536 586 l 1,7,-1
 277 327 l 1,8,-1
 100 505 l 1,9,-1
 358 763 l 1,10,-1
 116 1005 l 1,11,-1
 294 1183 l 1,0,-1
EndSplineSet
Validated: 19457
EndChar

StartChar: divide
Encoding: 247 247 123
Width: 1184
GlyphClass: 2
Flags: W
HStem: 181 377<455.452 728.548> 642 251<100 1084> 977 376<455.452 728.548>
VStem: 406 372<231.116 507.884 1026.98 1303.02>
LayerCount: 2
Fore
SplineSet
100 893 m 1,0,-1
 1084 893 l 1,1,-1
 1084 642 l 1,2,-1
 100 642 l 1,3,-1
 100 893 l 1,0,-1
592 1353 m 128,-1,5
 778 1353 778 1353 778 1165 c 128,-1,6
 778 977 778 977 592 977 c 152,-1,7
 406 977 406 977 406 1165 c 128,-1,4
 406 1353 406 1353 592 1353 c 128,-1,5
592 181 m 152,-1,9
 406 181 406 181 406 369.5 c 128,-1,10
 406 558 406 558 592 558 c 128,-1,11
 778 558 778 558 778 369.5 c 128,-1,8
 778 181 778 181 592 181 c 152,-1,9
EndSplineSet
Validated: 19457
EndChar

StartChar: Lslash
Encoding: 321 321 124
Width: 1101
GlyphClass: 2
Flags: W
HStem: 0 187<460 961.325> 1100 20G<687.161 727.169> 1490 20G<50 428>
VStem: 140 320<187 308 547 632 871 1423.61>
DStem2: 4 410 123 291 0.703095 0.711096<0 23.0891 648.427 998.913>
LayerCount: 2
Fore
SplineSet
140 0 m 1,0,-1
 140 308 l 1,1,-1
 123 291 l 1,2,-1
 4 410 l 1,3,-1
 140 547 l 1,4,-1
 140 1193 l 2,5,6
 140 1374 140 1374 50 1510 c 1,7,-1
 396 1510 l 1,8,9
 460 1370 460 1370 460 1193 c 2,10,-1
 460 871 l 1,11,-1
 707 1120 l 1,12,-1
 826 1002 l 1,13,-1
 460 632 l 1,14,-1
 460 187 l 1,15,-1
 731 187 l 2,16,17
 927 187 927 187 1091 302 c 1,18,-1
 1091 66 l 1,19,20
 934 0 934 0 731 0 c 2,21,-1
 140 0 l 1,0,-1
EndSplineSet
Validated: 19457
EndChar

StartChar: lslash
Encoding: 322 322 125
Width: 774
GlyphClass: 2
Flags: W
HStem: 0 21G<266 617> 1490 20G<157 508.5>
VStem: 237 300<73.5 429 669 733 972 1437.62>
DStem2: 10 439 129 320 0.702667 0.711519<0 152.39 749.545 902.647>
LayerCount: 2
Fore
SplineSet
295 0 m 1,0,1
 237 144 237 144 237 312 c 2,2,-1
 237 429 l 1,3,-1
 129 320 l 1,4,-1
 10 439 l 1,5,-1
 237 669 l 1,6,-1
 237 1198 l 2,7,8
 237 1378 237 1378 157 1510 c 1,9,-1
 480 1510 l 1,10,11
 537 1369 537 1369 537 1198 c 2,12,-1
 537 972 l 1,13,-1
 645 1081 l 1,14,-1
 764 963 l 1,15,-1
 537 733 l 1,16,-1
 537 312 l 2,17,18
 537 138 537 138 617 0 c 1,19,-1
 295 0 l 1,0,1
EndSplineSet
Validated: 19457
EndChar

StartChar: endash
Encoding: 8211 8211 126
Width: 1184
GlyphClass: 2
Flags: W
HStem: 642 251<100 1084>
LayerCount: 2
Fore
SplineSet
100 893 m 1,0,-1
 1084 893 l 1,1,-1
 1084 642 l 1,2,-1
 100 642 l 1,3,-1
 100 893 l 1,0,-1
EndSplineSet
Validated: 19457
EndChar

StartChar: emdash
Encoding: 8212 8212 127
Width: 1403
GlyphClass: 2
Flags: W
HStem: 642 251<100 1303>
LayerCount: 2
Fore
SplineSet
1303 642 m 1,0,-1
 100 642 l 1,1,-1
 100 893 l 1,2,-1
 1303 893 l 1,3,-1
 1303 642 l 1,0,-1
EndSplineSet
Validated: 19457
EndChar

StartChar: afii00208
Encoding: 8213 8213 128
Width: 1403
GlyphClass: 2
Flags: W
HStem: 642 251<100 1303>
LayerCount: 2
Fore
SplineSet
1303 642 m 1,0,-1
 100 642 l 1,1,-1
 100 893 l 1,2,-1
 1303 893 l 1,3,-1
 1303 642 l 1,0,-1
EndSplineSet
Validated: 19457
EndChar

StartChar: quoteleft
Encoding: 8216 8216 129
Width: 422
GlyphClass: 2
Flags: W
HStem: 1510 20G<170.5 333.18>
VStem: 20 229<1093.62 1316.82>
LayerCount: 2
Fore
SplineSet
321 1530 m 1,0,-1
 402 1397 l 1,1,2
 249 1326 249 1326 249 1202 c 0,3,4
 249 1089 249 1089 389 1031 c 1,5,-1
 235 822 l 1,6,7
 20 950 20 950 20 1158 c 0,8,9
 20 1381 20 1381 321 1530 c 1,0,-1
EndSplineSet
Validated: 19457
EndChar

StartChar: quoteright
Encoding: 8217 8217 130
Width: 422
GlyphClass: 2
Flags: W
HStem: 1510 20G<172.263 294.5>
VStem: 173 229<1035.18 1258.38>
LayerCount: 2
Fore
SplineSet
187 1530 m 1,0,1
 402 1402 402 1402 402 1194 c 0,2,3
 402 971 402 971 101 822 c 1,4,-1
 20 955 l 1,5,6
 173 1026 173 1026 173 1150 c 0,7,8
 173 1263 173 1263 33 1321 c 1,9,-1
 187 1530 l 1,0,1
EndSplineSet
Validated: 19457
EndChar

StartChar: quotesinglbase
Encoding: 8218 8218 131
Width: 422
GlyphClass: 2
Flags: W
VStem: 173 229<-114.818 108.385>
LayerCount: 2
Fore
SplineSet
187 380 m 1,0,1
 402 252 402 252 402 44 c 0,2,3
 402 -179 402 -179 101 -328 c 1,4,-1
 20 -195 l 1,5,6
 173 -124 173 -124 173 0 c 0,7,8
 173 113 173 113 33 171 c 1,9,-1
 187 380 l 1,0,1
EndSplineSet
Validated: 19457
EndChar

StartChar: quotereversed
Encoding: 8219 8219 132
Width: 422
GlyphClass: 2
Flags: W
HStem: 1510 20G<127.5 249.737>
VStem: 20 229<1035.18 1258.38>
LayerCount: 2
Fore
SplineSet
235 1530 m 1,0,1
 389 1321 l 1,2,3
 249 1263 249 1263 249 1150 c 0,4,5
 249 1026 249 1026 402 955 c 1,6,-1
 321 822 l 1,7,8
 20 971 20 971 20 1194 c 0,9,10
 20 1402 20 1402 235 1530 c 1,0,1
EndSplineSet
Validated: 19457
EndChar

StartChar: quotedblleft
Encoding: 8220 8220 133
Width: 793
GlyphClass: 2
Flags: W
HStem: 1510 20G<170.5 333.18 541.5 704.18>
VStem: 20 229<1093.62 1316.82> 391 229<1093.62 1316.82>
LayerCount: 2
Fore
SplineSet
321 1530 m 1,0,-1
 402 1397 l 1,1,2
 249 1326 249 1326 249 1202 c 0,3,4
 249 1089 249 1089 389 1031 c 1,5,-1
 235 822 l 1,6,7
 20 950 20 950 20 1158 c 0,8,9
 20 1381 20 1381 321 1530 c 1,0,-1
692 1530 m 1,10,-1
 773 1397 l 1,11,12
 620 1326 620 1326 620 1202 c 0,13,14
 620 1089 620 1089 760 1031 c 1,15,-1
 606 822 l 1,16,17
 391 950 391 950 391 1158 c 0,18,19
 391 1381 391 1381 692 1530 c 1,10,-1
EndSplineSet
Validated: 19457
EndChar

StartChar: quotedblright
Encoding: 8221 8221 134
Width: 793
GlyphClass: 2
Flags: W
HStem: 1510 20G<172.263 294.5 543.263 665.5>
VStem: 173 229<1035.18 1258.38> 544 229<1035.18 1258.38>
LayerCount: 2
Fore
SplineSet
558 1530 m 1,0,1
 773 1402 773 1402 773 1194 c 0,2,3
 773 971 773 971 472 822 c 1,4,-1
 391 955 l 1,5,6
 544 1026 544 1026 544 1150 c 0,7,8
 544 1263 544 1263 404 1321 c 1,9,-1
 558 1530 l 1,0,1
187 1530 m 1,10,11
 402 1402 402 1402 402 1194 c 0,12,13
 402 971 402 971 101 822 c 1,14,-1
 20 955 l 1,15,16
 173 1026 173 1026 173 1150 c 0,17,18
 173 1263 173 1263 33 1321 c 1,19,-1
 187 1530 l 1,10,11
EndSplineSet
Validated: 19457
EndChar

StartChar: quotedblbase
Encoding: 8222 8222 135
Width: 793
GlyphClass: 2
Flags: W
VStem: 173 229<-114.818 108.385> 544 229<-114.818 108.385>
LayerCount: 2
Fore
SplineSet
558 380 m 1,0,1
 773 252 773 252 773 44 c 0,2,3
 773 -179 773 -179 472 -328 c 1,4,-1
 391 -195 l 1,5,6
 544 -124 544 -124 544 0 c 0,7,8
 544 113 544 113 404 171 c 1,9,-1
 558 380 l 1,0,1
187 380 m 1,10,11
 402 252 402 252 402 44 c 0,12,13
 402 -179 402 -179 101 -328 c 1,14,-1
 20 -195 l 1,15,16
 173 -124 173 -124 173 0 c 0,17,18
 173 113 173 113 33 171 c 1,19,-1
 187 380 l 1,10,11
EndSplineSet
Validated: 19457
EndChar

StartChar: dagger
Encoding: 8224 8224 136
Width: 1203
GlyphClass: 2
Flags: W
HStem: 0 21G<442 762> 975 211<100 442 762 1103> 1490 20G<442 762>
VStem: 442 320<0 975 1186 1510>
LayerCount: 2
Fore
SplineSet
442 0 m 1,0,-1
 442 975 l 1,1,-1
 100 975 l 1,2,-1
 100 1186 l 1,3,-1
 442 1186 l 1,4,-1
 442 1510 l 1,5,-1
 762 1510 l 1,6,-1
 762 1186 l 1,7,-1
 1103 1186 l 1,8,-1
 1103 975 l 1,9,-1
 762 975 l 1,10,-1
 762 0 l 1,11,-1
 442 0 l 1,0,-1
EndSplineSet
Validated: 19457
EndChar

StartChar: daggerdbl
Encoding: 8225 8225 137
Width: 1203
GlyphClass: 2
Flags: W
HStem: 0 21G<442 762> 324 211<100 442 762 1103> 975 211<100 442 762 1103> 1490 20G<442 762>
VStem: 442 320<0 324 535 975 1186 1510>
LayerCount: 2
Fore
SplineSet
442 0 m 1,0,-1
 442 324 l 1,1,-1
 100 324 l 1,2,-1
 100 535 l 1,3,-1
 442 535 l 1,4,-1
 442 975 l 1,5,-1
 100 975 l 1,6,-1
 100 1186 l 1,7,-1
 442 1186 l 1,8,-1
 442 1510 l 1,9,-1
 762 1510 l 1,10,-1
 762 1186 l 1,11,-1
 1103 1186 l 1,12,-1
 1103 975 l 1,13,-1
 762 975 l 1,14,-1
 762 535 l 1,15,-1
 1103 535 l 1,16,-1
 1103 324 l 1,17,-1
 762 324 l 1,18,-1
 762 0 l 1,19,-1
 442 0 l 1,0,-1
EndSplineSet
Validated: 19457
EndChar

StartChar: bullet
Encoding: 8226 8226 138
Width: 944
GlyphClass: 2
Flags: W
HStem: 387 754<260.207 683.793>
VStem: 100 744<549.36 978.64>
LayerCount: 2
Fore
SplineSet
472 1141 m 128,-1,1
 844 1141 844 1141 844 764 c 128,-1,2
 844 387 844 387 472 387 c 152,-1,3
 100 387 100 387 100 764 c 128,-1,0
 100 1141 100 1141 472 1141 c 128,-1,1
EndSplineSet
Validated: 19457
EndChar

StartChar: ellipsis
Encoding: 8230 8230 139
Width: 1316
GlyphClass: 2
Flags: W
HStem: -20 377<69.4517 342.548 521.452 794.548 973.452 1246.55>
VStem: 20 372<30.1163 306.884> 472 372<30.1163 306.884> 924 372<30.1163 306.884>
CounterMasks: 1 70
LayerCount: 2
Fore
SplineSet
1110 -20 m 152,-1,1
 924 -20 924 -20 924 168.5 c 128,-1,2
 924 357 924 357 1110 357 c 128,-1,3
 1296 357 1296 357 1296 168.5 c 128,-1,0
 1296 -20 1296 -20 1110 -20 c 152,-1,1
658 -20 m 152,-1,5
 472 -20 472 -20 472 168.5 c 128,-1,6
 472 357 472 357 658 357 c 128,-1,7
 844 357 844 357 844 168.5 c 128,-1,4
 844 -20 844 -20 658 -20 c 152,-1,5
206 -20 m 152,-1,9
 20 -20 20 -20 20 168.5 c 128,-1,10
 20 357 20 357 206 357 c 128,-1,11
 392 357 392 357 392 168.5 c 128,-1,8
 392 -20 392 -20 206 -20 c 152,-1,9
EndSplineSet
Validated: 19457
EndChar

StartChar: perthousand
Encoding: 8240 8240 140
Width: 2699
GlyphClass: 2
Flags: W
HStem: -20 175<1266.61 1468.52 2101.61 2303.52> 0 21G<417 727.656> 507 174<1285.43 1487.72 2120.43 2322.72> 829 174<376.276 578.571> 1355 175<395.475 597.394> 1490 20G<1136.34 1447>
VStem: 100 251<1031.31 1311.58> 622 251<1047.42 1327.69> 991 251<182.308 462.581> 1513 251<198.419 478.692> 1826 251<182.308 462.581> 2348 251<198.419 478.692>
DStem2: 417 0 718 0 0.434766 0.900544<130.864 1676.77>
LayerCount: 2
Fore
SplineSet
2152 -20 m 0,0,1
 1826 -20 1826 -20 1826 275 c 2,2,-1
 1826 276 l 2,3,4
 1826 681 1826 681 2273 681 c 0,5,6
 2599 681 2599 681 2599 386 c 2,7,-1
 2599 385 l 2,8,9
 2599 -20 2599 -20 2152 -20 c 0,0,1
2198 155 m 0,10,11
 2348 155 2348 155 2348 364 c 2,12,-1
 2348 365 l 2,13,14
 2348 507 2348 507 2220 507 c 0,15,16
 2077 507 2077 507 2077 295 c 2,17,-1
 2077 293 l 2,18,19
 2077 155 2077 155 2198 155 c 0,10,11
1317 -20 m 0,20,21
 991 -20 991 -20 991 275 c 2,22,-1
 991 276 l 2,23,24
 991 681 991 681 1438 681 c 0,25,26
 1764 681 1764 681 1764 386 c 2,27,-1
 1764 385 l 2,28,29
 1764 -20 1764 -20 1317 -20 c 0,20,21
1363 155 m 0,30,31
 1513 155 1513 155 1513 364 c 2,32,-1
 1513 365 l 2,33,34
 1513 507 1513 507 1385 507 c 0,35,36
 1242 507 1242 507 1242 295 c 2,37,-1
 1242 293 l 2,38,39
 1242 155 1242 155 1363 155 c 0,30,31
547 1530 m 0,40,41
 873 1530 873 1530 873 1235 c 2,42,-1
 873 1234 l 2,43,44
 873 829 873 829 426 829 c 0,45,46
 100 829 100 829 100 1124 c 2,47,-1
 100 1125 l 2,48,49
 100 1530 100 1530 547 1530 c 0,40,41
501 1355 m 0,50,51
 351 1355 351 1355 351 1146 c 2,52,-1
 351 1145 l 2,53,54
 351 1003 351 1003 479 1003 c 0,55,56
 622 1003 622 1003 622 1215 c 2,57,-1
 622 1217 l 2,58,59
 622 1355 622 1355 501 1355 c 0,50,51
417 0 m 1,60,-1
 1146 1510 l 1,61,-1
 1447 1510 l 1,62,-1
 718 0 l 1,63,-1
 417 0 l 1,60,-1
EndSplineSet
Validated: 19457
EndChar

StartChar: minute
Encoding: 8242 8242 141
Width: 533
GlyphClass: 2
Flags: W
HStem: 1120 410<209 267>
VStem: 20 493
LayerCount: 2
Fore
SplineSet
209 1530 m 1,0,-1
 513 1530 l 1,1,-1
 267 1120 l 1,2,-1
 20 1120 l 1,3,-1
 209 1530 l 1,0,-1
EndSplineSet
Validated: 19457
EndChar

StartChar: second
Encoding: 8243 8243 142
Width: 937
GlyphClass: 2
Flags: W
HStem: 1120 410<209 267 613 671>
LayerCount: 2
Fore
SplineSet
613 1530 m 1,0,-1
 917 1530 l 1,1,-1
 671 1120 l 1,2,-1
 424 1120 l 1,3,-1
 613 1530 l 1,0,-1
209 1530 m 1,4,-1
 513 1530 l 1,5,-1
 267 1120 l 1,6,-1
 20 1120 l 1,7,-1
 209 1530 l 1,4,-1
EndSplineSet
Validated: 19457
EndChar

StartChar: guilsinglleft
Encoding: 8249 8249 143
Width: 773
GlyphClass: 2
Flags: W
HStem: 1054 353<270 623>
VStem: 100 523
DStem2: 100 859 374 793 0.690413 0.723415<141.428 502.152>
LayerCount: 2
Fore
SplineSet
623 1407 m 1,0,-1
 623 1054 l 1,1,-1
 374 793 l 1,2,-1
 623 545 l 1,3,-1
 623 131 l 1,4,-1
 100 678 l 1,5,-1
 100 859 l 1,6,-1
 623 1407 l 1,0,-1
EndSplineSet
Validated: 19457
EndChar

StartChar: guilsinglright
Encoding: 8250 8250 144
Width: 773
GlyphClass: 2
Flags: W
HStem: 131 353<150 503>
VStem: 150 523
DStem2: 150 484 150 131 0.690413 0.723415<0 360.724>
LayerCount: 2
Fore
SplineSet
150 1407 m 1,0,-1
 673 860 l 1,1,-1
 673 679 l 1,2,-1
 150 131 l 1,3,-1
 150 484 l 1,4,-1
 399 745 l 1,5,-1
 150 993 l 1,6,-1
 150 1407 l 1,0,-1
EndSplineSet
Validated: 19457
EndChar

StartChar: fraction
Encoding: 8260 8260 145
Width: 1149
GlyphClass: 2
Flags: W
DStem2: 10 -143 256 -259 0.420538 0.907275<0 2096.99>
LayerCount: 2
Fore
SplineSet
893 1762 m 1,0,-1
 1139 1645 l 1,1,-1
 256 -259 l 1,2,-1
 10 -143 l 1,3,-1
 893 1762 l 1,0,-1
EndSplineSet
Validated: 1
EndChar

StartChar: Euro
Encoding: 8364 8364 146
Width: 1509
GlyphClass: 2
Flags: W
HStem: -20 184<581.748 897.238> 504 181<10 170 500 951> 812 181<10 170 503 952> 1346 184<630.111 922.506>
VStem: 170 330<244.062 504 685 812 993 1175.5> 1025 334<353.648 509 1111 1240.05>
LayerCount: 2
Fore
SplineSet
655 -20 m 0,0,1
 170 -20 170 -20 170 380 c 2,2,-1
 170 504 l 1,3,-1
 10 504 l 1,4,-1
 10 685 l 1,5,-1
 170 685 l 1,6,-1
 170 812 l 1,7,-1
 10 812 l 1,8,-1
 10 993 l 1,9,-1
 173 993 l 1,10,11
 216 1530 216 1530 873 1530 c 0,12,13
 1358 1530 1358 1530 1358 1111 c 1,14,-1
 1028 1029 l 1,15,16
 1028 1346 1028 1346 771 1346 c 0,17,18
 526 1346 526 1346 503 993 c 1,19,-1
 952 993 l 1,20,-1
 952 812 l 1,21,-1
 500 812 l 1,22,-1
 500 685 l 1,23,-1
 951 685 l 1,24,-1
 951 504 l 1,25,-1
 500 504 l 1,26,-1
 500 384 l 2,27,28
 500 164 500 164 757 164 c 0,29,30
 991 164 991 164 1025 509 c 1,31,-1
 1359 546 l 1,32,33
 1307 -20 1307 -20 655 -20 c 0,0,1
EndSplineSet
Validated: 19457
EndChar

StartChar: afii61248
Encoding: 8453 8453 147
Width: 1903
GlyphClass: 2
Flags: W
HStem: -20 175<1376.44 1507.2> 0 21G<434 744.656> 661 175<1396.92 1527.58> 674 177<375.318 516.374> 1357 173<396.671 516.96> 1490 20G<1153.34 1464>
VStem: 100 270<856.984 1333.69> 532 274<861.312 975 1271 1345.61> 1101 270<162.984 639.688> 1533 270<176.312 653.016>
DStem2: 434 0 735 0 0.434766 0.900544<130.864 1676.77>
LayerCount: 2
Fore
SplineSet
1397 -20 m 0,0,1
 1101 -20 1101 -20 1101 219 c 2,2,-1
 1101 487 l 2,3,4
 1101 836 1101 836 1507 836 c 0,5,6
 1803 836 1803 836 1803 597 c 2,7,-1
 1803 329 l 2,8,9
 1803 -20 1803 -20 1397 -20 c 0,0,1
1446 155 m 0,10,11
 1533 155 1533 155 1533 329 c 2,12,-1
 1533 591 l 2,13,14
 1533 661 1533 661 1459 661 c 0,15,16
 1371 661 1371 661 1371 487 c 2,17,-1
 1371 225 l 2,18,19
 1371 155 1371 155 1446 155 c 0,10,11
434 0 m 1,20,-1
 1163 1510 l 1,21,-1
 1464 1510 l 1,22,-1
 735 0 l 1,23,-1
 434 0 l 1,20,-1
506 1530 m 0,24,25
 806 1530 806 1530 806 1271 c 1,26,-1
 534 1200 l 1,27,28
 534 1357 534 1357 464 1357 c 0,29,30
 370 1357 370 1357 370 1181 c 2,31,-1
 370 919 l 2,32,33
 370 851 370 851 451 851 c 128,-1,34
 532 851 532 851 532 975 c 1,35,-1
 806 1007 l 1,36,37
 806 674 806 674 396 674 c 0,38,39
 100 674 100 674 100 913 c 2,40,-1
 100 1181 l 2,41,42
 100 1530 100 1530 506 1530 c 0,24,25
EndSplineSet
Validated: 19457
EndChar

StartChar: afii61289
Encoding: 8467 8467 148
Width: 1227
GlyphClass: 2
Flags: W
HStem: 0 21G<626 735> 1490 20G<794.5 886.5>
LayerCount: 2
Fore
SplineSet
680 0 m 0,0,1
 572 0 572 0 491 64 c 1,2,-1
 464 21 l 1,3,-1
 100 21 l 1,4,5
 263 184 263 184 360 338 c 1,6,7
 351 408 351 408 351 506 c 128,-1,8
 351 604 351 604 382 742 c 0,9,10
 487 1203 487 1203 651 1403 c 0,11,12
 739 1510 739 1510 850 1510 c 0,13,14
 923 1510 923 1510 985.5 1458 c 128,-1,15
 1048 1406 1048 1406 1048 1261 c 0,16,17
 1048 1169 1048 1169 1017 1025 c 0,18,19
 947 704 947 704 666 292 c 1,20,21
 680 236 680 236 689 236 c 0,22,23
 706 236 706 236 731 280 c 0,24,25
 746 306 746 306 761 339 c 1,26,-1
 1077 339 l 1,27,28
 984 164 984 164 887 82 c 128,-1,29
 790 0 790 0 680 0 c 0,0,1
EndSplineSet
Validated: 19457
EndChar

StartChar: trademark
Encoding: 8482 8482 149
Width: 1911
GlyphClass: 2
Flags: W
HStem: 695 815<307.616 575 866 1135.26 1445.18 1683> 1336 174<156.615 305 575 780>
VStem: 305 270<695 1336> 866 270<695 1260> 1194 161<1026 1251.34> 1413 270<738.647 1260>
LayerCount: 2
Fore
SplineSet
1355 1026 m 1,0,-1
 1194 1026 l 1,1,-1
 1194 1056 l 2,2,3
 1194 1235 1194 1235 1136 1260 c 1,4,-1
 1136 695 l 1,5,-1
 866 695 l 1,6,-1
 866 1316 l 2,7,8
 866 1428 866 1428 788 1510 c 1,9,-1
 1026 1510 l 2,10,11
 1204 1510 1204 1510 1271 1322 c 1,12,13
 1336 1510 1336 1510 1498 1510 c 2,14,-1
 1683 1510 l 1,15,-1
 1683 889 l 2,16,17
 1683 777 1683 777 1761 695 c 1,18,-1
 1464 695 l 1,19,20
 1413 794 1413 794 1413 900 c 2,21,-1
 1413 1260 l 1,22,23
 1355 1235 1355 1235 1355 1056 c 2,24,-1
 1355 1026 l 1,0,-1
100 1250 m 1,25,-1
 100 1452 l 1,26,27
 186 1510 186 1510 335 1510 c 2,28,-1
 780 1510 l 1,29,-1
 780 1336 l 1,30,-1
 575 1336 l 1,31,-1
 575 695 l 1,32,-1
 305 695 l 1,33,-1
 305 1336 l 1,34,35
 196 1336 196 1336 100 1250 c 1,25,-1
EndSplineSet
Validated: 19457
EndChar

StartChar: uni2126
Encoding: 8486 8486 150
Width: 1468
GlyphClass: 2
Flags: W
HStem: 0 183<206.925 397 1071 1265.14> 1346 184<597.789 912.003>
VStem: 140 330<471.995 1184.06> 824 247<183 328.21> 998 330<558.106 1265.94>
LayerCount: 2
Fore
SplineSet
644 0 m 1,0,-1
 457 0 l 2,1,2
 267 0 267 0 110 64 c 1,3,-1
 110 289 l 1,4,5
 240 183 240 183 397 183 c 1,6,-1
 397 241 l 1,7,8
 140 323 140 323 140 610 c 2,9,-1
 140 915 l 2,10,11
 140 1530 140 1530 833 1530 c 0,12,13
 1328 1530 1328 1530 1328 1130 c 2,14,-1
 1328 825 l 2,15,16
 1328 450 1328 450 1071 304 c 1,17,-1
 1071 183 l 1,18,19
 1246 183 1246 183 1358 293 c 1,20,-1
 1358 64 l 1,21,22
 1211 0 1211 0 1011 0 c 2,23,-1
 824 0 l 1,24,-1
 824 411 l 1,25,26
 998 477 998 477 998 827 c 2,27,-1
 998 1126 l 2,28,29
 998 1346 998 1346 741 1346 c 0,30,31
 470 1346 470 1346 470 913 c 2,32,-1
 470 614 l 2,33,34
 470 428 470 428 644 401 c 1,35,-1
 644 0 l 1,0,-1
EndSplineSet
Validated: 19457
EndChar

StartChar: estimated
Encoding: 8494 8494 151
Width: 1279
GlyphClass: 2
Flags: W
HStem: 0 193<453.359 822.793> 533 194<400 876> 995 194<450.243 820.744>
VStem: 50 350<356.599 533 727 838.837>
LayerCount: 2
Fore
SplineSet
638 0 m 0,0,1
 374 0 374 0 212 171 c 128,-1,2
 50 342 50 342 50 598 c 0,3,4
 50 855 50 855 214 1021 c 0,5,6
 380 1189 380 1189 635 1189 c 128,-1,7
 890 1189 890 1189 1046 1036 c 0,8,9
 1229 855 1229 855 1229 533 c 1,10,-1
 400 533 l 1,11,-1
 400 273 l 1,12,13
 500 193 500 193 638 193 c 0,14,15
 857 193 857 193 981 391 c 1,16,-1
 1154 290 l 1,17,18
 1024 111 1024 111 898.5 55.5 c 128,-1,19
 773 0 773 0 638 0 c 0,0,1
876 727 m 1,20,-1
 876 918 l 1,21,22
 773 995 773 995 636 995 c 0,23,24
 497 995 497 995 400 917 c 1,25,-1
 400 727 l 1,26,-1
 876 727 l 1,20,-1
EndSplineSet
Validated: 19457
EndChar

StartChar: partialdiff
Encoding: 8706 8706 152
Width: 1305
GlyphClass: 2
Flags: W
HStem: -20 273<434.109 656.396> 822 261<571.868 817.381> 1257 273<492.596 817.116>
VStem: 100 309<274.958 624.749>
LayerCount: 2
Fore
SplineSet
522 -20 m 0,0,1
 252 -20 252 -20 153 171 c 0,2,3
 100 273 100 273 100 416 c 0,4,5
 100 673 100 673 254 878 c 128,-1,6
 408 1083 408 1083 680 1083 c 0,7,8
 799 1083 799 1083 896 1024 c 1,9,10
 885 1128 885 1128 855 1173 c 0,11,12
 799 1257 799 1257 676 1257 c 0,13,14
 521 1257 521 1257 370 1132 c 1,15,-1
 370 1443 l 1,16,17
 516 1530 516 1530 713 1530 c 0,18,19
 1030 1530 1030 1530 1146 1271 c 0,20,21
 1205 1139 1205 1139 1205 950 c 0,22,23
 1205 563 1205 563 1022 272 c 0,24,25
 841 -20 841 -20 522 -20 c 0,0,1
869 699 m 1,26,27
 848 756 848 756 805 788 c 0,28,29
 759 822 759 822 705 822 c 0,30,31
 580 822 580 822 500 706 c 0,32,33
 409 572 409 572 409 432 c 128,-1,34
 409 292 409 292 467 266 c 0,35,36
 498 253 498 253 535 253 c 0,37,38
 642 253 642 253 737 376 c 128,-1,39
 832 499 832 499 869 699 c 1,26,27
EndSplineSet
Validated: 19457
EndChar

StartChar: uni2206
Encoding: 8710 8710 153
Width: 1384
GlyphClass: 2
Flags: W
HStem: 0 177<282 988> 1490 20G<536.927 846.086>
DStem2: 839 1510 628 1197 0.333963 -0.942586<224.563 1306.23>
LayerCount: 2
Fore
SplineSet
10 0 m 1,0,-1
 544 1510 l 1,1,-1
 839 1510 l 1,2,-1
 1374 0 l 1,3,-1
 10 0 l 1,0,-1
628 1197 m 1,4,-1
 282 177 l 1,5,-1
 988 177 l 1,6,-1
 628 1197 l 1,4,-1
EndSplineSet
Validated: 1
EndChar

StartChar: product
Encoding: 8719 8719 154
Width: 1426
GlyphClass: 2
Flags: W
HStem: -410 20G<150 470 956 1276> 1323 187<470 956>
VStem: 150 320<-410 1323> 956 320<-411 1323>
LayerCount: 2
Fore
SplineSet
150 1510 m 1,0,-1
 1276 1510 l 1,1,-1
 1276 -411 l 1,2,-1
 956 -411 l 1,3,-1
 956 1323 l 1,4,-1
 470 1323 l 1,5,-1
 470 -410 l 1,6,-1
 150 -410 l 1,7,-1
 150 1510 l 1,0,-1
EndSplineSet
Validated: 19457
EndChar

StartChar: summation
Encoding: 8721 8721 155
Width: 1450
GlyphClass: 2
Flags: W
HStem: -410 187<575 1216.97> 1323 187<588 1262>
DStem2: 588 1323 100 1510 0.539895 -0.841733<0 692.308> 101 -410 575 -223 0.520993 0.853561<406.567 1151.65>
LayerCount: 2
Fore
SplineSet
1350 -105 m 1,0,1
 1350 -344 l 1,2,3
 1192 -410 1192 -410 990 -410 c 2,4,-1
 101 -410 l 1,5,-1
 701 573 l 1,6,-1
 100 1510 l 1,7,-1
 1262 1510 l 1,8,-1
 1262 1323 l 1,9,-1
 588 1323 l 1,10,-1
 1066 578 l 1,11,-1
 1064 580 l 1,12,-1
 575 -223 l 1,13,-1
 993 -223 l 2,14,15
 1185 -223 1185 -223 1350 -105 c 1,0,1
EndSplineSet
Validated: 19457
EndChar

StartChar: minus
Encoding: 8722 8722 156
Width: 1184
GlyphClass: 2
Flags: W
HStem: 642 251<100 1084>
LayerCount: 2
Fore
SplineSet
100 893 m 1,0,-1
 1084 893 l 1,1,-1
 1084 642 l 1,2,-1
 100 642 l 1,3,-1
 100 893 l 1,0,-1
EndSplineSet
Validated: 19457
EndChar

StartChar: uni2215
Encoding: 8725 8725 157
Width: 1149
GlyphClass: 2
Flags: W
DStem2: 10 -143 256 -259 0.420538 0.907275<0 2096.99>
LayerCount: 2
Fore
SplineSet
893 1762 m 1,0,-1
 1139 1645 l 1,1,-1
 256 -259 l 1,2,-1
 10 -143 l 1,3,-1
 893 1762 l 1,0,-1
EndSplineSet
Validated: 1
EndChar

StartChar: uni2219
Encoding: 8729 8729 158
Width: 412
GlyphClass: 2
Flags: W
HStem: 576 376<69.4517 342.548>
VStem: 20 372<625.983 902.017>
LayerCount: 2
Fore
SplineSet
206 952 m 128,-1,1
 392 952 392 952 392 764 c 128,-1,2
 392 576 392 576 206 576 c 152,-1,3
 20 576 20 576 20 764 c 128,-1,0
 20 952 20 952 206 952 c 128,-1,1
EndSplineSet
Validated: 19457
EndChar

StartChar: radical
Encoding: 8730 8730 159
Width: 1291
GlyphClass: 2
Flags: W
HStem: 0 21G<426.679 722.336> 642 166<50 199> 1353 157<1078 1241>
DStem2: 585 442 717 0 0.257796 0.966199<0 1007.3>
LayerCount: 2
Fore
SplineSet
434 0 m 1,0,-1
 199 642 l 1,1,-1
 50 642 l 1,2,-1
 50 808 l 1,3,-1
 462 808 l 1,4,-1
 585 442 l 1,5,-1
 871 1510 l 1,6,-1
 1241 1510 l 1,7,-1
 1241 1353 l 1,8,-1
 1078 1353 l 1,9,-1
 717 0 l 1,10,-1
 434 0 l 1,0,-1
EndSplineSet
Validated: 19457
EndChar

StartChar: infinity
Encoding: 8734 8734 160
Width: 1492
GlyphClass: 2
Flags: W
HStem: 379 199<342.789 604.27 887.73 1149.21> 934 199<342.789 604.27 887.73 1149.21>
VStem: 100 196<625.189 886.811> 648 196<622.5 889.5> 1196 196<625.189 886.811>
CounterMasks: 1 38
LayerCount: 2
Fore
SplineSet
472 934 m 128,-1,1
 296 934 296 934 296 756 c 128,-1,2
 296 578 296 578 472 578 c 128,-1,3
 648 578 648 578 648 756 c 128,-1,0
 648 934 648 934 472 934 c 128,-1,1
1020 1133 m 0,4,5
 1392 1133 1392 1133 1392 756 c 128,-1,6
 1392 379 1392 379 1020 379 c 0,7,8
 839 379 839 379 746 468 c 1,9,10
 653 379 653 379 472 379 c 0,11,12
 100 379 100 379 100 756 c 128,-1,13
 100 1133 100 1133 472 1133 c 0,14,15
 653 1133 653 1133 746 1044 c 1,16,17
 839 1133 839 1133 1020 1133 c 0,4,5
844 756 m 128,-1,19
 844 578 844 578 1020 578 c 128,-1,20
 1196 578 1196 578 1196 756 c 128,-1,21
 1196 934 1196 934 1020 934 c 128,-1,18
 844 934 844 934 844 756 c 128,-1,19
EndSplineSet
Validated: 19457
EndChar

StartChar: approxequal
Encoding: 8776 8776 161
Width: 1228
GlyphClass: 2
Flags: W
HStem: 349 209<696.371 1005> 558 207<219 515.473> 830 209<696.371 1005> 1039 207<219 515.473>
VStem: 100 320<418 553.208 899 1034.21> 808 320<569.348 696 1050.35 1177>
LayerCount: 2
Fore
SplineSet
338 765 m 24,0,1
 571 765 571 765 694 605 c 0,2,3
 730 558 730 558 749 558 c 0,4,5
 808 558 808 558 808 786 c 1,6,-1
 1128 696 l 1,7,8
 1128 349 1128 349 882 349 c 24,9,10
 621 349 621 349 521 506 c 0,11,12
 488 558 488 558 469 558 c 0,13,14
 420 558 420 558 420 328 c 1,15,-1
 100 418 l 1,16,17
 100 765 100 765 338 765 c 24,0,1
338 1246 m 24,18,19
 571 1246 571 1246 694 1086 c 0,20,21
 730 1039 730 1039 749 1039 c 0,22,23
 808 1039 808 1039 808 1267 c 1,24,-1
 1128 1177 l 1,25,26
 1128 830 1128 830 882 830 c 24,27,28
 621 830 621 830 521 987 c 0,29,30
 488 1039 488 1039 469 1039 c 0,31,32
 420 1039 420 1039 420 809 c 1,33,-1
 100 899 l 1,34,35
 100 1246 100 1246 338 1246 c 24,18,19
EndSplineSet
Validated: 19457
EndChar

StartChar: notequal
Encoding: 8800 8800 162
Width: 1203
GlyphClass: 2
Flags: W
HStem: 0 21G<164 349.238> 420 251<100 358 651 1103> 868 251<100 565 858 1103> 1490 20G<852.742 1040>
DStem2: 164 0 340 0 0.420582 0.907255<74.0224 462.64 813.591 956.15 1307.1 1663.52>
LayerCount: 2
Fore
SplineSet
164 0 m 1,0,-1
 358 420 l 1,1,-1
 100 420 l 1,2,-1
 100 671 l 1,3,-1
 474 671 l 1,4,-1
 565 868 l 1,5,-1
 100 868 l 1,6,-1
 100 1119 l 1,7,-1
 681 1119 l 1,8,-1
 862 1510 l 1,9,-1
 1040 1510 l 1,10,-1
 858 1119 l 1,11,-1
 1103 1119 l 1,12,-1
 1103 868 l 1,13,-1
 742 868 l 1,14,-1
 651 671 l 1,15,-1
 1103 671 l 1,16,-1
 1103 420 l 1,17,-1
 534 420 l 1,18,-1
 340 0 l 1,19,-1
 164 0 l 1,0,-1
EndSplineSet
Validated: 19457
EndChar

StartChar: lessequal
Encoding: 8804 8804 163
Width: 1156
GlyphClass: 2
Flags: W
HStem: 0 251<150 1006> 270 364<642 1006> 1491 20G<973.452 1006>
DStem2: 150 985 501 932 0.852 0.523542<271.304 853.915> 501 932 150 796 0.852 -0.523542<0 586.275>
LayerCount: 2
Fore
SplineSet
150 0 m 1,0,-1
 150 251 l 1,1,-1
 1006 251 l 1,2,-1
 1006 0 l 1,3,-1
 150 0 l 1,0,-1
1006 1511 m 1,4,-1
 1006 1223 l 1,5,-1
 501 932 l 1,6,-1
 1006 634 l 1,7,-1
 1006 270 l 1,8,-1
 150 796 l 1,9,-1
 150 985 l 1,10,-1
 1006 1511 l 1,4,-1
EndSplineSet
Validated: 19457
EndChar

StartChar: greaterequal
Encoding: 8805 8805 164
Width: 1156
GlyphClass: 2
Flags: W
HStem: 0 251<150 1006> 1147 364<150 514>
DStem2: 150 1511 150 1147 0.852 -0.523542<190.569 776.845> 150 558 150 270 0.852 0.523542<0 582.611>
LayerCount: 2
Fore
SplineSet
150 0 m 1,0,-1
 150 251 l 1,1,-1
 1006 251 l 1,2,-1
 1006 0 l 1,3,-1
 150 0 l 1,0,-1
150 1511 m 1,4,-1
 1006 985 l 1,5,-1
 1006 796 l 1,6,-1
 150 270 l 1,7,-1
 150 558 l 1,8,-1
 655 849 l 1,9,-1
 150 1147 l 1,10,-1
 150 1511 l 1,4,-1
EndSplineSet
Validated: 19457
EndChar

StartChar: lozenge
Encoding: 9674 9674 165
Width: 1259
GlyphClass: 2
Flags: W
HStem: 0 21G<613.851 644.115> 1491 20G<615.511 644.519>
DStem2: 70 738 403 781 0.586676 0.809822<230.185 566.313> 403 781 70 738 0.603795 -0.797139<0 426.009> 630 1511 606 1049 0.587484 -0.809236<359.767 787.809> 661 442 629 0 0.602924 0.797798<0 327.001>
LayerCount: 2
Fore
SplineSet
661 442 m 1,0,-1
 858 703 l 1,1,-1
 606 1049 l 1,2,-1
 403 781 l 1,3,-1
 661 442 l 1,0,-1
629 0 m 1,4,-1
 70 738 l 1,5,-1
 630 1511 l 1,6,-1
 1189 741 l 1,7,-1
 629 0 l 1,4,-1
EndSplineSet
Validated: 19457
EndChar

StartChar: s
Encoding: 115 115 167
Width: 1128
Flags: W
HStem: -20 176<419.11 672.996> 511 181<424.633 683.508> 944 176<443.507 822.821>
VStem: 100 310<717.514 913.949> 728 310<214.473 470.595>
LayerCount: 2
Fore
SplineSet
459 -20 m 0,0,1
 60 -20 60 -20 60 253 c 9,2,-1
 370 329 l 1,3,4
 370 156 370 156 553 156 c 0,5,6
 728 156 728 156 728 362 c 2,7,-1
 728 364 l 2,8,9
 728 511 728 511 556 511 c 0,10,11
 100 511 100 511 100 754 c 2,12,-1
 100 755 l 2,13,14
 100 1120 100 1120 647 1120 c 0,15,16
 998 1120 998 1120 998 817 c 1,17,-1
 688 740 l 1,18,19
 688 944 688 944 545 944 c 0,20,21
 410 944 410 944 410 787 c 2,22,-1
 410 785 l 2,23,24
 410 692 410 692 558 692 c 24,25,26
 1038 692 1038 692 1038 381 c 2,27,-1
 1038 380 l 2,28,29
 1038 -20 1038 -20 459 -20 c 0,0,1
EndSplineSet
Validated: 19457
EndChar

StartChar: M
Encoding: 77 77 168
Width: 1714
Flags: W
HStem: 0 21G<150 470 1275.5 1654> 1490 20G<60 598.5 1093 1564>
VStem: 150 320<0 1265.97> 697 320<637 976.233> 1244 320<90.2539 1270>
CounterMasks: 1 38
LayerCount: 2
Fore
SplineSet
150 0 m 1,0,-1
 150 1193 l 2,1,2
 150 1378 150 1378 60 1510 c 1,3,-1
 382 1510 l 2,4,5
 815 1510 815 1510 847 984 c 1,6,-1
 857 984 l 1,7,8
 882 1510 882 1510 1304 1510 c 2,9,-1
 1564 1510 l 1,10,-1
 1564 317 l 2,11,12
 1564 143 1564 143 1654 0 c 1,13,-1
 1307 0 l 1,14,15
 1244 138 1244 138 1244 317 c 2,16,-1
 1244 1270 l 1,17,18
 1017 1147 1017 1147 1017 637 c 1,19,-1
 697 637 l 1,20,21
 697 1147 697 1147 465 1269 c 1,22,23
 470 1229 470 1229 470 1192 c 2,24,-1
 470 0 l 1,25,-1
 150 0 l 1,0,-1
EndSplineSet
Validated: 19457
EndChar

StartChar: N
Encoding: 78 78 169
Width: 1426
Flags: W
HStem: 0 21G<150 470 965 1275.01> 1274 236<465 631.617>
VStem: 150 320<0 1268.88> 965 311<0 644.154 1103 1510>
LayerCount: 2
Fore
SplineSet
150 0 m 1,0,-1
 150 1193 l 2,1,2
 150 1387 150 1387 60 1510 c 1,3,-1
 360 1510 l 2,4,5
 885 1510 885 1510 955 1103 c 1,6,-1
 965 1103 l 1,7,-1
 965 1510 l 1,8,-1
 1276 1510 l 1,9,-1
 1275 0 l 1,10,-1
 965 0 l 1,11,12
 965 1274 965 1274 465 1274 c 1,13,14
 470 1237 470 1237 470 1192 c 2,15,-1
 470 0 l 1,16,-1
 150 0 l 1,0,-1
EndSplineSet
Validated: 19457
EndChar

StartChar: W
Encoding: 87 87 170
Width: 1916
Flags: W
HStem: -20 212<490.1 660.286> -20 172<1172.32 1371.72> 1080 20G<818 1138> 1490 20G<60 438 1466 1786>
VStem: 150 320<205.677 1426.21> 818 320<476.499 1100> 1466 320<312.064 1510>
LayerCount: 2
Fore
SplineSet
514 -20 m 0,0,1
 151 -20 151 -20 150 297 c 1,2,-1
 150 1192 l 2,3,4
 150 1383 150 1383 60 1510 c 1,5,-1
 406 1510 l 1,6,7
 470 1376 470 1376 470 1194 c 2,8,-1
 470 357 l 2,9,10
 470 192 470 192 549 192 c 24,11,12
 818 192 818 192 818 999 c 2,13,-1
 818 1100 l 1,14,-1
 1138 1100 l 1,15,-1
 1138 352 l 2,16,17
 1138 152 1138 152 1257 152 c 24,18,19
 1466 152 1466 152 1466 561 c 2,20,-1
 1466 1510 l 1,21,-1
 1786 1510 l 1,22,-1
 1786 595 l 2,23,24
 1786 -19 1786 -19 1182 -20 c 0,25,26
 894 -20 894 -20 843 246 c 1,27,28
 752 -20 752 -20 514 -20 c 0,0,1
EndSplineSet
Validated: 19457
EndChar

StartChar: A
Encoding: 65 65 171
Width: 1406
Flags: W
HStem: 0 21G<130 450 967.5 1346> 684 188<450 936> 1347 183<567.224 858.394>
VStem: 130 320<0 684 872 1184.06> 936 320<89.1016 684 872 1266.6>
LayerCount: 2
Fore
SplineSet
693 1347 m 152,-1,1
 450 1347 450 1347 450 915 c 2,2,-1
 450 872 l 1,3,-1
 936 872 l 1,4,-1
 936 1127 l 2,5,0
 936 1347 936 1347 693 1347 c 152,-1,1
130 0 m 1,6,-1
 130 915 l 2,7,8
 130 1530 130 1530 771 1530 c 0,9,10
 1256 1530 1256 1530 1256 1131 c 2,11,-1
 1256 318 l 2,12,13
 1256 145 1256 145 1346 0 c 1,14,-1
 999 0 l 1,15,16
 936 136 936 136 936 314 c 2,17,-1
 936 684 l 1,18,-1
 450 684 l 1,19,-1
 450 0 l 1,20,-1
 130 0 l 1,6,-1
EndSplineSet
Validated: 19457
EndChar

StartChar: onequarter
Encoding: 188 188 172
Width: 1828
Flags: W
HStem: 0 21G<254 565.642 1408 1678> 208 174<1318 1408> 1335 175<100 218>
VStem: 218 270<634 1334.02> 1048 270<382 876> 1408 270<0 208 382 687>
DStem2: 254 0 556 0 0.434766 0.900544<131.299 1676.77>
LayerCount: 2
Fore
SplineSet
100 1510 m 1,0,-1
 437 1510 l 1,1,2
 488 1423 488 1423 488 1305 c 2,3,-1
 488 634 l 1,4,-1
 218 634 l 1,5,-1
 218 1304 l 2,6,7
 218 1320 218 1320 216 1335 c 1,8,-1
 100 1335 l 1,9,-1
 100 1510 l 1,0,-1
1678 0 m 1,10,-1
 1408 0 l 1,11,-1
 1408 208 l 1,12,-1
 1048 208 l 1,13,-1
 1048 876 l 1,14,-1
 1318 876 l 1,15,-1
 1318 382 l 1,16,-1
 1408 382 l 1,17,-1
 1408 687 l 1,18,-1
 1678 687 l 1,19,-1
 1678 0 l 1,10,-1
254 0 m 1,20,-1
 983 1510 l 1,21,-1
 1284 1510 l 1,22,-1
 556 0 l 1,23,-1
 254 0 l 1,20,-1
EndSplineSet
Validated: 19457
EndChar

StartChar: onehalf
Encoding: 189 189 173
Width: 1785
Flags: W
HStem: 0 174<1246 1554.45> 325 175<1259.76 1340.57> 702 174<1103.3 1355.33> 1335 175<100 218>
VStem: 218 270<634 1334.02> 971 275<174 304.688> 1365 270<516.773 692.846>
DStem2: 254 0 556 0 0.434766 0.900544<131.299 1676.77>
LayerCount: 2
Fore
SplineSet
971 0 m 1,0,1
 971 500 971 500 1269 500 c 0,2,3
 1365 500 1365 500 1365 626 c 2,4,-1
 1365 627 l 2,5,6
 1365 702 1365 702 1287 702 c 2,7,-1
 1270 702 l 2,8,9
 1149 702 1149 702 1035 614 c 1,10,-1
 1035 832 l 1,11,12
 1171 876 1171 876 1285 876 c 2,13,-1
 1337 876 l 2,14,15
 1635 876 1635 876 1635 628 c 2,16,-1
 1635 627 l 2,17,18
 1635 325 1635 325 1300 325 c 0,19,20
 1246 325 1246 325 1246 174 c 1,21,-1
 1391 174 l 2,22,23
 1528 174 1528 174 1627 276 c 1,24,-1
 1627 49 l 1,25,26
 1524 0 1524 0 1391 0 c 2,27,-1
 971 0 l 1,0,1
100 1510 m 1,28,-1
 437 1510 l 1,29,30
 488 1423 488 1423 488 1305 c 2,31,-1
 488 634 l 1,32,-1
 218 634 l 1,33,-1
 218 1304 l 2,34,35
 218 1320 218 1320 216 1335 c 1,36,-1
 100 1335 l 1,37,-1
 100 1510 l 1,28,-1
254 0 m 1,38,-1
 983 1510 l 1,39,-1
 1284 1510 l 1,40,-1
 556 0 l 1,41,-1
 254 0 l 1,38,-1
EndSplineSet
Validated: 19457
EndChar

StartChar: threequarters
Encoding: 190 190 174
Width: 2051
Flags: W
HStem: 0 21G<477 788.642 1631 1901> 208 174<1541 1631> 635 173<389.969 516.775> 1027 175<296 469.939> 1336 174<276.549 485.596>
VStem: 534 270<824 1021.5> 1271 270<382 876> 1631 270<0 208 382 687>
DStem2: 477 0 779 0 0.434766 0.900544<131.299 1676.77>
LayerCount: 2
Fore
SplineSet
454 1510 m 2,0,1
 468 1510 l 2,2,3
 754 1510 754 1510 754 1320 c 2,4,-1
 754 1317 l 2,5,6
 754 1220 754 1220 667 1159 c 1,7,8
 804 1110 804 1110 804 984 c 2,9,-1
 804 971 l 2,10,11
 804 635 804 635 400 635 c 0,12,13
 100 635 100 635 100 901 c 1,14,-1
 370 975 l 1,15,16
 370 808 370 808 452 808 c 128,-1,17
 534 808 534 808 534 952 c 2,18,-1
 534 964 l 2,19,20
 534 1027 534 1027 456 1027 c 2,21,-1
 296 1027 l 1,22,-1
 296 1202 l 1,23,24
 490 1202 490 1202 490 1295 c 2,25,-1
 490 1299 l 2,26,27
 490 1336 490 1336 443 1336 c 2,28,-1
 439 1336 l 2,29,30
 329 1336 329 1336 204 1249 c 1,31,-1
 204 1466 l 1,32,33
 325 1510 325 1510 454 1510 c 2,0,1
1901 0 m 1,34,-1
 1631 0 l 1,35,-1
 1631 208 l 1,36,-1
 1271 208 l 1,37,-1
 1271 876 l 1,38,-1
 1541 876 l 1,39,-1
 1541 382 l 1,40,-1
 1631 382 l 1,41,-1
 1631 687 l 1,42,-1
 1901 687 l 1,43,-1
 1901 0 l 1,34,-1
477 0 m 1,44,-1
 1206 1510 l 1,45,-1
 1507 1510 l 1,46,-1
 779 0 l 1,47,-1
 477 0 l 1,44,-1
EndSplineSet
Validated: 19457
EndChar

StartChar: AE
Encoding: 198 198 175
Width: 1917
Flags: W
HStem: 0 187<1256 1757.32> 667 188<450 936 1256 1738> 1323 187<1218 1738> 1347 183<567.224 860.352>
VStem: 130 320<0 667 855 1184.06> 936 320<187 667 855 1273.47>
LayerCount: 2
Fore
SplineSet
130 0 m 1,0,-1
 130 915 l 2,1,2
 130 1530 130 1530 771 1530 c 0,3,4
 880 1530 880 1530 964 1510 c 1,5,-1
 1738 1510 l 1,6,-1
 1738 1323 l 1,7,-1
 1218 1323 l 1,8,9
 1256 1243 1256 1243 1256 1131 c 2,10,-1
 1256 855 l 1,11,-1
 1738 855 l 1,12,-1
 1738 667 l 1,13,-1
 1256 667 l 1,14,-1
 1256 187 l 1,15,-1
 1527 187 l 2,16,17
 1723 187 1723 187 1887 302 c 1,18,-1
 1887 66 l 1,19,20
 1730 0 1730 0 1527 0 c 2,21,-1
 936 0 l 1,22,-1
 936 667 l 1,23,-1
 450 667 l 1,24,-1
 450 0 l 1,25,-1
 130 0 l 1,0,-1
693 1347 m 128,-1,27
 450 1347 450 1347 450 915 c 2,28,-1
 450 855 l 1,29,-1
 936 855 l 1,30,-1
 936 1127 l 2,31,26
 936 1347 936 1347 693 1347 c 128,-1,27
EndSplineSet
Validated: 19457
EndChar

StartChar: germandbls
Encoding: 223 223 176
Width: 1276
Flags: W
HStem: 0 167<579 735.1> 746 165<579 683.752> 1366 164<552.193 745.035>
VStem: 150 300<0 1213.32> 778 299<1049.13 1335.69> 866 310<306.716 660.245>
LayerCount: 2
Fore
SplineSet
150 0 m 1,0,-1
 150 917 l 2,1,2
 150 1530 150 1530 681 1530 c 0,3,4
 1077 1530 1077 1530 1077 1224 c 2,5,-1
 1077 1222 l 2,6,7
 1077 1003 1077 1003 849 882 c 1,8,9
 1176 809 1176 809 1176 570 c 2,10,-1
 1176 568 l 2,11,12
 1176 1 1176 1 579 0 c 1,13,-1
 579 167 l 17,14,15
 866 167 866 167 866 533 c 2,16,-1
 866 535 l 2,17,18
 866 734 866 734 579 746 c 1,19,-1
 579 911 l 1,20,21
 778 950 778 950 778 1176 c 2,22,-1
 778 1206 l 2,23,24
 778 1366 778 1366 657 1366 c 0,25,26
 450 1366 450 1366 450 914 c 2,27,-1
 450 0 l 1,28,-1
 150 0 l 1,0,-1
EndSplineSet
Validated: 19457
EndChar

StartChar: Eth
Encoding: 208 208 177
Width: 1408
Flags: W
HStem: 0 187<470 833.719> 665 168<40 150 470 719> 1323 187<458 885.821>
VStem: 150 320<187 665 833 1320.55> 968 330<346.304 1246.5>
LayerCount: 2
Fore
SplineSet
719 833 m 1,0,-1
 719 665 l 1,1,-1
 470 665 l 1,2,-1
 470 187 l 1,3,-1
 698 187 l 2,4,5
 968 187 968 187 968 616 c 2,6,-1
 968 1106 l 2,7,8
 968 1323 968 1323 710 1323 c 2,9,-1
 458 1323 l 1,10,11
 470 1258 470 1258 470 1187 c 2,12,-1
 470 833 l 1,13,-1
 719 833 l 1,0,-1
150 0 m 1,14,-1
 150 665 l 1,15,-1
 40 665 l 1,16,-1
 40 833 l 1,17,-1
 150 833 l 1,18,-1
 150 1193 l 2,19,20
 150 1370 150 1370 60 1510 c 1,21,-1
 813 1510 l 2,22,23
 1298 1510 1298 1510 1298 1111 c 2,24,-1
 1298 615 l 2,25,26
 1298 0 1298 0 621 0 c 2,27,-1
 150 0 l 1,14,-1
EndSplineSet
Validated: 19457
EndChar

StartChar: Dcroat
Encoding: 272 272 178
Width: 1408
Flags: W
HStem: 0 187<470 833.719> 665 168<40 150 470 719> 1323 187<458 885.821>
VStem: 150 320<187 665 833 1320.55> 968 330<346.304 1246.5>
LayerCount: 2
Fore
SplineSet
719 833 m 1,0,-1
 719 665 l 1,1,-1
 470 665 l 1,2,-1
 470 187 l 1,3,-1
 698 187 l 2,4,5
 968 187 968 187 968 616 c 2,6,-1
 968 1106 l 2,7,8
 968 1323 968 1323 710 1323 c 2,9,-1
 458 1323 l 1,10,11
 470 1258 470 1258 470 1187 c 2,12,-1
 470 833 l 1,13,-1
 719 833 l 1,0,-1
150 0 m 1,14,-1
 150 665 l 1,15,-1
 40 665 l 1,16,-1
 40 833 l 1,17,-1
 150 833 l 1,18,-1
 150 1193 l 2,19,20
 150 1370 150 1370 60 1510 c 1,21,-1
 813 1510 l 2,22,23
 1298 1510 1298 1510 1298 1111 c 2,24,-1
 1298 615 l 2,25,26
 1298 0 1298 0 621 0 c 2,27,-1
 150 0 l 1,14,-1
EndSplineSet
Validated: 19457
EndChar

StartChar: Hbar
Encoding: 294 294 179
Width: 1426
Flags: W
HStem: 0 21G<150 470 987.5 1366> 665 188<470 956> 1178 168<40 132 470 956 1276 1386> 1490 20G<60 423.5 956 1276>
VStem: 150 320<0 665 853 1178> 956 320<88.7146 665 853 1178 1346 1510>
LayerCount: 2
Fore
SplineSet
150 0 m 1,0,-1
 150 1178 l 1,1,-1
 40 1178 l 1,2,-1
 40 1346 l 1,3,-1
 132 1346 l 1,4,5
 110 1435 110 1435 60 1510 c 1,6,-1
 406 1510 l 1,7,8
 441 1434 441 1434 457 1346 c 1,9,-1
 956 1346 l 1,10,-1
 956 1510 l 1,11,-1
 1276 1510 l 1,12,-1
 1276 1346 l 1,13,-1
 1386 1346 l 1,14,-1
 1386 1178 l 1,15,-1
 1276 1178 l 1,16,-1
 1276 317 l 2,17,18
 1276 138 1276 138 1366 0 c 1,19,-1
 1019 0 l 1,20,21
 956 146 956 146 956 315 c 2,22,-1
 956 665 l 1,23,-1
 470 665 l 1,24,-1
 470 0 l 1,25,-1
 150 0 l 1,0,-1
956 1178 m 1,26,-1
 470 1178 l 1,27,-1
 470 853 l 1,28,-1
 956 853 l 1,29,-1
 956 1178 l 1,26,-1
EndSplineSet
Validated: 19457
EndChar

StartChar: Eng
Encoding: 330 330 180
Width: 1426
Flags: W
HStem: -430 21G<755 1015.5> 0 21G<150 470> 1274 236<465 647.13>
VStem: 150 320<0 1268.88> 965 311<11.7842 799.391 1103 1510>
LayerCount: 2
Fore
SplineSet
150 0 m 1,0,-1
 150 1193 l 2,1,2
 150 1387 150 1387 60 1510 c 1,3,-1
 360 1510 l 2,4,5
 885 1510 885 1510 955 1103 c 1,6,-1
 965 1103 l 1,7,-1
 965 1510 l 1,8,-1
 1276 1510 l 1,9,-1
 1276 325 l 6,10,11
 1276 -302 1276 -302 755 -430 c 5,12,-1
 755 -243 l 5,13,14
 964 -115 964 -115 964 314 c 4,15,16
 964 1274 964 1274 465 1274 c 1,17,18
 470 1237 470 1237 470 1192 c 2,19,-1
 470 0 l 1,20,-1
 150 0 l 1,0,-1
EndSplineSet
Validated: 19457
EndChar

StartChar: OE
Encoding: 338 338 181
Width: 1959
Flags: W
HStem: -20 184<525.997 841.752> 0 187<1298 1799.32> 667 188<1298 1780> 1323 187<1259 1780> 1346 184<567.789 887.873>
VStem: 110 330<244.062 1184.06> 968 330<316.649 667 855 1268.44>
LayerCount: 2
Fore
SplineSet
605 -20 m 0,0,1
 110 -20 110 -20 110 380 c 2,2,-1
 110 915 l 2,3,4
 110 1530 110 1530 803 1530 c 0,5,6
 914 1530 914 1530 1000 1510 c 1,7,-1
 1780 1510 l 1,8,-1
 1780 1323 l 1,9,-1
 1259 1323 l 1,10,11
 1298 1242 1298 1242 1298 1130 c 2,12,-1
 1298 855 l 1,13,-1
 1780 855 l 1,14,-1
 1780 667 l 1,15,-1
 1298 667 l 1,16,-1
 1298 595 l 1,17,-1
 1298 187 l 1,18,-1
 1569 187 l 2,19,20
 1765 187 1765 187 1929 302 c 1,21,-1
 1929 66 l 1,22,23
 1772 0 1772 0 1569 0 c 2,24,-1
 978 0 l 1,25,-1
 978 43 l 1,26,27
 827 -20 827 -20 605 -20 c 0,0,1
697 164 m 0,28,29
 968 164 968 164 968 597 c 2,30,-1
 968 1126 l 2,31,32
 968 1346 968 1346 711 1346 c 0,33,34
 440 1346 440 1346 440 913 c 2,35,-1
 440 384 l 2,36,37
 440 164 440 164 697 164 c 0,28,29
EndSplineSet
Validated: 19457
EndChar

StartChar: Oslash
Encoding: 216 216 182
Width: 1408
Flags: W
HStem: -20 184<512.301 842.848> 1346 184<565.152 896.144>
VStem: 110 320<410 1184.06> 978 320<325.938 1099>
DStem2: 178 -27 290 -93 0.499799 0.866141<0 129.076 504.453 1375.11 1751.85 1879.57>
LayerCount: 2
Fore
SplineSet
605 -20 m 0,0,1
 457 -20 457 -20 353 16 c 1,2,-1
 290 -93 l 1,3,-1
 178 -27 l 1,4,-1
 238 77 l 1,5,6
 110 177 110 177 110 380 c 2,7,-1
 110 915 l 2,8,9
 110 1530 110 1530 803 1530 c 0,10,11
 952 1530 952 1530 1056 1494 c 1,12,-1
 1118 1602 l 1,13,-1
 1230 1536 l 1,14,-1
 1171 1433 l 1,15,16
 1298 1333 1298 1333 1298 1130 c 2,17,-1
 1298 595 l 2,18,19
 1298 -20 1298 -20 605 -20 c 0,0,1
697 164 m 0,20,21
 978 164 978 164 978 597 c 2,22,-1
 978 1099 l 1,23,-1
 479 235 l 1,24,25
 545 164 545 164 697 164 c 0,20,21
430 410 m 1,26,-1
 929 1274 l 1,27,28
 864 1346 864 1346 711 1346 c 0,29,30
 430 1346 430 1346 430 913 c 2,31,-1
 430 410 l 1,26,-1
EndSplineSet
Validated: 19457
EndChar

StartChar: Tbar
Encoding: 358 358 183
Width: 1160
Flags: W
HStem: 0 21G<420 740> 659 168<217 420 740 943> 1323 187<147.344 420 740 1150>
VStem: 420 320<0 659 827 1323>
LayerCount: 2
Fore
SplineSet
420 0 m 1,0,-1
 420 659 l 1,1,-1
 217 659 l 1,2,-1
 217 827 l 1,3,-1
 420 827 l 1,4,-1
 420 1323 l 1,5,-1
 370 1323 l 2,6,7
 195 1323 195 1323 10 1209 c 1,8,-1
 10 1439 l 1,9,10
 181 1510 181 1510 370 1510 c 2,11,-1
 1150 1510 l 1,12,-1
 1150 1323 l 1,13,-1
 740 1323 l 1,14,-1
 740 827 l 1,15,-1
 943 827 l 1,16,-1
 943 659 l 1,17,-1
 740 659 l 1,18,-1
 740 0 l 1,19,-1
 420 0 l 1,0,-1
EndSplineSet
Validated: 1
EndChar

StartChar: ae
Encoding: 230 230 184
Width: 1786
Flags: W
HStem: -20 190<354.717 543.166> -20 164<1045.21 1282.04> 545 151<477.586 687> 956 164<492.937 678.337 1084.09 1328.22>
VStem: 30 310<184.815 431.25> 708 295<696 859.479> 1376 310<273.519 374 763 906.377>
DStem2: 1003 596 1003 371 0.912595 0.408864<0 408.678>
LayerCount: 2
Fore
SplineSet
687 545 m 1,0,1
 340 545 340 545 340 277 c 2,2,-1
 340 263 l 2,3,4
 340 170 340 170 439 170 c 0,5,6
 609 170 609 170 687 545 c 1,0,1
1003 596 m 1,7,-1
 1376 763 l 1,8,-1
 1376 776 l 2,9,10
 1376 956 1376 956 1199 956 c 0,11,12
 1003 956 1003 956 1003 614 c 2,13,-1
 1003 596 l 1,7,-1
393 -20 m 0,14,15
 30 -20 30 -20 30 221 c 2,16,-1
 30 228 l 2,17,18
 30 692 30 692 708 696 c 1,19,20
 708 756 l 2,21,22
 708 956 708 956 603 956 c 0,23,24
 481 956 481 956 395 768 c 1,25,-1
 138 870 l 1,26,27
 298 1120 298 1120 645 1120 c 0,28,29
 827 1120 827 1120 916 1041 c 1,30,31
 1061 1120 1061 1120 1301 1120 c 0,32,33
 1686 1120 1686 1120 1686 770 c 2,34,-1
 1686 677 l 1,35,-1
 1003 371 l 1,36,-1
 1003 321 l 2,37,38
 1003 144 1003 144 1168 144 c 0,39,40
 1329 144 1329 144 1369 374 c 1,41,-1
 1683 408 l 1,42,43
 1610 -20 1610 -20 1083 -20 c 0,44,45
 781 -20 781 -20 713 185 c 1,46,47
 602 -20 602 -20 393 -20 c 0,14,15
EndSplineSet
Validated: 19457
EndChar

StartChar: dcroat
Encoding: 273 273 185
Width: 1218
Flags: W
HStem: -20 192<438.928 613.854> 0 21G<807 1153> 944 176<498.331 736.335> 1178 168<529 765 1073 1208> 1490 20G<698 1031>
VStem: 100 310<196.422 843.512> 778 295<69.126 165 468.085 902.472 1091 1178 1346 1449.59>
LayerCount: 2
Fore
SplineSet
1153 0 m 1,0,-1
 836 0 l 1,1,2
 778 110 778 110 778 165 c 1,3,4
 691 -20 691 -20 464 -20 c 0,5,6
 100 -20 100 -20 100 284 c 2,7,-1
 100 609 l 2,8,9
 100 1120 100 1120 622 1120 c 0,10,11
 705 1120 705 1120 778 1091 c 1,12,-1
 778 1178 l 1,13,-1
 529 1178 l 1,14,-1
 529 1346 l 1,15,-1
 765 1346 l 1,16,17
 746 1446 746 1446 698 1510 c 1,18,-1
 1015 1510 l 1,19,20
 1047 1432 1047 1432 1061 1346 c 1,21,-1
 1208 1346 l 1,22,-1
 1208 1178 l 1,23,-1
 1073 1178 l 1,24,-1
 1073 312 l 2,25,26
 1073 128 1073 128 1153 0 c 1,0,-1
515 172 m 0,27,28
 626 172 626 172 697 358 c 0,29,30
 778 570 778 570 778 746 c 2,31,-1
 778 755 l 2,32,33
 778 944 778 944 622 944 c 0,34,35
 410 944 410 944 410 608 c 2,36,-1
 410 346 l 2,37,38
 410 172 410 172 515 172 c 0,27,28
EndSplineSet
Validated: 19457
EndChar

StartChar: longs
Encoding: 383 383 186
Width: 935
Flags: W
HStem: 0 21G<200 500> 1354 176<578.453 872.119>
VStem: 200 300<0 675 840.881 1262.54>
LayerCount: 2
Fore
SplineSet
200 0 m 1,0,-1
 200 675 l 1,1,2
 102 654 102 654 10 579 c 1,3,-1
 10 785 l 1,4,5
 90 836 90 836 200 847 c 1,6,-1
 200 1015 l 2,7,8
 200 1530 200 1530 734 1530 c 0,9,10
 838 1530 838 1530 925 1522 c 1,11,-1
 874 1289 l 1,12,13
 798 1354 798 1354 687 1354 c 0,14,15
 500 1354 500 1354 500 1010 c 2,16,-1
 500 0 l 1,17,-1
 200 0 l 1,0,-1
EndSplineSet
Validated: 1
EndChar

StartChar: hbar
Encoding: 295 295 187
Width: 1263
Flags: W
HStem: 0 21G<150 445 842 1193> 930 190<605.349 783.765> 1178 168<30 135 445 694> 1490 20G<70 403.5>
VStem: 150 295<0 634.925 935 1178> 813 300<70.875 907.011>
LayerCount: 2
Fore
SplineSet
150 0 m 1,0,-1
 150 1178 l 1,1,-1
 30 1178 l 1,2,-1
 30 1346 l 1,3,-1
 135 1346 l 1,4,5
 115 1436 115 1436 70 1510 c 1,6,-1
 388 1510 l 1,7,8
 419 1436 419 1436 433 1346 c 1,9,-1
 694 1346 l 1,10,-1
 694 1178 l 1,11,-1
 445 1178 l 1,12,-1
 445 935 l 1,13,14
 513 1120 513 1120 759 1120 c 0,15,16
 1113 1119 1113 1119 1113 812 c 2,17,-1
 1113 308 l 2,18,19
 1113 132 1113 132 1193 0 c 1,20,-1
 871 0 l 1,21,22
 813 138 813 138 813 306 c 2,23,-1
 813 752 l 2,24,25
 813 930 813 930 708 930 c 0,26,27
 445 930 445 930 445 93 c 2,28,-1
 445 0 l 1,29,-1
 150 0 l 1,0,-1
EndSplineSet
Validated: 19457
EndChar

StartChar: eng
Encoding: 331 331 188
Width: 1183
Flags: W
HStem: -430 21G<604 858.5> 0 21G<150 445> 930 190<604.552 783.765> 1080 20G<70 406.5>
VStem: 150 295<0 634.925> 150 275<885 1029.93> 813 300<-3.302 907.011>
LayerCount: 2
Fore
SplineSet
150 0 m 1,0,-1
 150 792 l 2,1,2
 150 968 150 968 70 1100 c 1,3,-1
 388 1100 l 1,4,5
 425 1001 425 1001 425 885 c 1,6,7
 502 1120 502 1120 759 1120 c 0,8,9
 1113 1120 1113 1120 1113 812 c 2,10,-1
 1113 325 l 2,11,12
 1113 -302 1113 -302 604 -430 c 1,13,-1
 604 -243 l 1,14,15
 813 -115 813 -115 813 314 c 2,16,-1
 813 752 l 2,17,18
 813 930 813 930 708 930 c 0,19,20
 445 930 445 930 445 93 c 2,21,-1
 445 0 l 1,22,-1
 150 0 l 1,0,-1
EndSplineSet
Validated: 19457
EndChar

StartChar: eth
Encoding: 240 240 189
Width: 1208
Flags: W
HStem: -20 164<459.277 709.417> 956 164<496.073 716.983> 1510 20G<564.848 634>
VStem: 100 310<197.808 856.017> 798 310<255.586 898.77>
DStem2: 353 1294 437 1149 0.865583 0.500765<0.098088 171.172 445.884 581.111>
LayerCount: 2
Fore
SplineSet
597 144 m 0,0,1
 798 144 798 144 798 492 c 2,2,-1
 798 773 l 2,3,4
 798 956 798 956 611 956 c 0,5,6
 410 956 410 956 410 608 c 2,7,-1
 410 327 l 2,8,9
 410 144 410 144 597 144 c 0,0,1
495 -20 m 0,10,11
 100 -20 100 -20 100 323 c 2,12,-1
 100 609 l 2,13,14
 100 1120 100 1120 622 1120 c 0,15,16
 670 1120 670 1120 718 1110 c 1,17,18
 678 1187 678 1187 622 1256 c 1,19,-1
 437 1149 l 1,20,-1
 353 1294 l 1,21,-1
 501 1380 l 1,22,23
 459 1417 459 1417 411 1451 c 1,24,-1
 617 1530 l 1,25,26
 651 1508 651 1508 683 1485 c 1,27,-1
 856 1585 l 1,28,-1
 940 1440 l 1,29,-1
 823 1372 l 1,30,31
 1108 1108 1108 1108 1108 777 c 2,32,-1
 1108 491 l 2,33,34
 1108 -20 1108 -20 495 -20 c 0,10,11
EndSplineSet
Validated: 19457
EndChar

StartChar: oslash
Encoding: 248 248 190
Width: 1208
Flags: W
HStem: -20 164<465.809 720.072> 956 164<487.928 743.577>
VStem: 100 300<324 844.414> 808 300<255.586 770>
DStem2: 180 -57 292 -122 0.500527 0.865721<0 115.569 439.956 1030.28 1359.91 1470.24>
LayerCount: 2
Fore
SplineSet
495 -20 m 0,0,1
 420 -20 420 -20 359 -8 c 1,2,-1
 292 -122 l 1,3,-1
 180 -57 l 1,4,-1
 236 39 l 1,5,6
 100 122 100 122 100 323 c 2,7,-1
 100 609 l 2,8,9
 100 1120 100 1120 713 1120 c 0,10,11
 790 1120 790 1120 852 1107 c 1,12,-1
 916 1216 l 1,13,-1
 1028 1151 l 1,14,-1
 975 1060 l 1,15,16
 1108 976 1108 976 1108 777 c 2,17,-1
 1108 491 l 2,18,19
 1108 -20 1108 -20 495 -20 c 0,0,1
597 144 m 0,20,21
 808 144 808 144 808 492 c 2,22,-1
 808 770 l 1,23,-1
 465 177 l 1,24,25
 513 144 513 144 597 144 c 0,20,21
400 324 m 2,26,-1
 745 921 l 1,27,28
 697 956 697 956 611 956 c 0,29,30
 400 956 400 956 400 608 c 2,31,-1
 400 327 l 2,32,33
 400 326 400 326 400 324 c 2,26,-1
EndSplineSet
Validated: 19457
EndChar

StartChar: oe
Encoding: 339 339 191
Width: 1891
Flags: W
HStem: -20 164<459.277 715.117 1150.77 1387.04> 956 164<498.583 748.769 1188.58 1433.22>
VStem: 100 310<197.808 844.414> 798 310<243.562 371 596 859.479> 1481 310<273.519 374 763 906.377>
DStem2: 1108 596 1108 371 0.912595 0.408864<0 408.678>
LayerCount: 2
Fore
SplineSet
495 -20 m 0,0,1
 100 -20 100 -20 100 323 c 2,2,-1
 100 609 l 2,3,4
 100 1120 100 1120 713 1120 c 0,5,6
 911 1120 911 1120 1010 1034 c 1,7,8
 1157 1120 1157 1120 1406 1120 c 0,9,10
 1791 1120 1791 1120 1791 770 c 2,11,-1
 1791 677 l 1,12,-1
 1108 371 l 1,13,-1
 1108 321 l 2,14,15
 1108 144 1108 144 1273 144 c 0,16,17
 1434 144 1434 144 1474 374 c 1,18,-1
 1788 408 l 1,19,20
 1715 -20 1715 -20 1188 -20 c 0,21,22
 993 -20 993 -20 895 66 c 1,23,24
 747 -20 747 -20 495 -20 c 0,0,1
1108 596 m 1,25,-1
 1481 763 l 1,26,-1
 1481 776 l 2,27,28
 1481 956 1481 956 1304 956 c 0,29,30
 1108 956 1108 956 1108 614 c 2,31,-1
 1108 596 l 1,25,-1
597 144 m 0,32,33
 798 144 798 144 798 492 c 2,34,-1
 798 773 l 2,35,36
 798 956 798 956 611 956 c 0,37,38
 410 956 410 956 410 608 c 2,39,-1
 410 327 l 2,40,41
 410 144 410 144 597 144 c 0,32,33
EndSplineSet
Validated: 19457
EndChar

StartChar: tbar
Encoding: 359 359 192
Width: 920
Flags: W
HStem: 0 21G<339 690> 596 168<97 310 610 823> 933 167<107.222 310 610 910> 1490 20G<230 581>
VStem: 310 300<71.625 596 764 930 1100 1431.24>
LayerCount: 2
Fore
SplineSet
368 0 m 1,0,1
 310 140 310 140 310 306 c 2,2,-1
 310 596 l 1,3,-1
 97 596 l 1,4,-1
 97 764 l 1,5,-1
 310 764 l 1,6,-1
 310 930 l 1,7,8
 142 930 142 930 10 834 c 1,9,-1
 10 1037 l 1,10,11
 137 1099 137 1099 310 1099 c 1,12,-1
 310 1190 l 2,13,14
 310 1360 310 1360 230 1510 c 1,15,-1
 552 1510 l 1,16,17
 610 1366 610 1366 610 1190 c 2,18,-1
 610 1100 l 1,19,-1
 910 1100 l 1,20,-1
 910 933 l 1,21,-1
 610 933 l 1,22,-1
 610 764 l 1,23,-1
 823 764 l 1,24,-1
 823 596 l 1,25,-1
 610 596 l 1,26,-1
 610 306 l 2,27,28
 610 130 610 130 690 0 c 1,29,-1
 368 0 l 1,0,1
EndSplineSet
Validated: 1
EndChar

StartChar: Thorn
Encoding: 222 222 193
Width: 1314
Flags: W
HStem: 0 21G<150 470> 249 188<470 759.034> 1089 188<470 811.821> 1490 20G<60 433.5>
VStem: 150 320<0 249 437 1089 1277 1425.11> 894 330<597.188 1011.62>
LayerCount: 2
Fore
SplineSet
150 0 m 1,0,-1
 150 1193 l 2,1,2
 150 1379 150 1379 60 1510 c 1,3,-1
 409 1510 l 1,4,5
 458 1391 458 1391 467 1277 c 1,6,-1
 739 1277 l 2,7,8
 1224 1277 1224 1277 1224 875 c 2,9,-1
 1224 868 l 2,10,11
 1224 249 1224 249 546 249 c 2,12,-1
 470 249 l 1,13,-1
 470 0 l 1,14,-1
 150 0 l 1,0,-1
470 437 m 1,15,-1
 624 437 l 2,16,17
 894 437 894 437 894 865 c 2,18,-1
 894 873 l 2,19,20
 894 1089 894 1089 636 1089 c 2,21,-1
 470 1089 l 1,22,-1
 470 437 l 1,15,-1
EndSplineSet
Validated: 19457
EndChar

StartChar: thorn
Encoding: 254 254 194
Width: 1223
Flags: W
HStem: -410 21G<150 445> -20 176<486.665 724.669> 928 192<609.146 784.072> 1490 20G<70 416.5>
VStem: 150 295<-410 9 197.528 631.915 935 1441.35> 813 310<256.488 903.578>
LayerCount: 2
Fore
SplineSet
601 -20 m 0,0,1
 518 -20 518 -20 445 9 c 1,2,-1
 445 -410 l 17,3,-1
 150 -410 l 1,4,-1
 150 1198 l 2,5,6
 150 1379 150 1379 70 1510 c 1,7,-1
 388 1510 l 1,8,9
 445 1368 445 1368 445 1188 c 2,10,-1
 445 935 l 1,11,12
 532 1120 532 1120 759 1120 c 0,13,14
 1123 1120 1123 1120 1123 816 c 2,15,-1
 1123 491 l 2,16,17
 1123 -20 1123 -20 601 -20 c 0,0,1
708 928 m 0,18,19
 597 928 597 928 526 742 c 0,20,21
 445 530 445 530 445 354 c 2,22,-1
 445 345 l 2,23,24
 445 156 445 156 601 156 c 0,25,26
 813 156 813 156 813 492 c 2,27,-1
 813 754 l 2,28,29
 813 928 813 928 708 928 c 0,18,19
EndSplineSet
Validated: 19457
EndChar

StartChar: florin
Encoding: 402 402 195
Width: 935
Flags: W
HStem: -430 21G<0 250> 680 169<500 800> 1354 176<576.661 871.025>
VStem: 200 300<-13.3242 680 849 1263.43>
LayerCount: 2
Fore
SplineSet
0 -430 m 1,0,-1
 0 -261 l 1,1,2
 200 -130 200 -130 200 318 c 2,3,-1
 200 680 l 1,4,5
 150 680 150 680 93 613 c 1,6,-1
 93 802 l 1,7,8
 137 838 137 838 200 849 c 1,9,-1
 200 1014 l 2,10,11
 200 1530 200 1530 733 1530 c 0,12,13
 848 1530 848 1530 925 1522 c 1,14,-1
 874 1289 l 1,15,16
 791 1354 791 1354 680 1354 c 0,17,18
 500 1354 500 1354 500 1013 c 2,19,-1
 500 849 l 1,20,-1
 800 849 l 1,21,-1
 800 680 l 1,22,-1
 500 680 l 1,23,-1
 500 319 l 2,24,25
 500 -321 500 -321 0 -430 c 1,0,-1
EndSplineSet
Validated: 1
EndChar

StartChar: circumflex
Encoding: 710 710 196
Width: 728
Flags: W
HStem: 1364 215<256.5 471.5>
LayerCount: 2
Fore
SplineSet
364 1579 m 1,0,-1
 708 1331 l 1,1,-1
 544 1170 l 1,2,-1
 364 1364 l 1,3,-1
 184 1170 l 1,4,-1
 20 1331 l 1,5,-1
 364 1579 l 1,0,-1
EndSplineSet
Validated: 19457
EndChar

StartChar: caron
Encoding: 711 711 197
Width: 728
Flags: W
HStem: 1170 215<256.5 471.5>
LayerCount: 2
Fore
SplineSet
184 1579 m 1,0,-1
 364 1385 l 1,1,-1
 544 1579 l 1,2,-1
 708 1418 l 1,3,-1
 364 1170 l 1,4,-1
 20 1418 l 1,5,-1
 184 1579 l 1,0,-1
EndSplineSet
Validated: 19457
EndChar

StartChar: uni02C9
Encoding: 713 713 198
Width: 732
Flags: W
HStem: 1261 188<20 712>
LayerCount: 2
Fore
SplineSet
20 1449 m 1,0,-1
 712 1449 l 1,1,-1
 712 1261 l 1,2,-1
 20 1261 l 1,3,-1
 20 1449 l 1,0,-1
EndSplineSet
Validated: 19457
EndChar

StartChar: breve
Encoding: 728 728 199
Width: 732
Flags: W
HStem: 1242 153<273.629 458.371> 1496 20G<179.684 266 466 552.316>
LayerCount: 2
Fore
SplineSet
266 1516 m 1,0,1
 266 1395 266 1395 316 1395 c 2,2,-1
 416 1395 l 2,3,4
 466 1395 466 1395 466 1516 c 1,5,-1
 712 1459 l 1,6,7
 712 1242 712 1242 522 1242 c 2,8,-1
 210 1242 l 2,9,10
 20 1242 20 1242 20 1459 c 1,11,-1
 266 1516 l 1,0,1
EndSplineSet
Validated: 19457
EndChar

StartChar: dotaccent
Encoding: 729 729 200
Width: 390
Flags: W
HStem: 1176 354<63.75 326.25>
VStem: 20 350<1220.25 1485.75>
LayerCount: 2
Fore
SplineSet
195 1530 m 128,-1,1
 370 1530 370 1530 370 1353 c 128,-1,2
 370 1176 370 1176 195 1176 c 152,-1,3
 20 1176 20 1176 20 1353 c 128,-1,0
 20 1530 20 1530 195 1530 c 128,-1,1
EndSplineSet
Validated: 19457
EndChar

StartChar: ring
Encoding: 730 730 201
Width: 448
Flags: W
HStem: 1170 129<153.242 294.758> 1454 129<153.242 294.758>
VStem: 20 127<1305.08 1447.92> 301 127<1305.08 1447.92>
LayerCount: 2
Fore
SplineSet
224 1454 m 128,-1,1
 147 1454 147 1454 147 1376.5 c 128,-1,2
 147 1299 147 1299 224 1299 c 152,-1,3
 301 1299 301 1299 301 1376.5 c 128,-1,0
 301 1454 301 1454 224 1454 c 128,-1,1
224 1583 m 128,-1,5
 428 1583 428 1583 428 1376.5 c 128,-1,6
 428 1170 428 1170 224 1170 c 128,-1,7
 20 1170 20 1170 20 1376.5 c 128,-1,4
 20 1583 20 1583 224 1583 c 128,-1,5
EndSplineSet
Validated: 19457
EndChar

StartChar: ogonek
Encoding: 731 731 202
Width: 409
Flags: W
HStem: -460 593
VStem: 20 224<-216.599 -39.4874>
LayerCount: 2
Fore
SplineSet
235 -460 m 1,0,1
 20 -363 20 -363 20 -154 c 0,2,3
 20 54 20 54 304 133 c 1,4,-1
 385 0 l 1,5,6
 244 -26 244 -26 244 -127 c 0,7,8
 244 -233 244 -233 389 -251 c 1,9,-1
 235 -460 l 1,0,1
EndSplineSet
Validated: 19457
EndChar

StartChar: tilde
Encoding: 732 732 203
Width: 731
Flags: W
HStem: 1213 140<408.916 628.5> 1353 139<100 308.246>
VStem: 20 215<1259 1349.79> 496 215<1355.21 1446>
LayerCount: 2
Fore
SplineSet
180 1492 m 24,0,1
 337 1492 337 1492 419 1385 c 0,2,3
 443 1353 443 1353 456 1353 c 0,4,5
 496 1353 496 1353 496 1506 c 1,6,-1
 711 1446 l 1,7,8
 711 1213 711 1213 546 1213 c 24,9,10
 371 1213 371 1213 303 1318 c 0,11,12
 281 1353 281 1353 268 1353 c 0,13,14
 235 1353 235 1353 235 1199 c 1,15,-1
 20 1259 l 1,16,17
 20 1492 20 1492 180 1492 c 24,0,1
EndSplineSet
Validated: 19457
EndChar

StartChar: hungarumlaut
Encoding: 733 733 204
Width: 816
Flags: W
HStem: 1135 409
LayerCount: 2
Fore
SplineSet
622 1544 m 1,0,-1
 796 1374 l 1,1,-1
 500 1135 l 1,2,-1
 378 1253 l 1,3,-1
 622 1544 l 1,0,-1
264 1544 m 1,4,-1
 438 1374 l 1,5,-1
 142 1135 l 1,6,-1
 20 1253 l 1,7,-1
 264 1544 l 1,4,-1
EndSplineSet
Validated: 19457
EndChar

StartChar: uni203D
Encoding: 8253 8253 205
Width: 1408
Flags: W
HStem: -20 377<517.452 790.548> 559 177<814.329 885.07> 1510 20G<461.5 1055.5>
VStem: 110 330<950 1155.93> 468 372<30.1163 306.884> 572 254<990.23 1311> 600 201<736 1003.56> 978 320<842 1266.54>
LayerCount: 2
Fore
SplineSet
813 1530 m 0,0,1
 1298 1530 1298 1530 1298 1133 c 2,2,-1
 1298 1130 l 2,3,4
 1298 559 1298 559 858 559 c 0,5,6
 813 559 813 559 813 495 c 1,7,-1
 493 388 l 1,8,9
 493 598 493 598 600 681 c 1,10,-1
 572 1311 l 1,11,12
 440 1228 440 1228 440 950 c 1,13,-1
 110 869 l 1,14,15
 110 1530 110 1530 813 1530 c 0,0,1
654 -20 m 128,-1,17
 468 -20 468 -20 468 168.5 c 128,-1,18
 468 357 468 357 654 357 c 128,-1,19
 840 357 840 357 840 168.5 c 128,-1,16
 840 -20 840 -20 654 -20 c 128,-1,17
826 1332 m 1,20,-1
 801 736 l 1,21,22
 978 754 978 754 978 1124 c 2,23,-1
 978 1127 l 2,24,25
 978 1291 978 1291 826 1332 c 1,20,-1
EndSplineSet
Validated: 19457
EndChar

StartChar: afii61352
Encoding: 8470 8470 206
Width: 2118
Flags: W
HStem: 0 210<1324 2068> 278 144<1615.61 1759.11> 782 145<1629.89 1779.42> 1274 236<465 631.617>
VStem: 150 320<0 1268.88> 965 311<0 644.154 1103 1510> 1389 220<429.638 761.062> 1783 220<437.095 776.074>
LayerCount: 2
Fore
SplineSet
2068 0 m 1,0,-1
 1324 0 l 1,1,-1
 1324 210 l 1,2,-1
 2068 210 l 1,3,-1
 2068 0 l 1,0,-1
1704 782 m 16,4,5
 1609 782 1609 782 1609 632 c 2,6,-1
 1609 491 l 2,7,8
 1609 422 1609 422 1691 422 c 0,9,10
 1783 422 1783 422 1783 573 c 2,11,-1
 1783 714 l 2,12,13
 1783 782 1783 782 1704 782 c 16,4,5
1756 927 m 0,14,15
 2003 927 2003 927 2003 715 c 2,16,-1
 2003 573 l 2,17,18
 2003 278 2003 278 1642 278 c 0,19,20
 1389 278 1389 278 1389 491 c 2,21,-1
 1389 632 l 2,22,23
 1389 927 1389 927 1756 927 c 0,14,15
150 0 m 1,24,-1
 150 1193 l 2,25,26
 150 1387 150 1387 60 1510 c 1,27,-1
 360 1510 l 2,28,29
 885 1510 885 1510 955 1103 c 1,30,-1
 965 1103 l 1,31,-1
 965 1510 l 1,32,-1
 1276 1510 l 1,33,-1
 1275 0 l 1,34,-1
 965 0 l 1,35,36
 965 1274 965 1274 465 1274 c 1,37,38
 470 1237 470 1237 470 1192 c 2,39,-1
 470 0 l 1,40,-1
 150 0 l 1,24,-1
EndSplineSet
Validated: 19457
EndChar

StartChar: uni2117
Encoding: 8471 8471 207
Width: 1301
Flags: W
HStem: 187 73<464.363 828.952> 584 143<627 709.332> 1006 144<624 728.698> 1254 77<466.855 834.866>
VStem: 100 74<570.065 952.314> 417 210<345 584 727 1005.22> 734 210<746.594 1000.5> 1126 75<558.376 959.426>
LayerCount: 2
Fore
SplineSet
624 1006 m 1,0,1
 627 984 627 984 627 976 c 2,2,-1
 627 727 l 1,3,-1
 649 727 l 2,4,5
 734 727 734 727 734 928 c 2,6,-1
 734 932 l 2,7,8
 734 1006 734 1006 655 1006 c 2,9,-1
 624 1006 l 1,0,1
627 345 m 1,10,-1
 417 345 l 1,11,-1
 417 975 l 2,12,13
 417 1063 417 1063 365 1150 c 1,14,-1
 707 1150 l 2,15,16
 944 1150 944 1150 944 932 c 2,17,-1
 944 928 l 2,18,19
 944 584 944 584 677 584 c 2,20,-1
 627 584 l 1,21,-1
 627 345 l 1,10,-1
649 1254 m 0,22,23
 459 1254 459 1254 317 1113 c 0,24,25
 174 971 174 971 174 754 c 0,26,27
 174 562 174 562 314 406 c 0,28,29
 445 260 445 260 651 260 c 0,30,31
 845 260 845 260 987 406 c 24,32,33
 1126 546 1126 546 1126 754 c 0,34,35
 1126 975 1126 975 989 1110 c 0,36,37
 843 1254 843 1254 649 1254 c 0,22,23
651 1331 m 0,38,39
 893 1331 893 1331 1049 1158 c 0,40,41
 1201 989 1201 989 1201 754 c 0,42,43
 1201 502 1201 502 1040 350 c 0,44,45
 869 187 869 187 649 187 c 0,46,47
 426 187 426 187 261 350 c 0,48,49
 100 509 100 509 100 754 c 0,50,51
 100 998 100 998 258 1163 c 0,52,53
 419 1331 419 1331 651 1331 c 0,38,39
EndSplineSet
Validated: 19457
EndChar

StartChar: integral
Encoding: 8747 8747 208
Width: 1170
Flags: W
HStem: -430 176<62.8807 356.547> 1354 176<813.453 1107.12>
VStem: 435 300<-162.541 1262.54>
LayerCount: 2
Fore
SplineSet
10 -422 m 1,0,-1
 61 -189 l 1,1,2
 137 -254 137 -254 248 -254 c 0,3,4
 435 -254 435 -254 435 90 c 2,5,-1
 435 1015 l 2,6,7
 435 1530 435 1530 969 1530 c 0,8,9
 1073 1530 1073 1530 1160 1522 c 1,10,-1
 1109 1289 l 1,11,12
 1033 1354 1033 1354 922 1354 c 0,13,14
 735 1354 735 1354 735 1010 c 2,15,-1
 735 85 l 2,16,17
 735 -430 735 -430 201 -430 c 0,18,19
 97 -430 97 -430 10 -422 c 1,0,-1
EndSplineSet
Validated: 1
EndChar

StartChar: uni1E9E
Encoding: 7838 7838 209
Width: 1395
Flags: W
HStem: 0 187<698 856.715> 742 188<871 943.438> 1346 184<590.988 852.306>
VStem: 150 320<0 1184.06> 985 320<320.062 701.384>
LayerCount: 2
Fore
SplineSet
150 0 m 1,0,-1
 150 915 l 2,1,2
 150 1530 150 1530 823 1530 c 0,3,4
 1220 1530 1220 1530 1220 1157 c 1,5,6
 871 1110 871 1110 871 973 c 2,7,-1
 871 971 l 2,8,9
 871 931 871 931 907 930 c 0,10,11
 1305 928 1305 928 1305 571 c 2,12,-1
 1305 569 l 2,13,14
 1305 0 1305 0 698 0 c 1,15,-1
 698 187 l 17,16,17
 985 187 985 187 985 531 c 2,18,-1
 985 539 l 2,19,20
 985 742 985 742 853 742 c 24,21,22
 568 742 568 742 568 965 c 2,23,-1
 568 966 l 2,24,25
 568 1168 568 1168 876 1269 c 1,26,27
 852 1346 852 1346 719 1346 c 24,28,29
 470 1346 470 1346 470 910 c 2,30,-1
 470 0 l 1,31,-1
 150 0 l 1,0,-1
EndSplineSet
Validated: 1
EndChar

StartChar: ntilde
Encoding: 241 241 210
Width: 1263
Flags: W
HStem: 0 21G<150 445 842 1193> 930 190<604.552 783.765> 1080 20G<70 406.5> 1214 140<650.916 870.5> 1354 139<342 550.246>
VStem: 150 295<0 634.925> 150 275<885 1029.93> 262 215<1260 1350.79> 738 215<1356.21 1447> 813 300<70.875 907.011>
LayerCount: 2
Fore
SplineSet
422 1493 m 24,0,1
 579 1493 579 1493 661 1386 c 0,2,3
 685 1354 685 1354 698 1354 c 0,4,5
 738 1354 738 1354 738 1507 c 1,6,-1
 953 1447 l 1,7,8
 953 1214 953 1214 788 1214 c 24,9,10
 613 1214 613 1214 545 1319 c 0,11,12
 523 1354 523 1354 510 1354 c 0,13,14
 477 1354 477 1354 477 1200 c 1,15,-1
 262 1260 l 1,16,17
 262 1493 262 1493 422 1493 c 24,0,1
150 0 m 1,18,-1
 150 792 l 2,19,20
 150 968 150 968 70 1100 c 1,21,-1
 388 1100 l 1,22,23
 425 1001 425 1001 425 885 c 1,24,25
 502 1120 502 1120 759 1120 c 0,26,27
 1113 1120 1113 1120 1113 812 c 2,28,-1
 1113 308 l 2,29,30
 1113 132 1113 132 1193 0 c 1,31,-1
 871 0 l 1,32,33
 813 138 813 138 813 306 c 2,34,-1
 813 752 l 2,35,36
 813 930 813 930 708 930 c 0,37,38
 445 930 445 930 445 93 c 2,39,-1
 445 0 l 1,40,-1
 150 0 l 1,18,-1
EndSplineSet
Validated: 19457
EndChar

StartChar: ograve
Encoding: 242 242 211
Width: 1208
Flags: W
HStem: -20 164<459.277 709.417> 956 164<498.583 748.723>
VStem: 100 310<197.808 844.414> 798 310<255.586 902.192>
LayerCount: 2
Fore
SplineSet
510 1579 m 1,0,-1
 754 1288 l 1,1,-1
 632 1170 l 1,2,-1
 336 1409 l 1,3,-1
 510 1579 l 1,0,-1
597 144 m 0,4,5
 798 144 798 144 798 492 c 2,6,-1
 798 773 l 2,7,8
 798 956 798 956 611 956 c 0,9,10
 410 956 410 956 410 608 c 2,11,-1
 410 327 l 2,12,13
 410 144 410 144 597 144 c 0,4,5
495 -20 m 0,14,15
 100 -20 100 -20 100 323 c 2,16,-1
 100 609 l 2,17,18
 100 1120 100 1120 713 1120 c 0,19,20
 1108 1120 1108 1120 1108 777 c 2,21,-1
 1108 491 l 2,22,23
 1108 -20 1108 -20 495 -20 c 0,14,15
EndSplineSet
Validated: 19457
EndChar

StartChar: Agrave
Encoding: 192 192 212
Width: 1406
Flags: W
HStem: 0 21G<130 450 967.5 1346> 684 188<450 936> 1347 183<567.224 858.394>
VStem: 130 320<0 684 872 1184.06> 936 320<89.1016 684 872 1266.6>
LayerCount: 2
Fore
SplineSet
628 1969 m 1,0,-1
 872 1678 l 1,1,-1
 750 1560 l 1,2,-1
 454 1799 l 1,3,-1
 628 1969 l 1,0,-1
693 1347 m 152,-1,5
 450 1347 450 1347 450 915 c 2,6,-1
 450 872 l 1,7,-1
 936 872 l 1,8,-1
 936 1127 l 2,9,4
 936 1347 936 1347 693 1347 c 152,-1,5
130 0 m 1,10,-1
 130 915 l 2,11,12
 130 1530 130 1530 771 1530 c 0,13,14
 1256 1530 1256 1530 1256 1131 c 2,15,-1
 1256 318 l 2,16,17
 1256 145 1256 145 1346 0 c 1,18,-1
 999 0 l 1,19,20
 936 136 936 136 936 314 c 2,21,-1
 936 684 l 1,22,-1
 450 684 l 1,23,-1
 450 0 l 1,24,-1
 130 0 l 1,10,-1
EndSplineSet
Validated: 19457
EndChar

StartChar: Sacute
Encoding: 346 346 213
Width: 1328
Flags: W
HStem: -20 184<498.998 796.767> 711 212<516.927 828.857> 1346 184<518.876 790.375>
VStem: 110 330<993.151 1257.75> 908 330<302.875 642.016>
LayerCount: 2
Fore
SplineSet
814 1969 m 1,0,-1
 988 1799 l 1,1,-1
 692 1560 l 1,2,-1
 570 1678 l 1,3,-1
 814 1969 l 1,0,-1
545 -20 m 0,4,5
 70 -20 70 -20 70 399 c 1,6,-1
 400 480 l 1,7,8
 400 164 400 164 647 164 c 0,9,10
 908 164 908 164 908 513 c 2,11,-1
 908 515 l 2,12,13
 908 711 908 711 661 711 c 0,14,15
 110 711 110 711 110 1043 c 2,16,-1
 110 1046 l 2,17,18
 110 1530 110 1530 763 1530 c 0,19,20
 1197 1530 1197 1530 1198 1112 c 1,21,-1
 868 1031 l 1,22,23
 868 1346 868 1346 671 1346 c 0,24,25
 440 1346 440 1346 440 1115 c 2,26,-1
 440 1112 l 2,27,28
 440 923 440 923 684 923 c 0,29,30
 1238 923 1238 923 1238 556 c 2,31,-1
 1238 554 l 2,32,33
 1238 -20 1238 -20 545 -20 c 0,4,5
EndSplineSet
Validated: 19457
EndChar

StartChar: Aacute
Encoding: 193 193 214
Width: 1406
Flags: W
HStem: 0 21G<130 450 967.5 1346> 684 188<450 936> 1347 183<567.224 858.394>
VStem: 130 320<0 684 872 1184.06> 936 320<89.1016 684 872 1266.6>
LayerCount: 2
Fore
SplineSet
854 1969 m 1,0,-1
 1028 1799 l 1,1,-1
 732 1560 l 1,2,-1
 610 1678 l 1,3,-1
 854 1969 l 1,0,-1
693 1347 m 152,-1,5
 450 1347 450 1347 450 915 c 2,6,-1
 450 872 l 1,7,-1
 936 872 l 1,8,-1
 936 1127 l 2,9,4
 936 1347 936 1347 693 1347 c 152,-1,5
130 0 m 1,10,-1
 130 915 l 2,11,12
 130 1530 130 1530 771 1530 c 0,13,14
 1256 1530 1256 1530 1256 1131 c 2,15,-1
 1256 318 l 2,16,17
 1256 145 1256 145 1346 0 c 1,18,-1
 999 0 l 1,19,20
 936 136 936 136 936 314 c 2,21,-1
 936 684 l 1,22,-1
 450 684 l 1,23,-1
 450 0 l 1,24,-1
 130 0 l 1,10,-1
EndSplineSet
Validated: 19457
EndChar

StartChar: Acircumflex
Encoding: 194 194 215
Width: 1406
Flags: W
HStem: 0 21G<130 450 967.5 1346> 684 188<450 936> 1347 183<567.224 858.394> 1754 215<620.5 835.5>
VStem: 130 320<0 684 872 1184.06> 936 320<89.1016 684 872 1266.6>
LayerCount: 2
Fore
SplineSet
728 1969 m 1,0,-1
 1072 1721 l 1,1,-1
 908 1560 l 1,2,-1
 728 1754 l 1,3,-1
 548 1560 l 1,4,-1
 384 1721 l 1,5,-1
 728 1969 l 1,0,-1
693 1347 m 152,-1,7
 450 1347 450 1347 450 915 c 2,8,-1
 450 872 l 1,9,-1
 936 872 l 1,10,-1
 936 1127 l 2,11,6
 936 1347 936 1347 693 1347 c 152,-1,7
130 0 m 1,12,-1
 130 915 l 2,13,14
 130 1530 130 1530 771 1530 c 0,15,16
 1256 1530 1256 1530 1256 1131 c 2,17,-1
 1256 318 l 2,18,19
 1256 145 1256 145 1346 0 c 1,20,-1
 999 0 l 1,21,22
 936 136 936 136 936 314 c 2,23,-1
 936 684 l 1,24,-1
 450 684 l 1,25,-1
 450 0 l 1,26,-1
 130 0 l 1,12,-1
EndSplineSet
Validated: 19457
EndChar

StartChar: Atilde
Encoding: 195 195 216
Width: 1406
Flags: W
HStem: 0 21G<130 450 967.5 1346> 684 188<450 936> 1347 183<567.224 858.394> 1624 140<762.916 982.5> 1764 139<454 662.246>
VStem: 130 320<0 684 872 1184.06> 374 215<1670 1760.79> 850 215<1766.21 1857> 936 320<89.1016 684 872 1266.6>
LayerCount: 2
Fore
SplineSet
534 1903 m 24,0,1
 691 1903 691 1903 773 1796 c 0,2,3
 797 1764 797 1764 810 1764 c 0,4,5
 850 1764 850 1764 850 1917 c 1,6,-1
 1065 1857 l 1,7,8
 1065 1624 1065 1624 900 1624 c 24,9,10
 725 1624 725 1624 657 1729 c 0,11,12
 635 1764 635 1764 622 1764 c 0,13,14
 589 1764 589 1764 589 1610 c 1,15,-1
 374 1670 l 1,16,17
 374 1903 374 1903 534 1903 c 24,0,1
693 1347 m 152,-1,19
 450 1347 450 1347 450 915 c 2,20,-1
 450 872 l 1,21,-1
 936 872 l 1,22,-1
 936 1127 l 2,23,18
 936 1347 936 1347 693 1347 c 152,-1,19
130 0 m 1,24,-1
 130 915 l 2,25,26
 130 1530 130 1530 771 1530 c 0,27,28
 1256 1530 1256 1530 1256 1131 c 2,29,-1
 1256 318 l 2,30,31
 1256 145 1256 145 1346 0 c 1,32,-1
 999 0 l 1,33,34
 936 136 936 136 936 314 c 2,35,-1
 936 684 l 1,36,-1
 450 684 l 1,37,-1
 450 0 l 1,38,-1
 130 0 l 1,24,-1
EndSplineSet
Validated: 19457
EndChar

StartChar: Adieresis
Encoding: 196 196 217
Width: 1406
Flags: W
HStem: 0 21G<130 450 967.5 1346> 684 188<450 936> 1347 183<567.224 858.394> 1606 314<420.838 661.162 778.838 1019.16>
VStem: 130 320<0 684 872 1184.06> 387 308<1640.5 1885.5> 745 308<1640.5 1885.5> 936 320<89.1016 684 872 1266.6>
LayerCount: 2
Fore
SplineSet
899 1920 m 128,-1,1
 1053 1920 1053 1920 1053 1763 c 128,-1,2
 1053 1606 1053 1606 899 1606 c 152,-1,3
 745 1606 745 1606 745 1763 c 128,-1,0
 745 1920 745 1920 899 1920 c 128,-1,1
541 1920 m 128,-1,5
 695 1920 695 1920 695 1763 c 128,-1,6
 695 1606 695 1606 541 1606 c 152,-1,7
 387 1606 387 1606 387 1763 c 128,-1,4
 387 1920 387 1920 541 1920 c 128,-1,5
693 1347 m 152,-1,9
 450 1347 450 1347 450 915 c 2,10,-1
 450 872 l 1,11,-1
 936 872 l 1,12,-1
 936 1127 l 2,13,8
 936 1347 936 1347 693 1347 c 152,-1,9
130 0 m 1,14,-1
 130 915 l 2,15,16
 130 1530 130 1530 771 1530 c 0,17,18
 1256 1530 1256 1530 1256 1131 c 2,19,-1
 1256 318 l 2,20,21
 1256 145 1256 145 1346 0 c 1,22,-1
 999 0 l 1,23,24
 936 136 936 136 936 314 c 2,25,-1
 936 684 l 1,26,-1
 450 684 l 1,27,-1
 450 0 l 1,28,-1
 130 0 l 1,14,-1
EndSplineSet
Validated: 19457
EndChar

StartChar: Aring
Encoding: 197 197 218
Width: 1406
Flags: W
HStem: 0 21G<130 450 967.5 1346> 684 188<450 936> 1347 183<567.224 858.394> 1560 129<661.242 802.758> 1844 129<661.242 802.758>
VStem: 130 320<0 684 872 1184.06> 528 127<1695.08 1837.92> 809 127<1695.08 1837.92> 936 320<89.1016 684 872 1266.6>
LayerCount: 2
Fore
SplineSet
732 1844 m 128,-1,1
 655 1844 655 1844 655 1766.5 c 128,-1,2
 655 1689 655 1689 732 1689 c 152,-1,3
 809 1689 809 1689 809 1766.5 c 128,-1,0
 809 1844 809 1844 732 1844 c 128,-1,1
732 1973 m 128,-1,5
 936 1973 936 1973 936 1766.5 c 128,-1,6
 936 1560 936 1560 732 1560 c 128,-1,7
 528 1560 528 1560 528 1766.5 c 128,-1,4
 528 1973 528 1973 732 1973 c 128,-1,5
693 1347 m 152,-1,9
 450 1347 450 1347 450 915 c 2,10,-1
 450 872 l 1,11,-1
 936 872 l 1,12,-1
 936 1127 l 2,13,8
 936 1347 936 1347 693 1347 c 152,-1,9
130 0 m 1,14,-1
 130 915 l 2,15,16
 130 1530 130 1530 771 1530 c 0,17,18
 1256 1530 1256 1530 1256 1131 c 2,19,-1
 1256 318 l 2,20,21
 1256 145 1256 145 1346 0 c 1,22,-1
 999 0 l 1,23,24
 936 136 936 136 936 314 c 2,25,-1
 936 684 l 1,26,-1
 450 684 l 1,27,-1
 450 0 l 1,28,-1
 130 0 l 1,14,-1
EndSplineSet
Validated: 19457
EndChar

StartChar: Amacron
Encoding: 256 256 219
Width: 1406
Flags: W
HStem: 0 21G<130 450 967.5 1346> 684 188<450 936> 1347 183<567.224 858.394> 1670 188<374 1066>
VStem: 130 320<0 684 872 1184.06> 936 320<89.1016 684 872 1266.6>
LayerCount: 2
Fore
SplineSet
374 1858 m 1,0,-1
 1066 1858 l 1,1,-1
 1066 1670 l 1,2,-1
 374 1670 l 1,3,-1
 374 1858 l 1,0,-1
693 1347 m 152,-1,5
 450 1347 450 1347 450 915 c 2,6,-1
 450 872 l 1,7,-1
 936 872 l 1,8,-1
 936 1127 l 2,9,4
 936 1347 936 1347 693 1347 c 152,-1,5
130 0 m 1,10,-1
 130 915 l 2,11,12
 130 1530 130 1530 771 1530 c 0,13,14
 1256 1530 1256 1530 1256 1131 c 2,15,-1
 1256 318 l 2,16,17
 1256 145 1256 145 1346 0 c 1,18,-1
 999 0 l 1,19,20
 936 136 936 136 936 314 c 2,21,-1
 936 684 l 1,22,-1
 450 684 l 1,23,-1
 450 0 l 1,24,-1
 130 0 l 1,10,-1
EndSplineSet
Validated: 19457
EndChar

StartChar: Abreve
Encoding: 258 258 220
Width: 1406
Flags: W
HStem: 0 21G<130 450 967.5 1346> 684 188<450 936> 1347 183<567.224 858.394> 1641 153<627.629 812.371>
VStem: 130 320<0 684 872 1184.06> 936 320<89.1016 684 872 1266.6>
LayerCount: 2
Fore
SplineSet
620 1915 m 1,0,1
 620 1794 620 1794 670 1794 c 2,2,-1
 770 1794 l 2,3,4
 820 1794 820 1794 820 1915 c 1,5,-1
 1066 1858 l 1,6,7
 1066 1641 1066 1641 876 1641 c 2,8,-1
 564 1641 l 2,9,10
 374 1641 374 1641 374 1858 c 1,11,-1
 620 1915 l 1,0,1
693 1347 m 152,-1,13
 450 1347 450 1347 450 915 c 2,14,-1
 450 872 l 1,15,-1
 936 872 l 1,16,-1
 936 1127 l 2,17,12
 936 1347 936 1347 693 1347 c 152,-1,13
130 0 m 1,18,-1
 130 915 l 2,19,20
 130 1530 130 1530 771 1530 c 0,21,22
 1256 1530 1256 1530 1256 1131 c 2,23,-1
 1256 318 l 2,24,25
 1256 145 1256 145 1346 0 c 1,26,-1
 999 0 l 1,27,28
 936 136 936 136 936 314 c 2,29,-1
 936 684 l 1,30,-1
 450 684 l 1,31,-1
 450 0 l 1,32,-1
 130 0 l 1,18,-1
EndSplineSet
Validated: 19457
EndChar

StartChar: Aogonek
Encoding: 260 260 221
Width: 1406
Flags: W
HStem: 0 21G<130 450> 684 188<450 936> 1347 183<567.224 858.394>
VStem: 130 320<0 684 872 1184.06> 811 224<-216.599 -38.7666> 936 320<88.5615 684 872 1266.6>
LayerCount: 2
Fore
SplineSet
130 0 m 1,0,-1
 130 915 l 2,1,2
 130 1530 130 1530 771 1530 c 0,3,4
 1256 1530 1256 1530 1256 1131 c 2,5,-1
 1256 318 l 2,6,7
 1256 145 1256 145 1346 0 c 1,8,-1
 1176 0 l 1,9,10
 1035 -26 1035 -26 1035 -127 c 0,11,12
 1035 -233 1035 -233 1180 -251 c 1,13,-1
 1026 -460 l 1,14,15
 811 -363 811 -363 811 -154 c 0,16,17
 811 0 811 0 967 84 c 1,18,19
 936 189 936 189 936 314 c 2,20,-1
 936 684 l 1,21,-1
 450 684 l 1,22,-1
 450 0 l 1,23,-1
 130 0 l 1,0,-1
693 1347 m 128,-1,25
 450 1347 450 1347 450 915 c 2,26,-1
 450 872 l 1,27,-1
 936 872 l 1,28,-1
 936 1127 l 2,29,24
 936 1347 936 1347 693 1347 c 128,-1,25
EndSplineSet
Validated: 19457
EndChar

StartChar: Aringacute
Encoding: 506 506 222
Width: 1406
Flags: W
HStem: 0 21G<130 450 967.5 1346> 684 188<450 936> 1347 183<567.224 858.394> 1560 129<491.242 632.758> 1844 129<491.242 632.758>
VStem: 130 320<0 684 872 1184.06> 358 127<1695.08 1837.92> 639 127<1695.08 1837.92> 936 320<89.1016 684 872 1266.6>
LayerCount: 2
Fore
SplineSet
1012 1969 m 1,0,-1
 1186 1799 l 1,1,-1
 890 1560 l 1,2,-1
 768 1678 l 1,3,-1
 1012 1969 l 1,0,-1
562 1844 m 128,-1,5
 485 1844 485 1844 485 1766.5 c 128,-1,6
 485 1689 485 1689 562 1689 c 152,-1,7
 639 1689 639 1689 639 1766.5 c 128,-1,4
 639 1844 639 1844 562 1844 c 128,-1,5
562 1973 m 128,-1,9
 766 1973 766 1973 766 1766.5 c 128,-1,10
 766 1560 766 1560 562 1560 c 128,-1,11
 358 1560 358 1560 358 1766.5 c 128,-1,8
 358 1973 358 1973 562 1973 c 128,-1,9
693 1347 m 152,-1,13
 450 1347 450 1347 450 915 c 2,14,-1
 450 872 l 1,15,-1
 936 872 l 1,16,-1
 936 1127 l 2,17,12
 936 1347 936 1347 693 1347 c 152,-1,13
130 0 m 1,18,-1
 130 915 l 2,19,20
 130 1530 130 1530 771 1530 c 0,21,22
 1256 1530 1256 1530 1256 1131 c 2,23,-1
 1256 318 l 2,24,25
 1256 145 1256 145 1346 0 c 1,26,-1
 999 0 l 1,27,28
 936 136 936 136 936 314 c 2,29,-1
 936 684 l 1,30,-1
 450 684 l 1,31,-1
 450 0 l 1,32,-1
 130 0 l 1,18,-1
EndSplineSet
Validated: 19457
EndChar

StartChar: AEacute
Encoding: 508 508 223
Width: 1917
Flags: W
HStem: 0 187<1256 1757.32> 667 188<450 936 1256 1738> 1323 187<1218 1738> 1347 183<567.224 860.352>
VStem: 130 320<0 667 855 1184.06> 936 320<187 667 855 1273.47>
LayerCount: 2
Fore
SplineSet
1137 1969 m 1,0,-1
 1311 1799 l 1,1,-1
 1015 1560 l 1,2,-1
 893 1678 l 1,3,-1
 1137 1969 l 1,0,-1
130 0 m 1,4,-1
 130 915 l 2,5,6
 130 1530 130 1530 771 1530 c 0,7,8
 880 1530 880 1530 964 1510 c 1,9,-1
 1738 1510 l 1,10,-1
 1738 1323 l 1,11,-1
 1218 1323 l 1,12,13
 1256 1243 1256 1243 1256 1131 c 2,14,-1
 1256 855 l 1,15,-1
 1738 855 l 1,16,-1
 1738 667 l 1,17,-1
 1256 667 l 1,18,-1
 1256 187 l 1,19,-1
 1527 187 l 2,20,21
 1723 187 1723 187 1887 302 c 1,22,-1
 1887 66 l 1,23,24
 1730 0 1730 0 1527 0 c 2,25,-1
 936 0 l 1,26,-1
 936 667 l 1,27,-1
 450 667 l 1,28,-1
 450 0 l 1,29,-1
 130 0 l 1,4,-1
693 1347 m 128,-1,31
 450 1347 450 1347 450 915 c 2,32,-1
 450 855 l 1,33,-1
 936 855 l 1,34,-1
 936 1127 l 2,35,30
 936 1347 936 1347 693 1347 c 128,-1,31
EndSplineSet
Validated: 19457
EndChar

StartChar: Ccedilla
Encoding: 199 199 224
Width: 1409
Flags: W
HStem: -460 186<563 675.801> -19 183<530.438 564.548 778 835.934> 1346 184<571.09 862.506>
VStem: 110 330<241.559 1184.06> 682 240<-360.75 -170.727> 965 334<342.998 509 1111 1240.05>
LayerCount: 2
Fore
SplineSet
558 -19 m 1,0,1
 110 -4 110 -4 110 380 c 2,2,-1
 110 915 l 2,3,4
 110 1530 110 1530 813 1530 c 0,5,6
 1298 1530 1298 1530 1298 1111 c 1,7,-1
 968 1029 l 1,8,9
 968 1346 968 1346 711 1346 c 0,10,11
 440 1346 440 1346 440 913 c 2,12,-1
 440 384 l 2,13,14
 440 164 440 164 697 164 c 0,15,16
 931 164 931 164 965 509 c 1,17,-1
 1299 546 l 1,18,19
 1255 65 1255 65 778 -7 c 1,20,21
 781 -51 781 -51 818 -74 c 0,22,23
 922 -138 922 -138 922 -260 c 0,24,25
 922 -460 922 -460 563 -460 c 1,26,-1
 510 -274 l 1,27,28
 682 -274 682 -274 682 -224 c 0,29,30
 682 -202 682 -202 638 -171 c 0,31,32
 564 -118 564 -118 558 -19 c 1,0,1
EndSplineSet
Validated: 19457
EndChar

StartChar: Cacute
Encoding: 262 262 225
Width: 1409
Flags: W
HStem: -20 184<521.748 837.238> 1346 184<571.09 862.506>
VStem: 110 330<244.062 1184.06> 965 334<353.648 509 1111 1240.05>
LayerCount: 2
Fore
SplineSet
854 1969 m 1,0,-1
 1028 1799 l 1,1,-1
 732 1560 l 1,2,-1
 610 1678 l 1,3,-1
 854 1969 l 1,0,-1
595 -20 m 0,4,5
 110 -20 110 -20 110 380 c 2,6,-1
 110 915 l 2,7,8
 110 1530 110 1530 813 1530 c 0,9,10
 1298 1530 1298 1530 1298 1111 c 1,11,-1
 968 1029 l 1,12,13
 968 1346 968 1346 711 1346 c 0,14,15
 440 1346 440 1346 440 913 c 2,16,-1
 440 384 l 2,17,18
 440 164 440 164 697 164 c 0,19,20
 931 164 931 164 965 509 c 9,21,-1
 1299 546 l 1,22,23
 1247 -20 1247 -20 595 -20 c 0,4,5
EndSplineSet
Validated: 19457
EndChar

StartChar: Ccircumflex
Encoding: 264 264 226
Width: 1409
Flags: W
HStem: -20 184<521.748 837.238> 1346 184<571.09 862.506> 1754 215<620.5 835.5>
VStem: 110 330<244.062 1184.06> 965 334<353.648 509 1111 1240.05>
LayerCount: 2
Fore
SplineSet
728 1969 m 1,0,-1
 1072 1721 l 1,1,-1
 908 1560 l 1,2,-1
 728 1754 l 1,3,-1
 548 1560 l 1,4,-1
 384 1721 l 1,5,-1
 728 1969 l 1,0,-1
595 -20 m 0,6,7
 110 -20 110 -20 110 380 c 2,8,-1
 110 915 l 2,9,10
 110 1530 110 1530 813 1530 c 0,11,12
 1298 1530 1298 1530 1298 1111 c 1,13,-1
 968 1029 l 1,14,15
 968 1346 968 1346 711 1346 c 0,16,17
 440 1346 440 1346 440 913 c 2,18,-1
 440 384 l 2,19,20
 440 164 440 164 697 164 c 0,21,22
 931 164 931 164 965 509 c 9,23,-1
 1299 546 l 1,24,25
 1247 -20 1247 -20 595 -20 c 0,6,7
EndSplineSet
Validated: 19457
EndChar

StartChar: Cdotaccent
Encoding: 266 266 227
Width: 1409
Flags: W
HStem: -20 184<521.748 837.238> 1346 184<571.09 862.506> 1587 354<596.75 859.25>
VStem: 110 330<244.062 1184.06> 553 350<1631.25 1896.75> 965 334<353.648 509 1111 1240.05>
LayerCount: 2
Fore
SplineSet
728 1941 m 128,-1,1
 903 1941 903 1941 903 1764 c 128,-1,2
 903 1587 903 1587 728 1587 c 152,-1,3
 553 1587 553 1587 553 1764 c 128,-1,0
 553 1941 553 1941 728 1941 c 128,-1,1
595 -20 m 0,4,5
 110 -20 110 -20 110 380 c 2,6,-1
 110 915 l 2,7,8
 110 1530 110 1530 813 1530 c 0,9,10
 1298 1530 1298 1530 1298 1111 c 1,11,-1
 968 1029 l 1,12,13
 968 1346 968 1346 711 1346 c 0,14,15
 440 1346 440 1346 440 913 c 2,16,-1
 440 384 l 2,17,18
 440 164 440 164 697 164 c 0,19,20
 931 164 931 164 965 509 c 9,21,-1
 1299 546 l 1,22,23
 1247 -20 1247 -20 595 -20 c 0,4,5
EndSplineSet
Validated: 19457
EndChar

StartChar: Ccaron
Encoding: 268 268 228
Width: 1409
Flags: W
HStem: -20 184<521.748 837.238> 1346 184<571.09 862.506> 1560 215<634.5 849.5>
VStem: 110 330<244.062 1184.06> 965 334<353.648 509 1111 1240.05>
LayerCount: 2
Fore
SplineSet
562 1969 m 1,0,-1
 742 1775 l 1,1,-1
 922 1969 l 1,2,-1
 1086 1808 l 1,3,-1
 742 1560 l 1,4,-1
 398 1808 l 1,5,-1
 562 1969 l 1,0,-1
595 -20 m 0,6,7
 110 -20 110 -20 110 380 c 2,8,-1
 110 915 l 2,9,10
 110 1530 110 1530 813 1530 c 0,11,12
 1298 1530 1298 1530 1298 1111 c 1,13,-1
 968 1029 l 1,14,15
 968 1346 968 1346 711 1346 c 0,16,17
 440 1346 440 1346 440 913 c 2,18,-1
 440 384 l 2,19,20
 440 164 440 164 697 164 c 0,21,22
 931 164 931 164 965 509 c 9,23,-1
 1299 546 l 1,24,25
 1247 -20 1247 -20 595 -20 c 0,6,7
EndSplineSet
Validated: 19457
EndChar

StartChar: Dcaron
Encoding: 270 270 229
Width: 1408
Flags: W
HStem: 0 187<470 833.719> 1323 187<458 885.821> 1560 215<553.5 768.5>
VStem: 150 320<187 1320.55> 968 330<346.304 1246.5>
LayerCount: 2
Fore
SplineSet
481 1969 m 1,0,-1
 661 1775 l 1,1,-1
 841 1969 l 1,2,-1
 1005 1808 l 1,3,-1
 661 1560 l 1,4,-1
 317 1808 l 1,5,-1
 481 1969 l 1,0,-1
470 187 m 1,6,-1
 698 187 l 2,7,8
 968 187 968 187 968 616 c 2,9,-1
 968 1106 l 2,10,11
 968 1323 968 1323 710 1323 c 2,12,-1
 458 1323 l 1,13,14
 470 1258 470 1258 470 1187 c 2,15,-1
 470 187 l 1,6,-1
150 0 m 1,16,-1
 150 1193 l 2,17,18
 150 1370 150 1370 60 1510 c 1,19,-1
 813 1510 l 2,20,21
 1298 1510 1298 1510 1298 1111 c 2,22,-1
 1298 615 l 2,23,24
 1298 0 1298 0 621 0 c 2,25,-1
 150 0 l 1,16,-1
EndSplineSet
Validated: 19457
EndChar

StartChar: Egrave
Encoding: 200 200 230
Width: 1131
Flags: W
HStem: 0 187<470 971.325> 667 188<470 952> 1323 187<458 952>
VStem: 150 320<187 667 855 1320.91>
LayerCount: 2
Fore
SplineSet
427 1969 m 1,0,-1
 671 1678 l 1,1,-1
 549 1560 l 1,2,-1
 253 1799 l 1,3,-1
 427 1969 l 1,0,-1
150 0 m 1,4,-1
 150 1193 l 2,5,6
 150 1383 150 1383 60 1510 c 1,7,-1
 952 1510 l 1,8,-1
 952 1323 l 1,9,-1
 458 1323 l 1,10,11
 470 1256 470 1256 470 1189 c 2,12,-1
 470 855 l 1,13,-1
 952 855 l 1,14,-1
 952 667 l 1,15,-1
 470 667 l 1,16,-1
 470 187 l 1,17,-1
 741 187 l 2,18,19
 937 187 937 187 1101 302 c 1,20,-1
 1101 66 l 1,21,22
 944 0 944 0 741 0 c 2,23,-1
 150 0 l 1,4,-1
EndSplineSet
Validated: 19457
EndChar

StartChar: Eacute
Encoding: 201 201 231
Width: 1131
Flags: W
HStem: 0 187<470 971.325> 667 188<470 952> 1323 187<458 952>
VStem: 150 320<187 667 855 1320.91>
LayerCount: 2
Fore
SplineSet
661 1969 m 1,0,-1
 835 1799 l 1,1,-1
 539 1560 l 1,2,-1
 417 1678 l 1,3,-1
 661 1969 l 1,0,-1
150 0 m 1,4,-1
 150 1193 l 2,5,6
 150 1383 150 1383 60 1510 c 1,7,-1
 952 1510 l 1,8,-1
 952 1323 l 1,9,-1
 458 1323 l 1,10,11
 470 1256 470 1256 470 1189 c 2,12,-1
 470 855 l 1,13,-1
 952 855 l 1,14,-1
 952 667 l 1,15,-1
 470 667 l 1,16,-1
 470 187 l 1,17,-1
 741 187 l 2,18,19
 937 187 937 187 1101 302 c 1,20,-1
 1101 66 l 1,21,22
 944 0 944 0 741 0 c 2,23,-1
 150 0 l 1,4,-1
EndSplineSet
Validated: 19457
EndChar

StartChar: Ecircumflex
Encoding: 202 202 232
Width: 1131
Flags: W
HStem: 0 187<470 971.325> 667 188<470 952> 1323 187<458 952> 1754 215<419.5 634.5>
VStem: 150 320<187 667 855 1320.91>
LayerCount: 2
Fore
SplineSet
527 1969 m 1,0,-1
 871 1721 l 1,1,-1
 707 1560 l 1,2,-1
 527 1754 l 1,3,-1
 347 1560 l 1,4,-1
 183 1721 l 1,5,-1
 527 1969 l 1,0,-1
150 0 m 1,6,-1
 150 1193 l 2,7,8
 150 1383 150 1383 60 1510 c 1,9,-1
 952 1510 l 1,10,-1
 952 1323 l 1,11,-1
 458 1323 l 1,12,13
 470 1256 470 1256 470 1189 c 2,14,-1
 470 855 l 1,15,-1
 952 855 l 1,16,-1
 952 667 l 1,17,-1
 470 667 l 1,18,-1
 470 187 l 1,19,-1
 741 187 l 2,20,21
 937 187 937 187 1101 302 c 1,22,-1
 1101 66 l 1,23,24
 944 0 944 0 741 0 c 2,25,-1
 150 0 l 1,6,-1
EndSplineSet
Validated: 19457
EndChar

StartChar: Edieresis
Encoding: 203 203 233
Width: 1131
Flags: W
HStem: 0 187<470 971.325> 667 188<470 952> 1323 187<458 952> 1606 313<221.838 462.162 579.838 820.162>
VStem: 150 320<187 667 855 1320.91> 188 308<1640.39 1884.61> 546 308<1640.39 1884.61>
LayerCount: 2
Fore
SplineSet
700 1919 m 128,-1,1
 854 1919 854 1919 854 1762.5 c 128,-1,2
 854 1606 854 1606 700 1606 c 152,-1,3
 546 1606 546 1606 546 1762.5 c 128,-1,0
 546 1919 546 1919 700 1919 c 128,-1,1
342 1919 m 128,-1,5
 496 1919 496 1919 496 1762.5 c 128,-1,6
 496 1606 496 1606 342 1606 c 152,-1,7
 188 1606 188 1606 188 1762.5 c 128,-1,4
 188 1919 188 1919 342 1919 c 128,-1,5
150 0 m 1,8,-1
 150 1193 l 2,9,10
 150 1383 150 1383 60 1510 c 1,11,-1
 952 1510 l 1,12,-1
 952 1323 l 1,13,-1
 458 1323 l 1,14,15
 470 1256 470 1256 470 1189 c 2,16,-1
 470 855 l 1,17,-1
 952 855 l 1,18,-1
 952 667 l 1,19,-1
 470 667 l 1,20,-1
 470 187 l 1,21,-1
 741 187 l 2,22,23
 937 187 937 187 1101 302 c 1,24,-1
 1101 66 l 1,25,26
 944 0 944 0 741 0 c 2,27,-1
 150 0 l 1,8,-1
EndSplineSet
Validated: 19457
EndChar

StartChar: Emacron
Encoding: 274 274 234
Width: 1131
Flags: W
HStem: 0 187<470 971.325> 667 188<470 952> 1323 187<458 952> 1670 188<179 871>
VStem: 150 320<187 667 855 1320.91>
LayerCount: 2
Fore
SplineSet
179 1858 m 1,0,-1
 871 1858 l 1,1,-1
 871 1670 l 1,2,-1
 179 1670 l 1,3,-1
 179 1858 l 1,0,-1
150 0 m 1,4,-1
 150 1193 l 2,5,6
 150 1383 150 1383 60 1510 c 1,7,-1
 952 1510 l 1,8,-1
 952 1323 l 1,9,-1
 458 1323 l 1,10,11
 470 1256 470 1256 470 1189 c 2,12,-1
 470 855 l 1,13,-1
 952 855 l 1,14,-1
 952 667 l 1,15,-1
 470 667 l 1,16,-1
 470 187 l 1,17,-1
 741 187 l 2,18,19
 937 187 937 187 1101 302 c 1,20,-1
 1101 66 l 1,21,22
 944 0 944 0 741 0 c 2,23,-1
 150 0 l 1,4,-1
EndSplineSet
Validated: 19457
EndChar

StartChar: Ebreve
Encoding: 276 276 235
Width: 1131
Flags: W
HStem: 0 187<470 971.325> 667 188<470 952> 1323 187<458 952> 1641 153<418.629 603.371>
VStem: 150 320<187 667 855 1320.91>
LayerCount: 2
Fore
SplineSet
411 1915 m 1,0,1
 411 1794 411 1794 461 1794 c 2,2,-1
 561 1794 l 2,3,4
 611 1794 611 1794 611 1915 c 1,5,-1
 857 1858 l 1,6,7
 857 1641 857 1641 667 1641 c 2,8,-1
 355 1641 l 2,9,10
 165 1641 165 1641 165 1858 c 1,11,-1
 411 1915 l 1,0,1
150 0 m 1,12,-1
 150 1193 l 2,13,14
 150 1383 150 1383 60 1510 c 1,15,-1
 952 1510 l 1,16,-1
 952 1323 l 1,17,-1
 458 1323 l 1,18,19
 470 1256 470 1256 470 1189 c 2,20,-1
 470 855 l 1,21,-1
 952 855 l 1,22,-1
 952 667 l 1,23,-1
 470 667 l 1,24,-1
 470 187 l 1,25,-1
 741 187 l 2,26,27
 937 187 937 187 1101 302 c 1,28,-1
 1101 66 l 1,29,30
 944 0 944 0 741 0 c 2,31,-1
 150 0 l 1,12,-1
EndSplineSet
Validated: 19457
EndChar

StartChar: Edotaccent
Encoding: 278 278 236
Width: 1131
Flags: W
HStem: 0 187<470 971.325> 667 188<470 952> 1323 187<458 952> 1587 354<400.75 663.25>
VStem: 150 320<187 667 855 1320.91> 357 350<1631.25 1896.75>
LayerCount: 2
Fore
SplineSet
532 1941 m 128,-1,1
 707 1941 707 1941 707 1764 c 128,-1,2
 707 1587 707 1587 532 1587 c 152,-1,3
 357 1587 357 1587 357 1764 c 128,-1,0
 357 1941 357 1941 532 1941 c 128,-1,1
150 0 m 1,4,-1
 150 1193 l 2,5,6
 150 1383 150 1383 60 1510 c 1,7,-1
 952 1510 l 1,8,-1
 952 1323 l 1,9,-1
 458 1323 l 1,10,11
 470 1256 470 1256 470 1189 c 2,12,-1
 470 855 l 1,13,-1
 952 855 l 1,14,-1
 952 667 l 1,15,-1
 470 667 l 1,16,-1
 470 187 l 1,17,-1
 741 187 l 2,18,19
 937 187 937 187 1101 302 c 1,20,-1
 1101 66 l 1,21,22
 944 0 944 0 741 0 c 2,23,-1
 150 0 l 1,4,-1
EndSplineSet
Validated: 19457
EndChar

StartChar: Eogonek
Encoding: 280 280 237
Width: 1131
Flags: W
HStem: 0 187<470 700> 667 188<470 952> 1323 187<458 952>
VStem: 150 320<187 667 855 1320.91> 648 224<-216.599 -10.1038>
LayerCount: 2
Fore
SplineSet
150 0 m 1,0,-1
 150 1193 l 2,1,2
 150 1383 150 1383 60 1510 c 1,3,-1
 952 1510 l 1,4,-1
 952 1323 l 1,5,-1
 458 1323 l 1,6,7
 470 1256 470 1256 470 1189 c 2,8,-1
 470 855 l 1,9,-1
 952 855 l 1,10,-1
 952 667 l 1,11,-1
 470 667 l 1,12,-1
 470 187 l 1,13,-1
 741 187 l 2,14,15
 937 187 937 187 1101 302 c 1,16,-1
 1101 66 l 1,17,18
 1036 39 1036 39 964 23 c 1,19,20
 872 -15 872 -15 872 -127 c 0,21,22
 872 -233 872 -233 1017 -251 c 1,23,-1
 863 -460 l 1,24,25
 648 -363 648 -363 648 -154 c 0,26,27
 648 -65 648 -65 700 0 c 1,28,-1
 150 0 l 1,0,-1
EndSplineSet
Validated: 19457
EndChar

StartChar: Ecaron
Encoding: 282 282 238
Width: 1131
Flags: W
HStem: 0 187<470 971.325> 667 188<470 952> 1323 187<458 952> 1560 215<432.5 647.5>
VStem: 150 320<187 667 855 1320.91>
LayerCount: 2
Fore
SplineSet
360 1969 m 1,0,-1
 540 1775 l 1,1,-1
 720 1969 l 1,2,-1
 884 1808 l 1,3,-1
 540 1560 l 1,4,-1
 196 1808 l 1,5,-1
 360 1969 l 1,0,-1
150 0 m 1,6,-1
 150 1193 l 2,7,8
 150 1383 150 1383 60 1510 c 1,9,-1
 952 1510 l 1,10,-1
 952 1323 l 1,11,-1
 458 1323 l 1,12,13
 470 1256 470 1256 470 1189 c 2,14,-1
 470 855 l 1,15,-1
 952 855 l 1,16,-1
 952 667 l 1,17,-1
 470 667 l 1,18,-1
 470 187 l 1,19,-1
 741 187 l 2,20,21
 937 187 937 187 1101 302 c 1,22,-1
 1101 66 l 1,23,24
 944 0 944 0 741 0 c 2,25,-1
 150 0 l 1,6,-1
EndSplineSet
Validated: 19457
EndChar

StartChar: Gcircumflex
Encoding: 284 284 239
Width: 1408
Flags: W
HStem: -20 184<525.997 840.211> 607 188<751.625 968> 1346 184<567.789 864.807> 1754 215<620.5 835.5>
VStem: 110 330<244.062 1184.06> 968 330<331.188 607 1111 1231.71>
LayerCount: 2
Fore
SplineSet
728 1969 m 1,0,-1
 1072 1721 l 1,1,-1
 908 1560 l 1,2,-1
 728 1754 l 1,3,-1
 548 1560 l 1,4,-1
 384 1721 l 1,5,-1
 728 1969 l 1,0,-1
605 -20 m 0,6,7
 110 -20 110 -20 110 380 c 2,8,-1
 110 915 l 2,9,10
 110 1530 110 1530 803 1530 c 0,11,12
 1298 1530 1298 1530 1298 1111 c 1,13,-1
 968 1029 l 1,14,15
 966 1346 966 1346 711 1346 c 0,16,17
 440 1346 440 1346 440 913 c 2,18,-1
 440 384 l 2,19,20
 440 164 440 164 697 164 c 0,21,22
 968 164 968 164 968 592 c 2,23,-1
 968 607 l 1,24,25
 790 607 790 607 626 492 c 1,26,-1
 626 729 l 1,27,28
 786 795 786 795 986 795 c 2,29,-1
 1298 795 l 1,30,-1
 1298 599 l 2,31,32
 1298 -20 1298 -20 605 -20 c 0,6,7
EndSplineSet
Validated: 19457
EndChar

StartChar: Gbreve
Encoding: 286 286 240
Width: 1408
Flags: W
HStem: -20 184<525.997 840.211> 607 188<751.625 968> 1346 184<567.789 864.807> 1641 153<627.629 812.371>
VStem: 110 330<244.062 1184.06> 968 330<331.188 607 1111 1231.71>
LayerCount: 2
Fore
SplineSet
620 1915 m 1,0,1
 620 1794 620 1794 670 1794 c 2,2,-1
 770 1794 l 2,3,4
 820 1794 820 1794 820 1915 c 1,5,-1
 1066 1858 l 1,6,7
 1066 1641 1066 1641 876 1641 c 2,8,-1
 564 1641 l 2,9,10
 374 1641 374 1641 374 1858 c 1,11,-1
 620 1915 l 1,0,1
605 -20 m 0,12,13
 110 -20 110 -20 110 380 c 2,14,-1
 110 915 l 2,15,16
 110 1530 110 1530 803 1530 c 0,17,18
 1298 1530 1298 1530 1298 1111 c 1,19,-1
 968 1029 l 1,20,21
 966 1346 966 1346 711 1346 c 0,22,23
 440 1346 440 1346 440 913 c 2,24,-1
 440 384 l 2,25,26
 440 164 440 164 697 164 c 0,27,28
 968 164 968 164 968 592 c 2,29,-1
 968 607 l 1,30,31
 790 607 790 607 626 492 c 1,32,-1
 626 729 l 1,33,34
 786 795 786 795 986 795 c 2,35,-1
 1298 795 l 1,36,-1
 1298 599 l 2,37,38
 1298 -20 1298 -20 605 -20 c 0,12,13
EndSplineSet
Validated: 19457
EndChar

StartChar: Gdotaccent
Encoding: 288 288 241
Width: 1408
Flags: W
HStem: -20 184<525.997 840.211> 607 188<751.625 968> 1346 184<567.789 864.807> 1587 354<596.75 859.25>
VStem: 110 330<244.062 1184.06> 553 350<1631.25 1896.75> 968 330<331.188 607 1111 1231.71>
LayerCount: 2
Fore
SplineSet
728 1941 m 128,-1,1
 903 1941 903 1941 903 1764 c 128,-1,2
 903 1587 903 1587 728 1587 c 152,-1,3
 553 1587 553 1587 553 1764 c 128,-1,0
 553 1941 553 1941 728 1941 c 128,-1,1
605 -20 m 0,4,5
 110 -20 110 -20 110 380 c 2,6,-1
 110 915 l 2,7,8
 110 1530 110 1530 803 1530 c 0,9,10
 1298 1530 1298 1530 1298 1111 c 1,11,-1
 968 1029 l 1,12,13
 966 1346 966 1346 711 1346 c 0,14,15
 440 1346 440 1346 440 913 c 2,16,-1
 440 384 l 2,17,18
 440 164 440 164 697 164 c 0,19,20
 968 164 968 164 968 592 c 2,21,-1
 968 607 l 1,22,23
 790 607 790 607 626 492 c 1,24,-1
 626 729 l 1,25,26
 786 795 786 795 986 795 c 2,27,-1
 1298 795 l 1,28,-1
 1298 599 l 2,29,30
 1298 -20 1298 -20 605 -20 c 0,4,5
EndSplineSet
Validated: 19457
EndChar

StartChar: Gcommaaccent
Encoding: 290 290 242
Width: 1408
Flags: W
HStem: -20 184<525.997 840.211> 607 188<751.625 968> 1346 184<567.789 864.807>
VStem: 110 330<244.062 1184.06> 968 330<331.188 607 1111 1231.71>
LayerCount: 2
Fore
SplineSet
682 -50 m 1,0,-1
 856 -220 l 1,1,-1
 560 -459 l 1,2,-1
 438 -341 l 1,3,-1
 682 -50 l 1,0,-1
605 -20 m 0,4,5
 110 -20 110 -20 110 380 c 2,6,-1
 110 915 l 2,7,8
 110 1530 110 1530 803 1530 c 0,9,10
 1298 1530 1298 1530 1298 1111 c 1,11,-1
 968 1029 l 1,12,13
 966 1346 966 1346 711 1346 c 0,14,15
 440 1346 440 1346 440 913 c 2,16,-1
 440 384 l 2,17,18
 440 164 440 164 697 164 c 0,19,20
 968 164 968 164 968 592 c 2,21,-1
 968 607 l 1,22,23
 790 607 790 607 626 492 c 1,24,-1
 626 729 l 1,25,26
 786 795 786 795 986 795 c 2,27,-1
 1298 795 l 1,28,-1
 1298 599 l 2,29,30
 1298 -20 1298 -20 605 -20 c 0,4,5
EndSplineSet
Validated: 19457
EndChar

StartChar: Hcircumflex
Encoding: 292 292 243
Width: 1426
Flags: W
HStem: 0 21G<150 470 987.5 1366> 665 188<470 956> 1490 20G<60 438 956 1276> 1754 215<590.5 805.5>
VStem: 150 320<0 665 853 1424.12> 956 320<88.7146 665 853 1510>
LayerCount: 2
Fore
SplineSet
698 1969 m 1,0,-1
 1042 1721 l 1,1,-1
 878 1560 l 1,2,-1
 698 1754 l 1,3,-1
 518 1560 l 1,4,-1
 354 1721 l 1,5,-1
 698 1969 l 1,0,-1
150 0 m 1,6,-1
 150 1193 l 2,7,8
 150 1374 150 1374 60 1510 c 1,9,-1
 406 1510 l 1,10,11
 470 1371 470 1371 470 1194 c 2,12,-1
 470 853 l 1,13,-1
 956 853 l 1,14,-1
 956 1510 l 1,15,-1
 1276 1510 l 1,16,-1
 1276 317 l 2,17,18
 1276 138 1276 138 1366 0 c 1,19,-1
 1019 0 l 1,20,21
 956 146 956 146 956 315 c 2,22,-1
 956 665 l 1,23,-1
 470 665 l 1,24,-1
 470 0 l 1,25,-1
 150 0 l 1,6,-1
EndSplineSet
Validated: 19457
EndChar

StartChar: Igrave
Encoding: 204 204 244
Width: 720
Flags: W
HStem: 0 21G<200 520> 1490 20G<110 488>
VStem: 200 320<0 1423.61>
LayerCount: 2
Fore
SplineSet
170 1969 m 1,0,-1
 414 1678 l 1,1,-1
 292 1560 l 1,2,-1
 -4 1799 l 1,3,-1
 170 1969 l 1,0,-1
200 0 m 1,4,-1
 200 1193 l 2,5,6
 200 1374 200 1374 110 1510 c 1,7,-1
 456 1510 l 1,8,9
 520 1370 520 1370 520 1193 c 2,10,-1
 520 0 l 1,11,-1
 200 0 l 1,4,-1
EndSplineSet
Validated: 1
EndChar

StartChar: Iacute
Encoding: 205 205 245
Width: 720
Flags: W
HStem: 0 21G<200 520> 1490 20G<110 488>
VStem: 200 320<0 1423.61>
LayerCount: 2
Fore
SplineSet
419 1969 m 1,0,-1
 593 1799 l 1,1,-1
 297 1560 l 1,2,-1
 175 1678 l 1,3,-1
 419 1969 l 1,0,-1
200 0 m 1,4,-1
 200 1193 l 2,5,6
 200 1374 200 1374 110 1510 c 1,7,-1
 456 1510 l 1,8,9
 520 1370 520 1370 520 1193 c 2,10,-1
 520 0 l 1,11,-1
 200 0 l 1,4,-1
EndSplineSet
Validated: 1
EndChar

StartChar: Icircumflex
Encoding: 206 206 246
Width: 720
Flags: W
HStem: 0 21G<200 520> 1490 20G<110 488> 1754 215<252.5 467.5>
VStem: 200 320<0 1423.61>
LayerCount: 2
Fore
SplineSet
200 0 m 1,0,-1
 200 1193 l 2,1,2
 200 1374 200 1374 110 1510 c 1,3,-1
 456 1510 l 1,4,5
 520 1370 520 1370 520 1193 c 2,6,-1
 520 0 l 1,7,-1
 200 0 l 1,0,-1
360 1969 m 1,8,-1
 704 1721 l 1,9,-1
 540 1560 l 1,10,-1
 360 1754 l 1,11,-1
 180 1560 l 1,12,-1
 16 1721 l 1,13,-1
 360 1969 l 1,8,-1
EndSplineSet
Validated: 1
EndChar

StartChar: Idieresis
Encoding: 207 207 247
Width: 720
Flags: W
HStem: 0 21G<200 520> 1490 20G<110 488> 1606 314<60.8379 301.162 418.838 659.162>
VStem: 27 308<1640.5 1885.5> 200 320<0 1423.61> 385 308<1640.5 1885.5>
LayerCount: 2
Fore
SplineSet
200 0 m 1,0,-1
 200 1193 l 2,1,2
 200 1374 200 1374 110 1510 c 1,3,-1
 456 1510 l 1,4,5
 520 1370 520 1370 520 1193 c 2,6,-1
 520 0 l 1,7,-1
 200 0 l 1,0,-1
539 1920 m 128,-1,9
 693 1920 693 1920 693 1763 c 128,-1,10
 693 1606 693 1606 539 1606 c 152,-1,11
 385 1606 385 1606 385 1763 c 128,-1,8
 385 1920 385 1920 539 1920 c 128,-1,9
181 1920 m 128,-1,13
 335 1920 335 1920 335 1763 c 128,-1,14
 335 1606 335 1606 181 1606 c 152,-1,15
 27 1606 27 1606 27 1763 c 128,-1,12
 27 1920 27 1920 181 1920 c 128,-1,13
EndSplineSet
Validated: 1
EndChar

StartChar: Itilde
Encoding: 296 296 248
Width: 720
Flags: W
HStem: 0 21G<200 520> 1490 20G<110 488> 1624 140<402.916 622.5> 1764 139<94 302.246>
VStem: 14 215<1670 1760.79> 200 320<0 1423.61> 490 215<1766.21 1857>
LayerCount: 2
Fore
SplineSet
200 0 m 1,0,-1
 200 1193 l 2,1,2
 200 1374 200 1374 110 1510 c 1,3,-1
 456 1510 l 1,4,5
 520 1370 520 1370 520 1193 c 2,6,-1
 520 0 l 1,7,-1
 200 0 l 1,0,-1
174 1903 m 24,8,9
 331 1903 331 1903 413 1796 c 0,10,11
 437 1764 437 1764 450 1764 c 0,12,13
 490 1764 490 1764 490 1917 c 1,14,-1
 705 1857 l 1,15,16
 705 1624 705 1624 540 1624 c 24,17,18
 365 1624 365 1624 297 1729 c 0,19,20
 275 1764 275 1764 262 1764 c 0,21,22
 229 1764 229 1764 229 1610 c 1,23,-1
 14 1670 l 1,24,25
 14 1903 14 1903 174 1903 c 24,8,9
EndSplineSet
Validated: 1
EndChar

StartChar: Imacron
Encoding: 298 298 249
Width: 720
Flags: W
HStem: 0 21G<200 520> 1490 20G<110 488> 1670 188<14 706>
VStem: 200 320<0 1423.61>
LayerCount: 2
Fore
SplineSet
200 0 m 1,0,-1
 200 1193 l 2,1,2
 200 1374 200 1374 110 1510 c 1,3,-1
 456 1510 l 1,4,5
 520 1370 520 1370 520 1193 c 2,6,-1
 520 0 l 1,7,-1
 200 0 l 1,0,-1
14 1858 m 1,8,-1
 706 1858 l 1,9,-1
 706 1670 l 1,10,-1
 14 1670 l 1,11,-1
 14 1858 l 1,8,-1
EndSplineSet
Validated: 1
EndChar

StartChar: Ibreve
Encoding: 300 300 250
Width: 720
Flags: W
HStem: 0 21G<200 520> 1490 20G<110 488> 1641 153<267.629 452.371>
VStem: 200 320<0 1423.61>
LayerCount: 2
Fore
SplineSet
200 0 m 1,0,-1
 200 1193 l 2,1,2
 200 1374 200 1374 110 1510 c 1,3,-1
 456 1510 l 1,4,5
 520 1370 520 1370 520 1193 c 2,6,-1
 520 0 l 1,7,-1
 200 0 l 1,0,-1
260 1915 m 1,8,9
 260 1794 260 1794 310 1794 c 2,10,-1
 410 1794 l 2,11,12
 460 1794 460 1794 460 1915 c 1,13,-1
 706 1858 l 1,14,15
 706 1641 706 1641 516 1641 c 2,16,-1
 204 1641 l 2,17,18
 14 1641 14 1641 14 1858 c 1,19,-1
 260 1915 l 1,8,9
EndSplineSet
Validated: 1
EndChar

StartChar: Iogonek
Encoding: 302 302 251
Width: 640
Flags: W
HStem: 1490 20G<80 458>
VStem: 0 224<-216.599 -38.5367> 170 320<65.8523 1423.61>
LayerCount: 2
Fore
SplineSet
490 0 m 1,0,-1
 365 0 l 1,1,2
 224 -26 224 -26 224 -127 c 0,3,4
 224 -233 224 -233 369 -251 c 1,5,-1
 215 -460 l 1,6,7
 0 -363 0 -363 0 -154 c 0,8,9
 0 7 0 7 170 91 c 1,10,-1
 170 1193 l 2,11,12
 170 1374 170 1374 80 1510 c 1,13,-1
 426 1510 l 1,14,15
 490 1370 490 1370 490 1193 c 2,16,-1
 490 0 l 1,0,-1
EndSplineSet
Validated: 19457
EndChar

StartChar: Idotaccent
Encoding: 304 304 252
Width: 620
Flags: W
HStem: 0 21G<150 470> 1490 20G<60 438> 1587 354<119.75 382.25>
VStem: 76 350<1631.25 1896.75> 150 320<0 1423.61>
LayerCount: 2
Fore
SplineSet
251 1941 m 128,-1,1
 426 1941 426 1941 426 1764 c 128,-1,2
 426 1587 426 1587 251 1587 c 152,-1,3
 76 1587 76 1587 76 1764 c 128,-1,0
 76 1941 76 1941 251 1941 c 128,-1,1
150 0 m 1,4,-1
 150 1193 l 2,5,6
 150 1374 150 1374 60 1510 c 1,7,-1
 406 1510 l 1,8,9
 470 1370 470 1370 470 1193 c 2,10,-1
 470 0 l 1,11,-1
 150 0 l 1,4,-1
EndSplineSet
Validated: 19457
EndChar

StartChar: IJ
Encoding: 306 306 253
Width: 1663
Flags: W
HStem: -20 184<707 1105.58> 0 21G<150 470> 1323 187<864.945 1193>
VStem: 150 320<0 1423.61> 1193 320<265.833 1323>
LayerCount: 2
Fore
SplineSet
889 -20 m 0,0,1
 525 -20 525 -20 525 319 c 1,2,-1
 855 401 l 1,3,4
 855 164 855 164 991 164 c 0,5,6
 1193 164 1193 164 1193 497 c 2,7,-1
 1193 1323 l 1,8,-1
 1103 1323 l 2,9,10
 919 1323 919 1323 743 1220 c 1,11,-1
 743 1444 l 1,12,13
 895 1510 895 1510 1103 1510 c 2,14,-1
 1513 1510 l 1,15,-1
 1513 510 l 2,16,17
 1513 -20 1513 -20 889 -20 c 0,0,1
150 0 m 1,18,-1
 150 1193 l 2,19,20
 150 1374 150 1374 60 1510 c 1,21,-1
 406 1510 l 1,22,23
 470 1370 470 1370 470 1193 c 2,24,-1
 470 0 l 1,25,-1
 150 0 l 1,18,-1
EndSplineSet
Validated: 19457
EndChar

StartChar: Jcircumflex
Encoding: 308 308 254
Width: 1148
Flags: W
HStem: -20 184<192 590.581> 1323 187<349.945 678> 1754 215<521.5 736.5>
VStem: 678 320<265.833 1323>
LayerCount: 2
Fore
SplineSet
629 1969 m 1,0,-1
 973 1721 l 1,1,-1
 809 1560 l 1,2,-1
 629 1754 l 1,3,-1
 449 1560 l 1,4,-1
 285 1721 l 1,5,-1
 629 1969 l 1,0,-1
374 -20 m 0,6,7
 10 -20 10 -20 10 319 c 1,8,-1
 340 401 l 1,9,10
 340 164 340 164 476 164 c 0,11,12
 678 164 678 164 678 497 c 2,13,-1
 678 1323 l 1,14,-1
 588 1323 l 2,15,16
 404 1323 404 1323 228 1220 c 1,17,-1
 228 1444 l 1,18,19
 380 1510 380 1510 588 1510 c 2,20,-1
 998 1510 l 1,21,-1
 998 510 l 2,22,23
 998 -20 998 -20 374 -20 c 0,6,7
EndSplineSet
Validated: 19457
EndChar

StartChar: Kcommaaccent
Encoding: 310 310 255
Width: 1336
Flags: W
HStem: 0 21G<150 470 888 1276> 665 188<470 762.845> 1490 20G<60 439.5 840 1170>
VStem: 150 320<0 665 853 1431.55> 840 330<1014.17 1510> 857 330<83.9692 558.688>
LayerCount: 2
Fore
SplineSet
676 -50 m 1,0,-1
 850 -220 l 1,1,-1
 554 -459 l 1,2,-1
 432 -341 l 1,3,-1
 676 -50 l 1,0,-1
150 0 m 1,4,-1
 150 1193 l 2,5,6
 150 1389 150 1389 60 1510 c 1,7,-1
 409 1510 l 1,8,9
 470 1379 470 1379 470 1194 c 2,10,-1
 470 853 l 1,11,-1
 652 853 l 2,12,13
 840 853 840 853 840 1179 c 2,14,-1
 840 1510 l 1,15,-1
 1170 1510 l 1,16,-1
 1170 1284 l 2,17,18
 1170 922 1170 922 935 780 c 1,19,20
 1187 640 1187 640 1187 331 c 2,21,-1
 1187 318 l 2,22,23
 1187 134 1187 134 1276 0 c 1,24,-1
 919 0 l 1,25,26
 857 132 857 132 857 315 c 2,27,-1
 857 329 l 2,28,29
 857 665 857 665 652 665 c 2,30,-1
 470 665 l 1,31,-1
 470 0 l 1,32,-1
 150 0 l 1,4,-1
EndSplineSet
Validated: 19457
EndChar

StartChar: Lacute
Encoding: 313 313 256
Width: 1111
Flags: W
HStem: 0 187<470 971.325> 1490 20G<60 438>
VStem: 150 320<187 1423.61>
LayerCount: 2
Fore
SplineSet
367 1969 m 1,0,-1
 541 1799 l 1,1,-1
 245 1560 l 1,2,-1
 123 1678 l 1,3,-1
 367 1969 l 1,0,-1
150 0 m 1,4,-1
 150 1193 l 2,5,6
 150 1374 150 1374 60 1510 c 1,7,-1
 406 1510 l 1,8,9
 470 1370 470 1370 470 1193 c 2,10,-1
 470 187 l 1,11,-1
 741 187 l 2,12,13
 937 187 937 187 1101 302 c 1,14,-1
 1101 66 l 1,15,16
 944 0 944 0 741 0 c 2,17,-1
 150 0 l 1,4,-1
EndSplineSet
Validated: 19457
EndChar

StartChar: Lcommaaccent
Encoding: 315 315 257
Width: 1111
Flags: W
HStem: 0 187<470 971.325> 1490 20G<60 438>
VStem: 150 320<187 1423.61>
LayerCount: 2
Fore
SplineSet
562 -50 m 1,0,-1
 736 -220 l 1,1,-1
 440 -459 l 1,2,-1
 318 -341 l 1,3,-1
 562 -50 l 1,0,-1
150 0 m 1,4,-1
 150 1193 l 2,5,6
 150 1374 150 1374 60 1510 c 1,7,-1
 406 1510 l 1,8,9
 470 1370 470 1370 470 1193 c 2,10,-1
 470 187 l 1,11,-1
 741 187 l 2,12,13
 937 187 937 187 1101 302 c 1,14,-1
 1101 66 l 1,15,16
 944 0 944 0 741 0 c 2,17,-1
 150 0 l 1,4,-1
EndSplineSet
Validated: 19457
EndChar

StartChar: Lcaron
Encoding: 317 317 258
Width: 1111
Flags: W
HStem: 0 187<470 971.325> 1104 21G<617.072 674.086> 1510 0G<60 438 629.717 681.4>
VStem: 150 320<187 1423.61>
LayerCount: 2
Fore
SplineSet
637 1530 m 1,0,-1
 859 1430 l 1,1,-1
 662 1104 l 1,2,-1
 507 1173 l 1,3,-1
 637 1530 l 1,0,-1
150 0 m 1,4,-1
 150 1193 l 2,5,6
 150 1374 150 1374 60 1510 c 1,7,-1
 406 1510 l 1,8,9
 470 1370 470 1370 470 1193 c 2,10,-1
 470 187 l 1,11,-1
 741 187 l 2,12,13
 937 187 937 187 1101 302 c 1,14,-1
 1101 66 l 1,15,16
 944 0 944 0 741 0 c 2,17,-1
 150 0 l 1,4,-1
EndSplineSet
Validated: 19457
EndChar

StartChar: Ldot
Encoding: 319 319 259
Width: 1111
Flags: W
HStem: 0 187<470 971.325> 656 354<579.75 842.25> 1490 20G<60 438>
VStem: 150 320<187 1423.61> 536 350<700.25 965.75>
LayerCount: 2
Fore
SplineSet
711 1010 m 128,-1,1
 886 1010 886 1010 886 833 c 128,-1,2
 886 656 886 656 711 656 c 152,-1,3
 536 656 536 656 536 833 c 128,-1,0
 536 1010 536 1010 711 1010 c 128,-1,1
150 0 m 1,4,-1
 150 1193 l 2,5,6
 150 1374 150 1374 60 1510 c 1,7,-1
 406 1510 l 1,8,9
 470 1370 470 1370 470 1193 c 2,10,-1
 470 187 l 1,11,-1
 741 187 l 2,12,13
 937 187 937 187 1101 302 c 1,14,-1
 1101 66 l 1,15,16
 944 0 944 0 741 0 c 2,17,-1
 150 0 l 1,4,-1
EndSplineSet
Validated: 19457
EndChar

StartChar: Ntilde
Encoding: 209 209 260
Width: 1426
Flags: W
HStem: 0 21G<150 470 965 1275.01> 1274 236<465 631.617> 1624 140<762.916 982.5> 1764 139<454 662.246>
VStem: 150 320<0 1268.88> 374 215<1670 1760.79> 850 215<1766.21 1857> 965 311<0 644.154 1103 1510>
LayerCount: 2
Fore
SplineSet
534 1903 m 24,0,1
 691 1903 691 1903 773 1796 c 0,2,3
 797 1764 797 1764 810 1764 c 0,4,5
 850 1764 850 1764 850 1917 c 1,6,-1
 1065 1857 l 1,7,8
 1065 1624 1065 1624 900 1624 c 24,9,10
 725 1624 725 1624 657 1729 c 0,11,12
 635 1764 635 1764 622 1764 c 0,13,14
 589 1764 589 1764 589 1610 c 1,15,-1
 374 1670 l 1,16,17
 374 1903 374 1903 534 1903 c 24,0,1
150 0 m 1,18,-1
 150 1193 l 2,19,20
 150 1387 150 1387 60 1510 c 1,21,-1
 360 1510 l 2,22,23
 885 1510 885 1510 955 1103 c 1,24,-1
 965 1103 l 1,25,-1
 965 1510 l 1,26,-1
 1276 1510 l 1,27,-1
 1275 0 l 1,28,-1
 965 0 l 1,29,30
 965 1274 965 1274 465 1274 c 1,31,32
 470 1237 470 1237 470 1192 c 2,33,-1
 470 0 l 1,34,-1
 150 0 l 1,18,-1
EndSplineSet
Validated: 19457
EndChar

StartChar: Nacute
Encoding: 323 323 261
Width: 1426
Flags: W
HStem: 0 21G<150 470 965 1275.01> 1274 236<465 631.617>
VStem: 150 320<0 1268.88> 965 311<0 644.154 1103 1510>
LayerCount: 2
Fore
SplineSet
854 1969 m 1,0,-1
 1028 1799 l 1,1,-1
 732 1560 l 1,2,-1
 610 1678 l 1,3,-1
 854 1969 l 1,0,-1
150 0 m 1,4,-1
 150 1193 l 2,5,6
 150 1387 150 1387 60 1510 c 1,7,-1
 360 1510 l 2,8,9
 885 1510 885 1510 955 1103 c 1,10,-1
 965 1103 l 1,11,-1
 965 1510 l 1,12,-1
 1276 1510 l 1,13,-1
 1275 0 l 1,14,-1
 965 0 l 1,15,16
 965 1274 965 1274 465 1274 c 1,17,18
 470 1237 470 1237 470 1192 c 2,19,-1
 470 0 l 1,20,-1
 150 0 l 1,4,-1
EndSplineSet
Validated: 19457
EndChar

StartChar: Ncommaaccent
Encoding: 325 325 262
Width: 1426
Flags: W
HStem: 0 21G<150 470 965 1275.01> 1274 236<465 631.617>
VStem: 150 320<0 1268.88> 965 311<0 644.154 1103 1510>
LayerCount: 2
Fore
SplineSet
699 -50 m 1,0,-1
 873 -220 l 1,1,-1
 577 -459 l 1,2,-1
 455 -341 l 1,3,-1
 699 -50 l 1,0,-1
150 0 m 1,4,-1
 150 1193 l 2,5,6
 150 1387 150 1387 60 1510 c 1,7,-1
 360 1510 l 2,8,9
 885 1510 885 1510 955 1103 c 1,10,-1
 965 1103 l 1,11,-1
 965 1510 l 1,12,-1
 1276 1510 l 1,13,-1
 1275 0 l 1,14,-1
 965 0 l 1,15,16
 965 1274 965 1274 465 1274 c 1,17,18
 470 1237 470 1237 470 1192 c 2,19,-1
 470 0 l 1,20,-1
 150 0 l 1,4,-1
EndSplineSet
Validated: 19457
EndChar

StartChar: Ncaron
Encoding: 327 327 263
Width: 1426
Flags: W
HStem: 0 21G<150 470 965 1275.01> 1274 236<465 631.617> 1560 215<582.5 797.5>
VStem: 150 320<0 1268.88> 965 311<0 644.154 1103 1510>
LayerCount: 2
Fore
SplineSet
510 1969 m 1,0,-1
 690 1775 l 1,1,-1
 870 1969 l 1,2,-1
 1034 1808 l 1,3,-1
 690 1560 l 1,4,-1
 346 1808 l 1,5,-1
 510 1969 l 1,0,-1
150 0 m 1,6,-1
 150 1193 l 2,7,8
 150 1387 150 1387 60 1510 c 1,9,-1
 360 1510 l 2,10,11
 885 1510 885 1510 955 1103 c 1,12,-1
 965 1103 l 1,13,-1
 965 1510 l 1,14,-1
 1276 1510 l 1,15,-1
 1275 0 l 1,16,-1
 965 0 l 1,17,18
 965 1274 965 1274 465 1274 c 1,19,20
 470 1237 470 1237 470 1192 c 2,21,-1
 470 0 l 1,22,-1
 150 0 l 1,6,-1
EndSplineSet
Validated: 19457
EndChar

StartChar: Ograve
Encoding: 210 210 264
Width: 1408
Flags: W
HStem: -20 184<525.997 840.211> 1346 184<567.789 882.003>
VStem: 110 330<244.062 1184.06> 968 330<325.938 1265.94>
LayerCount: 2
Fore
SplineSet
628 1969 m 1,0,-1
 872 1678 l 1,1,-1
 750 1560 l 1,2,-1
 454 1799 l 1,3,-1
 628 1969 l 1,0,-1
697 164 m 0,4,5
 968 164 968 164 968 597 c 2,6,-1
 968 1126 l 2,7,8
 968 1346 968 1346 711 1346 c 0,9,10
 440 1346 440 1346 440 913 c 2,11,-1
 440 384 l 2,12,13
 440 164 440 164 697 164 c 0,4,5
605 -20 m 0,14,15
 110 -20 110 -20 110 380 c 2,16,-1
 110 915 l 2,17,18
 110 1530 110 1530 803 1530 c 0,19,20
 1298 1530 1298 1530 1298 1130 c 2,21,-1
 1298 595 l 2,22,23
 1298 -20 1298 -20 605 -20 c 0,14,15
EndSplineSet
Validated: 19457
EndChar

StartChar: Oacute
Encoding: 211 211 265
Width: 1408
Flags: W
HStem: -20 184<525.997 840.211> 1346 184<567.789 882.003>
VStem: 110 330<244.062 1184.06> 968 330<325.938 1265.94>
LayerCount: 2
Fore
SplineSet
854 1969 m 1,0,-1
 1028 1799 l 1,1,-1
 732 1560 l 1,2,-1
 610 1678 l 1,3,-1
 854 1969 l 1,0,-1
697 164 m 0,4,5
 968 164 968 164 968 597 c 2,6,-1
 968 1126 l 2,7,8
 968 1346 968 1346 711 1346 c 0,9,10
 440 1346 440 1346 440 913 c 2,11,-1
 440 384 l 2,12,13
 440 164 440 164 697 164 c 0,4,5
605 -20 m 0,14,15
 110 -20 110 -20 110 380 c 2,16,-1
 110 915 l 2,17,18
 110 1530 110 1530 803 1530 c 0,19,20
 1298 1530 1298 1530 1298 1130 c 2,21,-1
 1298 595 l 2,22,23
 1298 -20 1298 -20 605 -20 c 0,14,15
EndSplineSet
Validated: 19457
EndChar

StartChar: Ocircumflex
Encoding: 212 212 266
Width: 1408
Flags: W
HStem: -20 184<525.997 840.211> 1346 184<567.789 882.003> 1754 215<620.5 835.5>
VStem: 110 330<244.062 1184.06> 968 330<325.938 1265.94>
LayerCount: 2
Fore
SplineSet
728 1969 m 1,0,-1
 1072 1721 l 1,1,-1
 908 1560 l 1,2,-1
 728 1754 l 1,3,-1
 548 1560 l 1,4,-1
 384 1721 l 1,5,-1
 728 1969 l 1,0,-1
697 164 m 0,6,7
 968 164 968 164 968 597 c 2,8,-1
 968 1126 l 2,9,10
 968 1346 968 1346 711 1346 c 0,11,12
 440 1346 440 1346 440 913 c 2,13,-1
 440 384 l 2,14,15
 440 164 440 164 697 164 c 0,6,7
605 -20 m 0,16,17
 110 -20 110 -20 110 380 c 2,18,-1
 110 915 l 2,19,20
 110 1530 110 1530 803 1530 c 0,21,22
 1298 1530 1298 1530 1298 1130 c 2,23,-1
 1298 595 l 2,24,25
 1298 -20 1298 -20 605 -20 c 0,16,17
EndSplineSet
Validated: 19457
EndChar

StartChar: Otilde
Encoding: 213 213 267
Width: 1408
Flags: W
HStem: -20 184<525.997 840.211> 1346 184<567.789 882.003> 1624 140<762.916 982.5> 1764 139<454 662.246>
VStem: 110 330<244.062 1184.06> 374 215<1670 1760.79> 850 215<1766.21 1857> 968 330<325.938 1265.94>
LayerCount: 2
Fore
SplineSet
534 1903 m 24,0,1
 691 1903 691 1903 773 1796 c 0,2,3
 797 1764 797 1764 810 1764 c 0,4,5
 850 1764 850 1764 850 1917 c 1,6,-1
 1065 1857 l 1,7,8
 1065 1624 1065 1624 900 1624 c 24,9,10
 725 1624 725 1624 657 1729 c 0,11,12
 635 1764 635 1764 622 1764 c 0,13,14
 589 1764 589 1764 589 1610 c 1,15,-1
 374 1670 l 1,16,17
 374 1903 374 1903 534 1903 c 24,0,1
697 164 m 0,18,19
 968 164 968 164 968 597 c 2,20,-1
 968 1126 l 2,21,22
 968 1346 968 1346 711 1346 c 0,23,24
 440 1346 440 1346 440 913 c 2,25,-1
 440 384 l 2,26,27
 440 164 440 164 697 164 c 0,18,19
605 -20 m 0,28,29
 110 -20 110 -20 110 380 c 2,30,-1
 110 915 l 2,31,32
 110 1530 110 1530 803 1530 c 0,33,34
 1298 1530 1298 1530 1298 1130 c 2,35,-1
 1298 595 l 2,36,37
 1298 -20 1298 -20 605 -20 c 0,28,29
EndSplineSet
Validated: 19457
EndChar

StartChar: Odieresis
Encoding: 214 214 268
Width: 1408
Flags: W
HStem: -20 184<525.997 840.211> 1346 184<567.789 882.003> 1606 314<420.838 661.162 778.838 1019.16>
VStem: 110 330<244.062 1184.06> 387 308<1640.5 1885.5> 745 308<1640.5 1885.5> 968 330<325.938 1265.94>
LayerCount: 2
Fore
SplineSet
899 1920 m 128,-1,1
 1053 1920 1053 1920 1053 1763 c 128,-1,2
 1053 1606 1053 1606 899 1606 c 152,-1,3
 745 1606 745 1606 745 1763 c 128,-1,0
 745 1920 745 1920 899 1920 c 128,-1,1
541 1920 m 128,-1,5
 695 1920 695 1920 695 1763 c 128,-1,6
 695 1606 695 1606 541 1606 c 152,-1,7
 387 1606 387 1606 387 1763 c 128,-1,4
 387 1920 387 1920 541 1920 c 128,-1,5
697 164 m 0,8,9
 968 164 968 164 968 597 c 2,10,-1
 968 1126 l 2,11,12
 968 1346 968 1346 711 1346 c 0,13,14
 440 1346 440 1346 440 913 c 2,15,-1
 440 384 l 2,16,17
 440 164 440 164 697 164 c 0,8,9
605 -20 m 0,18,19
 110 -20 110 -20 110 380 c 2,20,-1
 110 915 l 2,21,22
 110 1530 110 1530 803 1530 c 0,23,24
 1298 1530 1298 1530 1298 1130 c 2,25,-1
 1298 595 l 2,26,27
 1298 -20 1298 -20 605 -20 c 0,18,19
EndSplineSet
Validated: 19457
EndChar

StartChar: Omacron
Encoding: 332 332 269
Width: 1408
Flags: W
HStem: -20 184<525.997 840.211> 1346 184<567.789 882.003> 1670 188<374 1066>
VStem: 110 330<244.062 1184.06> 968 330<325.938 1265.94>
LayerCount: 2
Fore
SplineSet
374 1858 m 1,0,-1
 1066 1858 l 1,1,-1
 1066 1670 l 1,2,-1
 374 1670 l 1,3,-1
 374 1858 l 1,0,-1
697 164 m 0,4,5
 968 164 968 164 968 597 c 2,6,-1
 968 1126 l 2,7,8
 968 1346 968 1346 711 1346 c 0,9,10
 440 1346 440 1346 440 913 c 2,11,-1
 440 384 l 2,12,13
 440 164 440 164 697 164 c 0,4,5
605 -20 m 0,14,15
 110 -20 110 -20 110 380 c 2,16,-1
 110 915 l 2,17,18
 110 1530 110 1530 803 1530 c 0,19,20
 1298 1530 1298 1530 1298 1130 c 2,21,-1
 1298 595 l 2,22,23
 1298 -20 1298 -20 605 -20 c 0,14,15
EndSplineSet
Validated: 19457
EndChar

StartChar: Obreve
Encoding: 334 334 270
Width: 1408
Flags: W
HStem: -20 184<525.997 840.211> 1346 184<567.789 882.003> 1641 153<627.629 812.371>
VStem: 110 330<244.062 1184.06> 968 330<325.938 1265.94>
LayerCount: 2
Fore
SplineSet
620 1915 m 1,0,1
 620 1794 620 1794 670 1794 c 2,2,-1
 770 1794 l 2,3,4
 820 1794 820 1794 820 1915 c 1,5,-1
 1066 1858 l 1,6,7
 1066 1641 1066 1641 876 1641 c 2,8,-1
 564 1641 l 2,9,10
 374 1641 374 1641 374 1858 c 1,11,-1
 620 1915 l 1,0,1
697 164 m 0,12,13
 968 164 968 164 968 597 c 2,14,-1
 968 1126 l 2,15,16
 968 1346 968 1346 711 1346 c 0,17,18
 440 1346 440 1346 440 913 c 2,19,-1
 440 384 l 2,20,21
 440 164 440 164 697 164 c 0,12,13
605 -20 m 0,22,23
 110 -20 110 -20 110 380 c 2,24,-1
 110 915 l 2,25,26
 110 1530 110 1530 803 1530 c 0,27,28
 1298 1530 1298 1530 1298 1130 c 2,29,-1
 1298 595 l 2,30,31
 1298 -20 1298 -20 605 -20 c 0,22,23
EndSplineSet
Validated: 19457
EndChar

StartChar: Ohungarumlaut
Encoding: 336 336 271
Width: 1408
Flags: W
HStem: -20 184<525.997 840.211> 1346 184<567.789 882.003>
VStem: 110 330<244.062 1184.06> 968 330<325.938 1265.94>
LayerCount: 2
Fore
SplineSet
1008 1969 m 1,0,-1
 1182 1799 l 1,1,-1
 886 1560 l 1,2,-1
 764 1678 l 1,3,-1
 1008 1969 l 1,0,-1
650 1969 m 1,4,-1
 824 1799 l 1,5,-1
 528 1560 l 1,6,-1
 406 1678 l 1,7,-1
 650 1969 l 1,4,-1
697 164 m 0,8,9
 968 164 968 164 968 597 c 2,10,-1
 968 1126 l 2,11,12
 968 1346 968 1346 711 1346 c 0,13,14
 440 1346 440 1346 440 913 c 2,15,-1
 440 384 l 2,16,17
 440 164 440 164 697 164 c 0,8,9
605 -20 m 0,18,19
 110 -20 110 -20 110 380 c 2,20,-1
 110 915 l 2,21,22
 110 1530 110 1530 803 1530 c 0,23,24
 1298 1530 1298 1530 1298 1130 c 2,25,-1
 1298 595 l 2,26,27
 1298 -20 1298 -20 605 -20 c 0,18,19
EndSplineSet
Validated: 19457
EndChar

StartChar: Racute
Encoding: 340 340 272
Width: 1377
Flags: W
HStem: 0 21G<150 470 880.5 1267> 481 188<470 766.383> 1323 187<456 811.821>
VStem: 150 320<0 481 669 1320.87> 850 330<86.3628 440.75> 894 330<854.186 1245.94>
LayerCount: 2
Fore
SplineSet
728 1969 m 1,0,-1
 902 1799 l 1,1,-1
 606 1560 l 1,2,-1
 484 1678 l 1,3,-1
 728 1969 l 1,0,-1
470 669 m 1,4,-1
 624 669 l 2,5,6
 894 669 894 669 894 1099 c 2,7,-1
 894 1106 l 2,8,9
 894 1323 894 1323 636 1323 c 2,10,-1
 456 1323 l 1,11,12
 470 1259 470 1259 470 1189 c 2,13,-1
 470 669 l 1,4,-1
150 0 m 1,14,-1
 150 1193 l 2,15,16
 150 1360 150 1360 60 1510 c 1,17,-1
 739 1510 l 2,18,19
 1224 1510 1224 1510 1224 1110 c 2,20,-1
 1224 1102 l 2,21,22
 1224 748 1224 748 956 601 c 1,23,24
 1180 525 1180 525 1180 324 c 2,25,-1
 1180 316 l 2,26,27
 1180 149 1180 149 1267 0 c 1,28,-1
 911 0 l 1,29,30
 850 141 850 141 850 312 c 2,31,-1
 850 320 l 2,32,33
 850 481 850 481 680 481 c 2,34,-1
 470 481 l 1,35,-1
 470 0 l 1,36,-1
 150 0 l 1,14,-1
EndSplineSet
Validated: 19457
EndChar

StartChar: Rcommaaccent
Encoding: 342 342 273
Width: 1377
Flags: W
HStem: 0 21G<150 470 880.5 1267> 481 188<470 766.383> 1323 187<456 811.821>
VStem: 150 320<0 481 669 1320.87> 850 330<86.3628 440.75> 894 330<854.186 1245.94>
LayerCount: 2
Fore
SplineSet
671 -50 m 1,0,-1
 845 -220 l 1,1,-1
 549 -459 l 1,2,-1
 427 -341 l 1,3,-1
 671 -50 l 1,0,-1
470 669 m 1,4,-1
 624 669 l 2,5,6
 894 669 894 669 894 1099 c 2,7,-1
 894 1106 l 2,8,9
 894 1323 894 1323 636 1323 c 2,10,-1
 456 1323 l 1,11,12
 470 1259 470 1259 470 1189 c 2,13,-1
 470 669 l 1,4,-1
150 0 m 1,14,-1
 150 1193 l 2,15,16
 150 1360 150 1360 60 1510 c 1,17,-1
 739 1510 l 2,18,19
 1224 1510 1224 1510 1224 1110 c 2,20,-1
 1224 1102 l 2,21,22
 1224 748 1224 748 956 601 c 1,23,24
 1180 525 1180 525 1180 324 c 2,25,-1
 1180 316 l 2,26,27
 1180 149 1180 149 1267 0 c 1,28,-1
 911 0 l 1,29,30
 850 141 850 141 850 312 c 2,31,-1
 850 320 l 2,32,33
 850 481 850 481 680 481 c 2,34,-1
 470 481 l 1,35,-1
 470 0 l 1,36,-1
 150 0 l 1,14,-1
EndSplineSet
Validated: 19457
EndChar

StartChar: Rcaron
Encoding: 344 344 274
Width: 1377
Flags: W
HStem: 0 21G<150 470 880.5 1267> 481 188<470 766.383> 1323 187<456 811.821> 1560 215<512.5 727.5>
VStem: 150 320<0 481 669 1320.87> 850 330<86.3628 440.75> 894 330<854.186 1245.94>
LayerCount: 2
Fore
SplineSet
440 1969 m 1,0,-1
 620 1775 l 1,1,-1
 800 1969 l 1,2,-1
 964 1808 l 1,3,-1
 620 1560 l 1,4,-1
 276 1808 l 1,5,-1
 440 1969 l 1,0,-1
470 669 m 1,6,-1
 624 669 l 2,7,8
 894 669 894 669 894 1099 c 2,9,-1
 894 1106 l 2,10,11
 894 1323 894 1323 636 1323 c 2,12,-1
 456 1323 l 1,13,14
 470 1259 470 1259 470 1189 c 2,15,-1
 470 669 l 1,6,-1
150 0 m 1,16,-1
 150 1193 l 2,17,18
 150 1360 150 1360 60 1510 c 1,19,-1
 739 1510 l 2,20,21
 1224 1510 1224 1510 1224 1110 c 2,22,-1
 1224 1102 l 2,23,24
 1224 748 1224 748 956 601 c 1,25,26
 1180 525 1180 525 1180 324 c 2,27,-1
 1180 316 l 2,28,29
 1180 149 1180 149 1267 0 c 1,30,-1
 911 0 l 1,31,32
 850 141 850 141 850 312 c 2,33,-1
 850 320 l 2,34,35
 850 481 850 481 680 481 c 2,36,-1
 470 481 l 1,37,-1
 470 0 l 1,38,-1
 150 0 l 1,16,-1
EndSplineSet
Validated: 19457
EndChar

StartChar: Scircumflex
Encoding: 348 348 275
Width: 1328
Flags: W
HStem: -20 184<498.998 796.767> 711 212<516.927 828.857> 1346 184<518.876 790.375> 1754 215<580.5 795.5>
VStem: 110 330<993.151 1257.75> 908 330<302.875 642.016>
LayerCount: 2
Fore
SplineSet
688 1969 m 1,0,-1
 1032 1721 l 1,1,-1
 868 1560 l 1,2,-1
 688 1754 l 1,3,-1
 508 1560 l 1,4,-1
 344 1721 l 1,5,-1
 688 1969 l 1,0,-1
545 -20 m 0,6,7
 70 -20 70 -20 70 399 c 1,8,-1
 400 480 l 1,9,10
 400 164 400 164 647 164 c 0,11,12
 908 164 908 164 908 513 c 2,13,-1
 908 515 l 2,14,15
 908 711 908 711 661 711 c 0,16,17
 110 711 110 711 110 1043 c 2,18,-1
 110 1046 l 2,19,20
 110 1530 110 1530 763 1530 c 0,21,22
 1197 1530 1197 1530 1198 1112 c 1,23,-1
 868 1031 l 1,24,25
 868 1346 868 1346 671 1346 c 0,26,27
 440 1346 440 1346 440 1115 c 2,28,-1
 440 1112 l 2,29,30
 440 923 440 923 684 923 c 0,31,32
 1238 923 1238 923 1238 556 c 2,33,-1
 1238 554 l 2,34,35
 1238 -20 1238 -20 545 -20 c 0,6,7
EndSplineSet
Validated: 19457
EndChar

StartChar: Scedilla
Encoding: 350 350 276
Width: 1328
Flags: W
HStem: -460 186<525 637.801> -20 184<506.047 526.907 740 795.597> 711 212<516.927 828.857> 1346 184<518.876 790.375>
VStem: 110 330<993.151 1257.75> 644 240<-360.75 -170.727> 908 330<301.661 642.016>
LayerCount: 2
Fore
SplineSet
520 -20 m 1,0,1
 70 -9 70 -9 70 399 c 1,2,-1
 400 480 l 1,3,4
 400 164 400 164 647 164 c 0,5,6
 908 164 908 164 908 513 c 2,7,-1
 908 515 l 2,8,9
 908 711 908 711 661 711 c 0,10,11
 110 711 110 711 110 1043 c 2,12,-1
 110 1046 l 2,13,14
 110 1530 110 1530 763 1530 c 0,15,16
 1197 1530 1197 1530 1198 1112 c 1,17,-1
 868 1031 l 1,18,19
 868 1346 868 1346 671 1346 c 0,20,21
 440 1346 440 1346 440 1115 c 2,22,-1
 440 1112 l 2,23,24
 440 923 440 923 684 923 c 0,25,26
 1238 923 1238 923 1238 556 c 2,27,-1
 1238 554 l 2,28,29
 1238 68 1238 68 740 -7 c 1,30,31
 743 -51 743 -51 780 -74 c 0,32,33
 884 -138 884 -138 884 -260 c 0,34,35
 884 -460 884 -460 525 -460 c 1,36,-1
 472 -274 l 1,37,38
 644 -274 644 -274 644 -224 c 0,39,40
 644 -202 644 -202 600 -171 c 0,41,42
 527 -118 527 -118 520 -20 c 1,0,1
EndSplineSet
Validated: 19457
EndChar

StartChar: Scaron
Encoding: 352 352 277
Width: 1328
Flags: W
HStem: -20 184<498.998 796.767> 711 212<516.927 828.857> 1346 184<518.876 790.375> 1560 215<594.5 809.5>
VStem: 110 330<993.151 1257.75> 908 330<302.875 642.016>
LayerCount: 2
Fore
SplineSet
522 1969 m 1,0,-1
 702 1775 l 1,1,-1
 882 1969 l 1,2,-1
 1046 1808 l 1,3,-1
 702 1560 l 1,4,-1
 358 1808 l 1,5,-1
 522 1969 l 1,0,-1
545 -20 m 0,6,7
 70 -20 70 -20 70 399 c 1,8,-1
 400 480 l 1,9,10
 400 164 400 164 647 164 c 0,11,12
 908 164 908 164 908 513 c 2,13,-1
 908 515 l 2,14,15
 908 711 908 711 661 711 c 0,16,17
 110 711 110 711 110 1043 c 2,18,-1
 110 1046 l 2,19,20
 110 1530 110 1530 763 1530 c 0,21,22
 1197 1530 1197 1530 1198 1112 c 1,23,-1
 868 1031 l 1,24,25
 868 1346 868 1346 671 1346 c 0,26,27
 440 1346 440 1346 440 1115 c 2,28,-1
 440 1112 l 2,29,30
 440 923 440 923 684 923 c 0,31,32
 1238 923 1238 923 1238 556 c 2,33,-1
 1238 554 l 2,34,35
 1238 -20 1238 -20 545 -20 c 0,6,7
EndSplineSet
Validated: 19457
EndChar

StartChar: Scommaaccent
Encoding: 536 536 278
Width: 1328
Flags: W
HStem: -20 184<498.998 796.767> 711 212<516.927 828.857> 1346 184<518.876 790.375>
VStem: 110 330<993.151 1257.75> 908 330<302.875 642.016>
LayerCount: 2
Fore
SplineSet
623 -50 m 1,0,-1
 797 -220 l 1,1,-1
 501 -459 l 1,2,-1
 379 -341 l 1,3,-1
 623 -50 l 1,0,-1
545 -20 m 0,4,5
 70 -20 70 -20 70 399 c 1,6,-1
 400 480 l 1,7,8
 400 164 400 164 647 164 c 0,9,10
 908 164 908 164 908 513 c 2,11,-1
 908 515 l 2,12,13
 908 711 908 711 661 711 c 0,14,15
 110 711 110 711 110 1043 c 2,16,-1
 110 1046 l 2,17,18
 110 1530 110 1530 763 1530 c 0,19,20
 1197 1530 1197 1530 1198 1112 c 1,21,-1
 868 1031 l 1,22,23
 868 1346 868 1346 671 1346 c 0,24,25
 440 1346 440 1346 440 1115 c 2,26,-1
 440 1112 l 2,27,28
 440 923 440 923 684 923 c 0,29,30
 1238 923 1238 923 1238 556 c 2,31,-1
 1238 554 l 2,32,33
 1238 -20 1238 -20 545 -20 c 0,4,5
EndSplineSet
Validated: 19457
EndChar

StartChar: Tcommaaccent
Encoding: 354 354 279
Width: 1160
Flags: W
HStem: -460 186<472 584.801> 1323 187<147.344 420 740 1150>
VStem: 420 320<0 1323> 591 240<-360.75 -170.727>
LayerCount: 2
Fore
SplineSet
420 0 m 1,0,-1
 420 1323 l 1,1,-1
 370 1323 l 2,2,3
 195 1323 195 1323 10 1209 c 1,4,-1
 10 1439 l 1,5,6
 181 1510 181 1510 370 1510 c 2,7,-1
 1150 1510 l 1,8,-1
 1150 1323 l 1,9,-1
 740 1323 l 1,10,-1
 740 0 l 1,11,-1
 687 0 l 1,12,13
 687 -49 687 -49 727 -74 c 0,14,15
 831 -138 831 -138 831 -260 c 0,16,17
 831 -460 831 -460 472 -460 c 1,18,-1
 419 -274 l 1,19,20
 591 -274 591 -274 591 -224 c 0,21,22
 591 -202 591 -202 547 -171 c 0,23,24
 466 -113 466 -113 466 0 c 1,25,-1
 420 0 l 1,0,-1
EndSplineSet
Validated: 1
EndChar

